<?xml version="1.0" encoding="utf-8" standalone="no"?>
<!DOCTYPE svg PUBLIC "-//W3C//DTD SVG 1.1//EN"
  "http://www.w3.org/Graphics/SVG/1.1/DTD/svg11.dtd">
<!-- Created with matplotlib (http://matplotlib.org/) -->
<svg height="258pt" version="1.1" viewBox="0 0 400 258" width="400pt" xmlns="http://www.w3.org/2000/svg" xmlns:xlink="http://www.w3.org/1999/xlink">
 <defs>
  <style type="text/css">
*{stroke-linecap:butt;stroke-linejoin:round;}
  </style>
 </defs>
 <g id="figure_1">
  <g id="patch_1">
   <path d="M 0 258 
L 400 258 
L 400 0 
L 0 0 
z
" style="fill:#ffffff;"/>
  </g>
  <g id="axes_1">
   <g id="patch_2">
    <path d="M 56.928125 216.84375 
L 385.7 216.84375 
L 385.7 25.918125 
L 56.928125 25.918125 
z
" style="fill:#ffffff;"/>
   </g>
   <g id="matplotlib.axis_1">
    <g id="xtick_1">
     <g id="line2d_1">
      <defs>
       <path d="M 0 0 
L 0 3.5 
" id="m18edf1a25d" style="stroke:#000000;stroke-width:0.8;"/>
      </defs>
      <g>
       <use style="stroke:#000000;stroke-width:0.8;" x="71.744409" xlink:href="#m18edf1a25d" y="216.84375"/>
      </g>
     </g>
     <g id="text_1">
      <!-- 0 -->
      <defs>
       <path d="M 31.78125 66.40625 
Q 24.171875 66.40625 20.328125 58.90625 
Q 16.5 51.421875 16.5 36.375 
Q 16.5 21.390625 20.328125 13.890625 
Q 24.171875 6.390625 31.78125 6.390625 
Q 39.453125 6.390625 43.28125 13.890625 
Q 47.125 21.390625 47.125 36.375 
Q 47.125 51.421875 43.28125 58.90625 
Q 39.453125 66.40625 31.78125 66.40625 
z
M 31.78125 74.21875 
Q 44.046875 74.21875 50.515625 64.515625 
Q 56.984375 54.828125 56.984375 36.375 
Q 56.984375 17.96875 50.515625 8.265625 
Q 44.046875 -1.421875 31.78125 -1.421875 
Q 19.53125 -1.421875 13.0625 8.265625 
Q 6.59375 17.96875 6.59375 36.375 
Q 6.59375 54.828125 13.0625 64.515625 
Q 19.53125 74.21875 31.78125 74.21875 
z
" id="DejaVuSans-30"/>
      </defs>
      <g transform="translate(68.563159 231.442187)scale(0.1 -0.1)">
       <use xlink:href="#DejaVuSans-30"/>
      </g>
     </g>
    </g>
    <g id="xtick_2">
     <g id="line2d_2">
      <g>
       <use style="stroke:#000000;stroke-width:0.8;" x="135.690392" xlink:href="#m18edf1a25d" y="216.84375"/>
      </g>
     </g>
     <g id="text_2">
      <!-- 500 -->
      <defs>
       <path d="M 10.796875 72.90625 
L 49.515625 72.90625 
L 49.515625 64.59375 
L 19.828125 64.59375 
L 19.828125 46.734375 
Q 21.96875 47.46875 24.109375 47.828125 
Q 26.265625 48.1875 28.421875 48.1875 
Q 40.625 48.1875 47.75 41.5 
Q 54.890625 34.8125 54.890625 23.390625 
Q 54.890625 11.625 47.5625 5.09375 
Q 40.234375 -1.421875 26.90625 -1.421875 
Q 22.3125 -1.421875 17.546875 -0.640625 
Q 12.796875 0.140625 7.71875 1.703125 
L 7.71875 11.625 
Q 12.109375 9.234375 16.796875 8.0625 
Q 21.484375 6.890625 26.703125 6.890625 
Q 35.15625 6.890625 40.078125 11.328125 
Q 45.015625 15.765625 45.015625 23.390625 
Q 45.015625 31 40.078125 35.4375 
Q 35.15625 39.890625 26.703125 39.890625 
Q 22.75 39.890625 18.8125 39.015625 
Q 14.890625 38.140625 10.796875 36.28125 
z
" id="DejaVuSans-35"/>
      </defs>
      <g transform="translate(126.146642 231.442187)scale(0.1 -0.1)">
       <use xlink:href="#DejaVuSans-35"/>
       <use x="63.623047" xlink:href="#DejaVuSans-30"/>
       <use x="127.246094" xlink:href="#DejaVuSans-30"/>
      </g>
     </g>
    </g>
    <g id="xtick_3">
     <g id="line2d_3">
      <g>
       <use style="stroke:#000000;stroke-width:0.8;" x="199.636374" xlink:href="#m18edf1a25d" y="216.84375"/>
      </g>
     </g>
     <g id="text_3">
      <!-- 1000 -->
      <defs>
       <path d="M 12.40625 8.296875 
L 28.515625 8.296875 
L 28.515625 63.921875 
L 10.984375 60.40625 
L 10.984375 69.390625 
L 28.421875 72.90625 
L 38.28125 72.90625 
L 38.28125 8.296875 
L 54.390625 8.296875 
L 54.390625 0 
L 12.40625 0 
z
" id="DejaVuSans-31"/>
      </defs>
      <g transform="translate(186.911374 231.442187)scale(0.1 -0.1)">
       <use xlink:href="#DejaVuSans-31"/>
       <use x="63.623047" xlink:href="#DejaVuSans-30"/>
       <use x="127.246094" xlink:href="#DejaVuSans-30"/>
       <use x="190.869141" xlink:href="#DejaVuSans-30"/>
      </g>
     </g>
    </g>
    <g id="xtick_4">
     <g id="line2d_4">
      <g>
       <use style="stroke:#000000;stroke-width:0.8;" x="263.582357" xlink:href="#m18edf1a25d" y="216.84375"/>
      </g>
     </g>
     <g id="text_4">
      <!-- 1500 -->
      <g transform="translate(250.857357 231.442187)scale(0.1 -0.1)">
       <use xlink:href="#DejaVuSans-31"/>
       <use x="63.623047" xlink:href="#DejaVuSans-35"/>
       <use x="127.246094" xlink:href="#DejaVuSans-30"/>
       <use x="190.869141" xlink:href="#DejaVuSans-30"/>
      </g>
     </g>
    </g>
    <g id="xtick_5">
     <g id="line2d_5">
      <g>
       <use style="stroke:#000000;stroke-width:0.8;" x="327.52834" xlink:href="#m18edf1a25d" y="216.84375"/>
      </g>
     </g>
     <g id="text_5">
      <!-- 2000 -->
      <defs>
       <path d="M 19.1875 8.296875 
L 53.609375 8.296875 
L 53.609375 0 
L 7.328125 0 
L 7.328125 8.296875 
Q 12.9375 14.109375 22.625 23.890625 
Q 32.328125 33.6875 34.8125 36.53125 
Q 39.546875 41.84375 41.421875 45.53125 
Q 43.3125 49.21875 43.3125 52.78125 
Q 43.3125 58.59375 39.234375 62.25 
Q 35.15625 65.921875 28.609375 65.921875 
Q 23.96875 65.921875 18.8125 64.3125 
Q 13.671875 62.703125 7.8125 59.421875 
L 7.8125 69.390625 
Q 13.765625 71.78125 18.9375 73 
Q 24.125 74.21875 28.421875 74.21875 
Q 39.75 74.21875 46.484375 68.546875 
Q 53.21875 62.890625 53.21875 53.421875 
Q 53.21875 48.921875 51.53125 44.890625 
Q 49.859375 40.875 45.40625 35.40625 
Q 44.1875 33.984375 37.640625 27.21875 
Q 31.109375 20.453125 19.1875 8.296875 
z
" id="DejaVuSans-32"/>
      </defs>
      <g transform="translate(314.80334 231.442187)scale(0.1 -0.1)">
       <use xlink:href="#DejaVuSans-32"/>
       <use x="63.623047" xlink:href="#DejaVuSans-30"/>
       <use x="127.246094" xlink:href="#DejaVuSans-30"/>
       <use x="190.869141" xlink:href="#DejaVuSans-30"/>
      </g>
     </g>
    </g>
    <g id="text_6">
     <!-- Days -->
     <defs>
      <path d="M 19.671875 64.796875 
L 19.671875 8.109375 
L 31.59375 8.109375 
Q 46.6875 8.109375 53.6875 14.9375 
Q 60.6875 21.78125 60.6875 36.53125 
Q 60.6875 51.171875 53.6875 57.984375 
Q 46.6875 64.796875 31.59375 64.796875 
z
M 9.8125 72.90625 
L 30.078125 72.90625 
Q 51.265625 72.90625 61.171875 64.09375 
Q 71.09375 55.28125 71.09375 36.53125 
Q 71.09375 17.671875 61.125 8.828125 
Q 51.171875 0 30.078125 0 
L 9.8125 0 
z
" id="DejaVuSans-44"/>
      <path d="M 34.28125 27.484375 
Q 23.390625 27.484375 19.1875 25 
Q 14.984375 22.515625 14.984375 16.5 
Q 14.984375 11.71875 18.140625 8.90625 
Q 21.296875 6.109375 26.703125 6.109375 
Q 34.1875 6.109375 38.703125 11.40625 
Q 43.21875 16.703125 43.21875 25.484375 
L 43.21875 27.484375 
z
M 52.203125 31.203125 
L 52.203125 0 
L 43.21875 0 
L 43.21875 8.296875 
Q 40.140625 3.328125 35.546875 0.953125 
Q 30.953125 -1.421875 24.3125 -1.421875 
Q 15.921875 -1.421875 10.953125 3.296875 
Q 6 8.015625 6 15.921875 
Q 6 25.140625 12.171875 29.828125 
Q 18.359375 34.515625 30.609375 34.515625 
L 43.21875 34.515625 
L 43.21875 35.40625 
Q 43.21875 41.609375 39.140625 45 
Q 35.0625 48.390625 27.6875 48.390625 
Q 23 48.390625 18.546875 47.265625 
Q 14.109375 46.140625 10.015625 43.890625 
L 10.015625 52.203125 
Q 14.9375 54.109375 19.578125 55.046875 
Q 24.21875 56 28.609375 56 
Q 40.484375 56 46.34375 49.84375 
Q 52.203125 43.703125 52.203125 31.203125 
z
" id="DejaVuSans-61"/>
      <path d="M 32.171875 -5.078125 
Q 28.375 -14.84375 24.75 -17.8125 
Q 21.140625 -20.796875 15.09375 -20.796875 
L 7.90625 -20.796875 
L 7.90625 -13.28125 
L 13.1875 -13.28125 
Q 16.890625 -13.28125 18.9375 -11.515625 
Q 21 -9.765625 23.484375 -3.21875 
L 25.09375 0.875 
L 2.984375 54.6875 
L 12.5 54.6875 
L 29.59375 11.921875 
L 46.6875 54.6875 
L 56.203125 54.6875 
z
" id="DejaVuSans-79"/>
      <path d="M 44.28125 53.078125 
L 44.28125 44.578125 
Q 40.484375 46.53125 36.375 47.5 
Q 32.28125 48.484375 27.875 48.484375 
Q 21.1875 48.484375 17.84375 46.4375 
Q 14.5 44.390625 14.5 40.28125 
Q 14.5 37.15625 16.890625 35.375 
Q 19.28125 33.59375 26.515625 31.984375 
L 29.59375 31.296875 
Q 39.15625 29.25 43.1875 25.515625 
Q 47.21875 21.78125 47.21875 15.09375 
Q 47.21875 7.46875 41.1875 3.015625 
Q 35.15625 -1.421875 24.609375 -1.421875 
Q 20.21875 -1.421875 15.453125 -0.5625 
Q 10.6875 0.296875 5.421875 2 
L 5.421875 11.28125 
Q 10.40625 8.6875 15.234375 7.390625 
Q 20.0625 6.109375 24.8125 6.109375 
Q 31.15625 6.109375 34.5625 8.28125 
Q 37.984375 10.453125 37.984375 14.40625 
Q 37.984375 18.0625 35.515625 20.015625 
Q 33.0625 21.96875 24.703125 23.78125 
L 21.578125 24.515625 
Q 13.234375 26.265625 9.515625 29.90625 
Q 5.8125 33.546875 5.8125 39.890625 
Q 5.8125 47.609375 11.28125 51.796875 
Q 16.75 56 26.8125 56 
Q 31.78125 56 36.171875 55.265625 
Q 40.578125 54.546875 44.28125 53.078125 
z
" id="DejaVuSans-73"/>
     </defs>
     <g transform="translate(208.835937 245.120312)scale(0.1 -0.1)">
      <use xlink:href="#DejaVuSans-44"/>
      <use x="77.001953" xlink:href="#DejaVuSans-61"/>
      <use x="138.28125" xlink:href="#DejaVuSans-79"/>
      <use x="197.460938" xlink:href="#DejaVuSans-73"/>
     </g>
    </g>
   </g>
   <g id="matplotlib.axis_2">
    <g id="ytick_1">
     <g id="line2d_6">
      <defs>
       <path d="M 0 0 
L -3.5 0 
" id="ma6db695686" style="stroke:#000000;stroke-width:0.8;"/>
      </defs>
      <g>
       <use style="stroke:#000000;stroke-width:0.8;" x="56.928125" xlink:href="#ma6db695686" y="213.816921"/>
      </g>
     </g>
     <g id="text_7">
      <!-- 0 -->
      <g transform="translate(43.565625 217.61614)scale(0.1 -0.1)">
       <use xlink:href="#DejaVuSans-30"/>
      </g>
     </g>
    </g>
    <g id="ytick_2">
     <g id="line2d_7">
      <g>
       <use style="stroke:#000000;stroke-width:0.8;" x="56.928125" xlink:href="#ma6db695686" y="181.549674"/>
      </g>
     </g>
     <g id="text_8">
      <!-- 200 -->
      <g transform="translate(30.840625 185.348892)scale(0.1 -0.1)">
       <use xlink:href="#DejaVuSans-32"/>
       <use x="63.623047" xlink:href="#DejaVuSans-30"/>
       <use x="127.246094" xlink:href="#DejaVuSans-30"/>
      </g>
     </g>
    </g>
    <g id="ytick_3">
     <g id="line2d_8">
      <g>
       <use style="stroke:#000000;stroke-width:0.8;" x="56.928125" xlink:href="#ma6db695686" y="149.282426"/>
      </g>
     </g>
     <g id="text_9">
      <!-- 400 -->
      <defs>
       <path d="M 37.796875 64.3125 
L 12.890625 25.390625 
L 37.796875 25.390625 
z
M 35.203125 72.90625 
L 47.609375 72.90625 
L 47.609375 25.390625 
L 58.015625 25.390625 
L 58.015625 17.1875 
L 47.609375 17.1875 
L 47.609375 0 
L 37.796875 0 
L 37.796875 17.1875 
L 4.890625 17.1875 
L 4.890625 26.703125 
z
" id="DejaVuSans-34"/>
      </defs>
      <g transform="translate(30.840625 153.081645)scale(0.1 -0.1)">
       <use xlink:href="#DejaVuSans-34"/>
       <use x="63.623047" xlink:href="#DejaVuSans-30"/>
       <use x="127.246094" xlink:href="#DejaVuSans-30"/>
      </g>
     </g>
    </g>
    <g id="ytick_4">
     <g id="line2d_9">
      <g>
       <use style="stroke:#000000;stroke-width:0.8;" x="56.928125" xlink:href="#ma6db695686" y="117.015179"/>
      </g>
     </g>
     <g id="text_10">
      <!-- 600 -->
      <defs>
       <path d="M 33.015625 40.375 
Q 26.375 40.375 22.484375 35.828125 
Q 18.609375 31.296875 18.609375 23.390625 
Q 18.609375 15.53125 22.484375 10.953125 
Q 26.375 6.390625 33.015625 6.390625 
Q 39.65625 6.390625 43.53125 10.953125 
Q 47.40625 15.53125 47.40625 23.390625 
Q 47.40625 31.296875 43.53125 35.828125 
Q 39.65625 40.375 33.015625 40.375 
z
M 52.59375 71.296875 
L 52.59375 62.3125 
Q 48.875 64.0625 45.09375 64.984375 
Q 41.3125 65.921875 37.59375 65.921875 
Q 27.828125 65.921875 22.671875 59.328125 
Q 17.53125 52.734375 16.796875 39.40625 
Q 19.671875 43.65625 24.015625 45.921875 
Q 28.375 48.1875 33.59375 48.1875 
Q 44.578125 48.1875 50.953125 41.515625 
Q 57.328125 34.859375 57.328125 23.390625 
Q 57.328125 12.15625 50.6875 5.359375 
Q 44.046875 -1.421875 33.015625 -1.421875 
Q 20.359375 -1.421875 13.671875 8.265625 
Q 6.984375 17.96875 6.984375 36.375 
Q 6.984375 53.65625 15.1875 63.9375 
Q 23.390625 74.21875 37.203125 74.21875 
Q 40.921875 74.21875 44.703125 73.484375 
Q 48.484375 72.75 52.59375 71.296875 
z
" id="DejaVuSans-36"/>
      </defs>
      <g transform="translate(30.840625 120.814398)scale(0.1 -0.1)">
       <use xlink:href="#DejaVuSans-36"/>
       <use x="63.623047" xlink:href="#DejaVuSans-30"/>
       <use x="127.246094" xlink:href="#DejaVuSans-30"/>
      </g>
     </g>
    </g>
    <g id="ytick_5">
     <g id="line2d_10">
      <g>
       <use style="stroke:#000000;stroke-width:0.8;" x="56.928125" xlink:href="#ma6db695686" y="84.747932"/>
      </g>
     </g>
     <g id="text_11">
      <!-- 800 -->
      <defs>
       <path d="M 31.78125 34.625 
Q 24.75 34.625 20.71875 30.859375 
Q 16.703125 27.09375 16.703125 20.515625 
Q 16.703125 13.921875 20.71875 10.15625 
Q 24.75 6.390625 31.78125 6.390625 
Q 38.8125 6.390625 42.859375 10.171875 
Q 46.921875 13.96875 46.921875 20.515625 
Q 46.921875 27.09375 42.890625 30.859375 
Q 38.875 34.625 31.78125 34.625 
z
M 21.921875 38.8125 
Q 15.578125 40.375 12.03125 44.71875 
Q 8.5 49.078125 8.5 55.328125 
Q 8.5 64.0625 14.71875 69.140625 
Q 20.953125 74.21875 31.78125 74.21875 
Q 42.671875 74.21875 48.875 69.140625 
Q 55.078125 64.0625 55.078125 55.328125 
Q 55.078125 49.078125 51.53125 44.71875 
Q 48 40.375 41.703125 38.8125 
Q 48.828125 37.15625 52.796875 32.3125 
Q 56.78125 27.484375 56.78125 20.515625 
Q 56.78125 9.90625 50.3125 4.234375 
Q 43.84375 -1.421875 31.78125 -1.421875 
Q 19.734375 -1.421875 13.25 4.234375 
Q 6.78125 9.90625 6.78125 20.515625 
Q 6.78125 27.484375 10.78125 32.3125 
Q 14.796875 37.15625 21.921875 38.8125 
z
M 18.3125 54.390625 
Q 18.3125 48.734375 21.84375 45.5625 
Q 25.390625 42.390625 31.78125 42.390625 
Q 38.140625 42.390625 41.71875 45.5625 
Q 45.3125 48.734375 45.3125 54.390625 
Q 45.3125 60.0625 41.71875 63.234375 
Q 38.140625 66.40625 31.78125 66.40625 
Q 25.390625 66.40625 21.84375 63.234375 
Q 18.3125 60.0625 18.3125 54.390625 
z
" id="DejaVuSans-38"/>
      </defs>
      <g transform="translate(30.840625 88.54715)scale(0.1 -0.1)">
       <use xlink:href="#DejaVuSans-38"/>
       <use x="63.623047" xlink:href="#DejaVuSans-30"/>
       <use x="127.246094" xlink:href="#DejaVuSans-30"/>
      </g>
     </g>
    </g>
    <g id="ytick_6">
     <g id="line2d_11">
      <g>
       <use style="stroke:#000000;stroke-width:0.8;" x="56.928125" xlink:href="#ma6db695686" y="52.480684"/>
      </g>
     </g>
     <g id="text_12">
      <!-- 1000 -->
      <g transform="translate(24.478125 56.279903)scale(0.1 -0.1)">
       <use xlink:href="#DejaVuSans-31"/>
       <use x="63.623047" xlink:href="#DejaVuSans-30"/>
       <use x="127.246094" xlink:href="#DejaVuSans-30"/>
       <use x="190.869141" xlink:href="#DejaVuSans-30"/>
      </g>
     </g>
    </g>
    <g id="text_13">
     <!-- Prices, $ -->
     <defs>
      <path d="M 19.671875 64.796875 
L 19.671875 37.40625 
L 32.078125 37.40625 
Q 38.96875 37.40625 42.71875 40.96875 
Q 46.484375 44.53125 46.484375 51.125 
Q 46.484375 57.671875 42.71875 61.234375 
Q 38.96875 64.796875 32.078125 64.796875 
z
M 9.8125 72.90625 
L 32.078125 72.90625 
Q 44.34375 72.90625 50.609375 67.359375 
Q 56.890625 61.8125 56.890625 51.125 
Q 56.890625 40.328125 50.609375 34.8125 
Q 44.34375 29.296875 32.078125 29.296875 
L 19.671875 29.296875 
L 19.671875 0 
L 9.8125 0 
z
" id="DejaVuSans-50"/>
      <path d="M 41.109375 46.296875 
Q 39.59375 47.171875 37.8125 47.578125 
Q 36.03125 48 33.890625 48 
Q 26.265625 48 22.1875 43.046875 
Q 18.109375 38.09375 18.109375 28.8125 
L 18.109375 0 
L 9.078125 0 
L 9.078125 54.6875 
L 18.109375 54.6875 
L 18.109375 46.1875 
Q 20.953125 51.171875 25.484375 53.578125 
Q 30.03125 56 36.53125 56 
Q 37.453125 56 38.578125 55.875 
Q 39.703125 55.765625 41.0625 55.515625 
z
" id="DejaVuSans-72"/>
      <path d="M 9.421875 54.6875 
L 18.40625 54.6875 
L 18.40625 0 
L 9.421875 0 
z
M 9.421875 75.984375 
L 18.40625 75.984375 
L 18.40625 64.59375 
L 9.421875 64.59375 
z
" id="DejaVuSans-69"/>
      <path d="M 48.78125 52.59375 
L 48.78125 44.1875 
Q 44.96875 46.296875 41.140625 47.34375 
Q 37.3125 48.390625 33.40625 48.390625 
Q 24.65625 48.390625 19.8125 42.84375 
Q 14.984375 37.3125 14.984375 27.296875 
Q 14.984375 17.28125 19.8125 11.734375 
Q 24.65625 6.203125 33.40625 6.203125 
Q 37.3125 6.203125 41.140625 7.25 
Q 44.96875 8.296875 48.78125 10.40625 
L 48.78125 2.09375 
Q 45.015625 0.34375 40.984375 -0.53125 
Q 36.96875 -1.421875 32.421875 -1.421875 
Q 20.0625 -1.421875 12.78125 6.34375 
Q 5.515625 14.109375 5.515625 27.296875 
Q 5.515625 40.671875 12.859375 48.328125 
Q 20.21875 56 33.015625 56 
Q 37.15625 56 41.109375 55.140625 
Q 45.0625 54.296875 48.78125 52.59375 
z
" id="DejaVuSans-63"/>
      <path d="M 56.203125 29.59375 
L 56.203125 25.203125 
L 14.890625 25.203125 
Q 15.484375 15.921875 20.484375 11.0625 
Q 25.484375 6.203125 34.421875 6.203125 
Q 39.59375 6.203125 44.453125 7.46875 
Q 49.3125 8.734375 54.109375 11.28125 
L 54.109375 2.78125 
Q 49.265625 0.734375 44.1875 -0.34375 
Q 39.109375 -1.421875 33.890625 -1.421875 
Q 20.796875 -1.421875 13.15625 6.1875 
Q 5.515625 13.8125 5.515625 26.8125 
Q 5.515625 40.234375 12.765625 48.109375 
Q 20.015625 56 32.328125 56 
Q 43.359375 56 49.78125 48.890625 
Q 56.203125 41.796875 56.203125 29.59375 
z
M 47.21875 32.234375 
Q 47.125 39.59375 43.09375 43.984375 
Q 39.0625 48.390625 32.421875 48.390625 
Q 24.90625 48.390625 20.390625 44.140625 
Q 15.875 39.890625 15.1875 32.171875 
z
" id="DejaVuSans-65"/>
      <path d="M 11.71875 12.40625 
L 22.015625 12.40625 
L 22.015625 4 
L 14.015625 -11.625 
L 7.71875 -11.625 
L 11.71875 4 
z
" id="DejaVuSans-2c"/>
      <path id="DejaVuSans-20"/>
      <path d="M 33.796875 -14.703125 
L 28.90625 -14.703125 
L 28.859375 0 
Q 23.734375 0.09375 18.609375 1.1875 
Q 13.484375 2.296875 8.296875 4.5 
L 8.296875 13.28125 
Q 13.28125 10.15625 18.375 8.5625 
Q 23.484375 6.984375 28.90625 6.9375 
L 28.90625 29.203125 
Q 18.109375 30.953125 13.203125 35.15625 
Q 8.296875 39.359375 8.296875 46.6875 
Q 8.296875 54.640625 13.625 59.21875 
Q 18.953125 63.8125 28.90625 64.5 
L 28.90625 75.984375 
L 33.796875 75.984375 
L 33.796875 64.65625 
Q 38.328125 64.453125 42.578125 63.6875 
Q 46.828125 62.9375 50.875 61.625 
L 50.875 53.078125 
Q 46.828125 55.125 42.546875 56.25 
Q 38.28125 57.375 33.796875 57.5625 
L 33.796875 36.71875 
Q 44.875 35.015625 50.09375 30.609375 
Q 55.328125 26.21875 55.328125 18.609375 
Q 55.328125 10.359375 49.78125 5.59375 
Q 44.234375 0.828125 33.796875 0.09375 
z
M 28.90625 37.59375 
L 28.90625 57.625 
Q 23.25 56.984375 20.265625 54.390625 
Q 17.28125 51.8125 17.28125 47.515625 
Q 17.28125 43.3125 20.03125 40.96875 
Q 22.796875 38.625 28.90625 37.59375 
z
M 33.796875 28.21875 
L 33.796875 7.078125 
Q 39.984375 7.90625 43.140625 10.59375 
Q 46.296875 13.28125 46.296875 17.671875 
Q 46.296875 21.96875 43.28125 24.5 
Q 40.28125 27.046875 33.796875 28.21875 
z
" id="DejaVuSans-24"/>
     </defs>
     <g transform="translate(18.398438 142.629375)rotate(-90)scale(0.1 -0.1)">
      <use xlink:href="#DejaVuSans-50"/>
      <use x="60.287109" xlink:href="#DejaVuSans-72"/>
      <use x="101.400391" xlink:href="#DejaVuSans-69"/>
      <use x="129.183594" xlink:href="#DejaVuSans-63"/>
      <use x="184.164062" xlink:href="#DejaVuSans-65"/>
      <use x="245.6875" xlink:href="#DejaVuSans-73"/>
      <use x="297.787109" xlink:href="#DejaVuSans-2c"/>
      <use x="329.574219" xlink:href="#DejaVuSans-20"/>
      <use x="361.361328" xlink:href="#DejaVuSans-24"/>
     </g>
    </g>
   </g>
   <g id="line2d_12">
    <path clip-path="url(#p85de9a59f4)" d="M 71.872301 201.116532 
L 72.000193 201.18268 
L 72.128085 201.558594 
L 72.255977 201.198814 
L 72.383869 201.198814 
L 72.639653 201.595701 
L 72.767545 201.602154 
L 72.895437 201.053611 
L 73.151221 201.402097 
L 73.279113 200.82774 
L 73.407005 199.604812 
L 73.662789 199.830683 
L 73.790681 199.614492 
L 73.918573 199.87747 
L 74.174357 200.701898 
L 74.43014 200.384066 
L 74.558032 200.061393 
L 74.813816 200.62607 
L 74.941708 200.63091 
L 75.0696 200.358252 
L 75.197492 200.77934 
L 75.325384 200.682538 
L 75.453276 200.785793 
L 75.581168 201.227854 
L 75.836952 200.722872 
L 76.092736 201.435978 
L 76.220628 200.989077 
L 76.476412 201.339176 
L 76.604304 201.114919 
L 76.732196 202.274927 
L 76.98798 200.748686 
L 77.243764 202.239433 
L 77.371656 202.529838 
L 77.499548 202.187805 
L 77.62744 202.410449 
L 77.755332 203.59627 
L 77.883224 202.078096 
L 78.139007 202.949312 
L 78.266899 203.007393 
L 78.394791 203.292958 
L 78.522683 204.375524 
L 78.650575 203.972184 
L 78.778467 204.782092 
L 78.906359 204.741758 
L 79.034251 203.810847 
L 79.290035 205.956619 
L 79.673711 205.27094 
L 79.801603 205.713002 
L 80.313171 205.81787 
L 80.568955 204.638502 
L 80.696847 204.667543 
L 80.824739 204.582035 
L 80.952631 204.819199 
L 81.080523 204.386818 
L 81.336307 206.198624 
L 81.464199 205.877565 
L 81.59209 205.998567 
L 81.719982 206.347053 
L 81.847874 207.111787 
L 81.975766 206.568084 
L 82.23155 207.413486 
L 82.359442 207.615156 
L 82.615226 208.165312 
L 83.126794 206.72458 
L 83.382578 207.287643 
L 83.51047 207.171481 
L 83.766254 206.18249 
L 83.894146 206.030834 
L 84.022038 205.522625 
L 84.14993 205.548439 
L 84.405714 206.032447 
L 84.533606 205.548439 
L 84.661498 205.935646 
L 84.917282 205.23706 
L 85.300957 205.775923 
L 85.556741 205.517785 
L 85.684633 205.462931 
L 85.812525 205.846911 
L 86.451985 204.562674 
L 86.579877 204.749824 
L 86.707769 204.594942 
L 86.835661 204.861146 
L 87.091445 205.516171 
L 87.219337 205.993727 
L 87.347229 205.517785 
L 87.475121 205.493584 
L 87.603013 206.001794 
L 87.730905 205.662987 
L 87.858797 205.759789 
L 87.986689 205.648467 
L 88.242473 206.001794 
L 88.370365 205.692028 
L 88.498257 205.750109 
L 88.754041 203.95121 
L 88.881933 203.55755 
L 89.009824 203.96573 
L 89.3935 203.054181 
L 89.521392 203.602724 
L 89.649284 203.434289 
L 89.905068 203.610791 
L 90.03296 203.867315 
L 90.160852 203.757607 
L 90.288744 203.822141 
L 90.416636 203.513989 
L 90.544528 203.860862 
L 90.67242 203.233264 
L 90.928204 203.75922 
L 91.056096 203.363946 
L 91.31188 203.862475 
L 91.439772 203.360719 
L 91.567664 203.367173 
L 91.823448 204.057692 
L 92.079232 202.758935 
L 92.207124 202.591146 
L 92.462908 203.01062 
L 92.5908 202.30558 
L 92.718691 202.321714 
L 92.974475 202.529838 
L 93.102367 201.623128 
L 93.358151 202.136177 
L 93.486043 201.928054 
L 93.613935 202.439489 
L 93.741827 202.29106 
L 93.869719 201.968388 
L 93.997611 201.958707 
L 94.253395 201.205267 
L 94.381287 201.234308 
L 94.509179 201.634422 
L 94.764963 200.947129 
L 94.892855 201.081038 
L 95.148639 201.763491 
L 95.404423 201.224628 
L 95.532315 201.302069 
L 95.915991 200.811607 
L 96.043883 200.190462 
L 96.427558 200.943903 
L 96.55545 200.826127 
L 96.683342 201.077812 
L 96.811234 200.947129 
L 96.939126 200.603483 
L 97.067018 200.588963 
L 97.322802 201.240761 
L 97.450694 201.134279 
L 97.578586 201.243988 
L 97.706478 201.847385 
L 97.83437 201.698956 
L 97.962262 201.942574 
L 98.218046 201.253668 
L 98.345938 201.237535 
L 98.601722 201.613448 
L 98.729614 201.169773 
L 98.857506 201.377897 
L 99.11329 201.234308 
L 99.369074 200.114634 
L 99.75275 199.69032 
L 99.880642 199.883923 
L 100.008533 199.767761 
L 100.264317 199.992019 
L 100.647993 200.563149 
L 100.775885 200.482481 
L 100.903777 200.652691 
L 101.031669 200.432467 
L 101.287453 201.284322 
L 101.671129 200.284037 
L 101.799021 200.421173 
L 101.926913 200.319531 
L 102.438481 201.615061 
L 102.694265 201.216561 
L 102.822157 201.292389 
L 103.077941 200.595416 
L 103.333725 199.924258 
L 103.461617 199.966205 
L 103.7174 199.456382 
L 103.845292 199.491876 
L 103.973184 198.672288 
L 104.228968 200.225956 
L 104.35686 200.106567 
L 104.484752 200.209823 
L 104.612644 199.927484 
L 104.740536 199.980725 
L 104.868428 199.70968 
L 105.124212 200.217889 
L 105.507888 200.193689 
L 105.63578 200.335665 
L 105.763672 199.948458 
L 106.147348 200.739006 
L 106.658916 200.103341 
L 107.042592 200.264677 
L 107.170484 200.214663 
L 107.682051 201.210107 
L 107.937835 201.092332 
L 108.321511 200.288877 
L 108.449403 200.177555 
L 108.705187 200.337278 
L 108.833079 199.183724 
L 109.216755 199.206311 
L 109.344647 198.691649 
L 109.728323 199.212765 
L 109.856215 198.940106 
L 109.984107 199.019161 
L 110.111999 198.75457 
L 110.367783 199.32086 
L 110.495675 199.511237 
L 111.007242 198.37543 
L 111.135134 198.715849 
L 111.263026 198.517406 
L 111.390918 198.093091 
L 111.646702 198.438351 
L 111.774594 198.541606 
L 111.902486 198.493205 
L 112.030378 198.74489 
L 112.15827 198.74005 
L 112.414054 193.707988 
L 112.669838 194.191981 
L 112.79773 194.040809 
L 112.925622 194.648563 
L 113.181406 194.719551 
L 113.309298 194.924448 
L 113.820866 192.81901 
L 113.948758 192.85773 
L 114.07665 192.757702 
L 114.204542 192.364041 
L 114.460326 192.64154 
L 114.588218 192.635086 
L 114.716109 193.00616 
L 114.844001 192.898064 
L 114.971893 192.359201 
L 115.099785 192.368882 
L 115.227677 192.193025 
L 115.355569 192.562485 
L 115.739245 190.866841 
L 115.867137 191.041084 
L 116.122921 192.163985 
L 116.250813 192.180118 
L 116.378705 192.63186 
L 116.506597 191.975221 
L 116.634489 192.173665 
L 116.890273 192.806103 
L 117.146057 193.341739 
L 117.273949 193.088441 
L 117.657625 191.400864 
L 117.785517 191.476692 
L 118.041301 191.325036 
L 118.297085 192.11397 
L 118.424976 192.213999 
L 118.552868 192.086543 
L 118.808652 192.84321 
L 118.936544 192.275307 
L 119.192328 193.270751 
L 119.32022 192.986799 
L 119.576004 193.304632 
L 119.703896 193.228804 
L 119.831788 193.524049 
L 119.95968 193.388527 
L 120.215464 194.406558 
L 120.343356 194.540467 
L 120.59914 193.483715 
L 120.727032 193.583743 
L 120.854924 194.638882 
L 120.982816 194.759885 
L 121.110708 194.601775 
L 121.2386 195.111598 
L 121.366492 194.87766 
L 121.494384 194.968008 
L 121.622276 194.774405 
L 121.750168 194.8825 
L 121.87806 194.442052 
L 122.005952 194.511427 
L 122.261735 195.051903 
L 122.389627 194.766338 
L 122.517519 194.856686 
L 122.645411 194.777632 
L 122.773303 194.90186 
L 122.901195 194.501747 
L 123.029087 194.746978 
L 123.156979 194.71471 
L 123.412763 193.564383 
L 123.540655 193.506302 
L 123.796439 193.019067 
L 123.924331 192.825463 
L 124.052223 193.033587 
L 124.308007 192.265626 
L 124.563791 192.6609 
L 124.691683 192.554418 
L 124.819575 192.62702 
L 124.947467 192.397922 
L 125.075359 192.786742 
L 125.203251 192.767382 
L 125.459035 193.159429 
L 125.586927 192.08009 
L 125.84271 192.017169 
L 125.970602 191.781779 
L 126.098494 191.9123 
L 126.226386 192.551192 
L 126.354278 192.602819 
L 126.48217 191.946181 
L 126.610062 192.057503 
L 126.737954 191.074965 
L 126.865846 191.220168 
L 126.993738 191.036244 
L 127.12163 191.204034 
L 127.377414 190.290871 
L 127.505306 190.879587 
L 127.633198 190.837801 
L 127.888982 190.192456 
L 128.016874 189.601965 
L 128.144766 190.644197 
L 128.272658 190.082747 
L 128.528442 191.334716 
L 128.656334 190.950736 
L 128.784226 191.697723 
L 128.912118 191.634802 
L 129.04001 192.870637 
L 129.167902 192.693167 
L 129.423685 193.653118 
L 129.551577 192.635086 
L 129.679469 192.768995 
L 129.807361 192.218839 
L 130.063145 193.07989 
L 130.191037 193.019067 
L 130.574713 194.50336 
L 130.702605 194.017738 
L 130.830497 194.11454 
L 130.958389 193.672478 
L 131.086281 193.938683 
L 131.214173 193.37562 
L 131.469957 193.933843 
L 131.725741 193.043267 
L 131.981525 194.132287 
L 132.237309 194.793765 
L 132.365201 193.938683 
L 132.493093 193.967724 
L 132.620985 193.838655 
L 132.748877 193.353033 
L 132.876769 193.343352 
L 133.132552 193.515982 
L 133.260444 194.045165 
L 133.516228 194.222635 
L 133.64412 194.726004 
L 133.772012 194.295236 
L 133.899904 194.811512 
L 134.027796 196.294192 
L 134.155688 196.189324 
L 134.28358 195.915052 
L 134.411472 196.208684 
L 134.539364 196.060255 
L 134.92304 194.898634 
L 135.178824 193.867695 
L 135.306716 193.924163 
L 135.434608 194.12422 
L 135.5625 194.70019 
L 135.818284 194.440439 
L 135.946176 194.871207 
L 136.074068 194.445279 
L 136.457744 194.919607 
L 136.713528 194.963168 
L 136.841419 194.796992 
L 137.097203 194.066139 
L 137.225095 193.233644 
L 137.608771 193.031974 
L 137.736663 192.84321 
L 137.864555 193.506302 
L 137.992447 193.398207 
L 138.120339 193.699906 
L 138.248231 193.477262 
L 138.504015 192.899678 
L 138.631907 193.235257 
L 138.759799 193.204603 
L 139.015583 193.725719 
L 139.143475 193.351419 
L 139.271367 193.672478 
L 139.399259 193.3853 
L 139.527151 193.845108 
L 139.655043 193.677318 
L 139.910827 192.002648 
L 140.038719 191.425065 
L 140.166611 191.678362 
L 140.80607 190.302164 
L 140.933962 190.350565 
L 141.061854 189.918184 
L 141.189746 189.886724 
L 141.317638 189.405974 
L 141.44553 189.49871 
L 141.701314 189.156677 
L 141.829206 187.885348 
L 141.957098 188.104765 
L 142.08499 188.051524 
L 142.212882 188.166073 
L 142.468666 189.017928 
L 142.596558 188.746883 
L 142.72445 187.86276 
L 142.852342 188.74527 
L 142.980234 188.604907 
L 143.108126 188.721069 
L 143.236018 189.127637 
L 143.36391 188.571027 
L 143.491802 188.782377 
L 143.619694 188.724296 
L 143.747586 187.254523 
L 143.875478 187.428766 
L 144.00337 188.2177 
L 144.131261 188.2177 
L 144.387045 186.530123 
L 144.514937 186.551097 
L 144.642829 186.397827 
L 144.898613 186.899583 
L 145.154397 187.586876 
L 145.793857 186.068702 
L 145.921749 186.3462 
L 146.049641 185.852511 
L 146.305425 187.086733 
L 146.561209 188.361289 
L 146.689101 188.269328 
L 146.816993 187.330351 
L 146.944885 187.225482 
L 147.072777 186.32684 
L 147.200669 186.680166 
L 147.328561 185.220073 
L 147.456453 185.22814 
L 147.584345 184.85868 
L 147.712237 185.518545 
L 147.96802 185.336235 
L 148.095912 185.473371 
L 148.223804 185.091004 
L 148.60748 185.60728 
L 148.735372 185.483051 
L 148.991156 185.754096 
L 149.24694 185.092617 
L 149.374832 185.166832 
L 149.630616 184.010051 
L 149.758508 184.008438 
L 150.014292 184.431139 
L 150.142184 184.600542 
L 150.270076 184.232695 
L 150.397968 184.332724 
L 150.52586 184.776398 
L 150.781644 183.968104 
L 150.909536 183.579283 
L 151.16532 183.890662 
L 151.421104 184.076199 
L 151.548995 184.118146 
L 151.676887 183.884209 
L 151.932671 182.961366 
L 152.444239 185.284607 
L 152.572131 185.308808 
L 152.700023 185.520158 
L 152.827915 184.058452 
L 152.955807 186.205837 
L 153.083699 186.447842 
L 153.339483 185.820244 
L 153.467375 185.791203 
L 153.723159 185.352369 
L 153.978943 183.921316 
L 154.106835 183.7745 
L 154.362619 183.095275 
L 154.618403 183.708352 
L 154.746295 183.524429 
L 154.874187 183.727713 
L 155.12997 185.312035 
L 155.257862 185.139405 
L 155.385754 185.221686 
L 155.641538 186.480109 
L 155.897322 185.939633 
L 156.025214 186.120329 
L 156.280998 186.891516 
L 156.40889 186.54303 
L 156.536782 187.012519 
L 156.664674 186.70114 
L 157.04835 187.244843 
L 157.176242 187.846627 
L 157.304134 187.709491 
L 157.432026 187.273077 
L 157.559918 187.583649 
L 157.68781 187.144814 
L 157.815702 186.212291 
L 157.943594 186.231651 
L 158.071486 186.494629 
L 158.32727 184.869973 
L 158.583054 184.755425 
L 158.838837 183.92293 
L 158.966729 184.33111 
L 159.094621 183.984237 
L 159.350405 184.1246 
L 159.478297 184.698957 
L 159.606189 184.406938 
L 159.734081 184.482766 
L 159.989865 185.044216 
L 160.117757 184.966775 
L 160.373541 183.826128 
L 160.501433 183.901956 
L 160.629325 184.405325 
L 160.757217 182.093377 
L 160.885109 182.345061 
L 161.013001 182.225672 
L 161.140893 181.357683 
L 161.268785 181.799745 
L 161.396677 181.554514 
L 161.524569 182.015935 
L 161.652461 181.936881 
L 162.036137 180.843021 
L 162.164029 180.570363 
L 162.291921 181.136653 
L 162.419813 182.758082 
L 162.803488 181.74247 
L 162.93138 181.767477 
L 163.315056 182.798416 
L 163.442948 182.356355 
L 163.57084 182.496717 
L 163.698732 182.083697 
L 163.826624 182.776636 
L 163.954516 182.574159 
L 164.2103 183.858395 
L 164.593976 183.214664 
L 164.721868 183.722873 
L 164.84976 183.761593 
L 164.977652 183.169489 
L 165.233436 184.187521 
L 165.617112 182.480584 
L 165.745004 182.900058 
L 165.872896 182.491877 
L 166.000788 182.751629 
L 166.12868 181.348003 
L 166.512355 180.825274 
L 166.768139 179.421649 
L 166.896031 179.260312 
L 167.151815 178.600447 
L 167.407599 179.737868 
L 167.535491 179.371634 
L 167.663383 179.875003 
L 167.791275 179.473276 
L 167.919167 179.689467 
L 168.047059 178.635941 
L 168.302843 179.418422 
L 168.430735 178.884399 
L 168.558627 179.373248 
L 168.686519 179.261926 
L 168.942303 177.693738 
L 169.198087 178.109985 
L 169.453871 179.942765 
L 169.581763 181.310896 
L 169.709655 181.114066 
L 169.837546 182.566092 
L 169.965438 180.728472 
L 170.09333 182.496717 
L 170.349114 181.1786 
L 170.477006 181.073732 
L 171.116466 185.173285 
L 171.244358 182.590292 
L 171.37225 182.561252 
L 171.500142 182.835523 
L 172.01171 179.092523 
L 172.267494 179.936311 
L 172.523278 178.339082 
L 172.65117 178.76501 
L 172.779062 179.712054 
L 173.162738 177.908315 
L 173.29063 177.229089 
L 173.546413 174.823566 
L 173.930089 177.801833 
L 174.057981 177.740525 
L 174.185873 176.733787 
L 174.313765 177.643723 
L 174.441657 176.756374 
L 174.825333 179.616865 
L 174.953225 179.532971 
L 175.209009 178.079331 
L 175.336901 177.558215 
L 175.592685 175.825464 
L 175.720577 175.610887 
L 175.848469 175.717369 
L 175.976361 174.013658 
L 176.104253 174.720311 
L 176.232145 174.470239 
L 176.360037 176.462742 
L 176.743713 175.481818 
L 176.871605 177.169395 
L 176.999497 181.807812 
L 177.25528 178.75533 
L 177.511064 179.596698 
L 177.766848 178.598834 
L 177.89474 178.890852 
L 178.150524 178.647235 
L 178.278416 179.739481 
L 178.406308 179.808856 
L 178.662092 178.495579 
L 178.789984 178.673048 
L 179.17366 182.011095 
L 179.301552 183.284038 
L 179.429444 182.785509 
L 179.557336 183.325986 
L 179.685228 184.389353 
L 179.81312 182.493491 
L 179.941012 183.422787 
L 180.196796 182.012709 
L 180.324688 182.190178 
L 180.45258 182.156298 
L 180.580472 182.841977 
L 180.708364 182.304727 
L 180.836256 183.085595 
L 180.964147 182.674187 
L 181.092039 183.240477 
L 181.219931 184.694117 
L 181.347823 184.742518 
L 181.603607 184.573115 
L 181.731499 184.884494 
L 181.859391 184.369831 
L 181.987283 185.687948 
L 182.115175 184.932894 
L 182.498851 185.762163 
L 182.626743 185.767003 
L 182.754635 185.889618 
L 182.882527 184.932894 
L 183.010419 185.178126 
L 183.138311 185.161992 
L 183.266203 184.355311 
L 183.394095 185.008722 
L 183.521987 184.88288 
L 183.649879 184.953868 
L 183.777771 185.433037 
L 184.033555 184.50858 
L 184.289339 182.44509 
L 184.545122 183.793861 
L 184.673014 183.647045 
L 184.800906 183.517976 
L 185.05669 182.29666 
L 185.184582 182.816163 
L 185.312474 182.446703 
L 185.440366 184.86352 
L 185.568258 184.4989 
L 185.69615 183.537336 
L 185.824042 184.269803 
L 186.079826 183.892276 
L 186.207718 183.972944 
L 186.33561 183.882596 
L 186.463502 182.906511 
L 186.591394 182.953299 
L 186.847178 184.787692 
L 186.97507 184.373058 
L 187.102962 184.411778 
L 187.358746 184.955482 
L 187.486638 184.916761 
L 187.61453 185.013563 
L 187.742422 184.163321 
L 187.870314 184.826413 
L 187.998206 184.769945 
L 188.126098 184.889334 
L 188.381881 184.600542 
L 188.637665 183.543789 
L 188.893449 184.229468 
L 189.021341 184.035865 
L 189.149233 184.411778 
L 189.405017 183.96165 
L 189.532909 183.885822 
L 189.660801 182.787122 
L 189.788693 182.883924 
L 189.916585 182.775829 
L 190.044477 182.349901 
L 190.300261 180.672004 
L 190.428153 181.362524 
L 190.556045 180.805914 
L 190.683937 181.14472 
L 190.811829 181.864279 
L 190.939721 181.604528 
L 191.067613 182.519304 
L 191.195505 182.45477 
L 191.323397 182.861337 
L 191.451289 183.650271 
L 191.579181 183.490548 
L 191.707073 183.051714 
L 191.962856 183.889049 
L 192.21864 182.990406 
L 192.346532 182.985566 
L 192.602316 183.446988 
L 192.730208 183.109795 
L 192.985992 182.196632 
L 193.241776 176.403048 
L 193.369668 176.703133 
L 193.49756 176.669252 
L 193.625452 176.798321 
L 193.753344 177.679217 
L 193.881236 177.490454 
L 194.13702 177.842167 
L 194.392804 177.083887 
L 194.520696 177.850234 
L 194.648588 177.614683 
L 194.77648 177.667924 
L 195.032264 179.315167 
L 195.160156 178.627874 
L 195.288048 179.076389 
L 195.41594 178.761783 
L 195.671723 179.470049 
L 195.799615 179.169964 
L 195.927507 180.06054 
L 196.055399 179.466823 
L 196.183291 180.22349 
L 196.311183 179.199005 
L 196.439075 179.418422 
L 196.694859 178.516552 
L 196.822751 178.56818 
L 196.950643 178.887626 
L 197.078535 178.900533 
L 197.334319 179.218365 
L 197.717995 177.672764 
L 197.845887 177.835713 
L 197.973779 178.23018 
L 198.101671 177.974463 
L 198.229563 178.311655 
L 198.357455 177.417853 
L 198.485347 177.416239 
L 198.613239 178.111598 
L 198.869023 176.819295 
L 198.996915 176.785414 
L 199.252698 177.508201 
L 199.38059 177.508201 
L 199.636374 178.585927 
L 199.764266 179.071549 
L 199.892158 178.5827 
L 200.02005 178.96668 
L 200.275834 178.73113 
L 200.531618 176.985471 
L 200.787402 177.832487 
L 200.915294 178.798891 
L 201.043186 178.321335 
L 201.171078 175.528605 
L 201.29897 175.727049 
L 201.554754 176.372394 
L 201.682646 176.578904 
L 201.810538 175.907745 
L 201.93843 176.065855 
L 202.066322 175.651221 
L 202.322106 176.054561 
L 202.57789 176.315926 
L 202.705782 176.194924 
L 202.961565 174.846153 
L 203.217349 175.039756 
L 203.345241 175.184959 
L 203.473133 174.596082 
L 203.601025 174.902943 
L 203.728917 174.170154 
L 203.856809 174.463786 
L 204.112593 173.94751 
L 204.240485 174.092713 
L 204.368377 173.761973 
L 204.496269 173.824895 
L 204.624161 174.092713 
L 204.879945 172.008249 
L 205.135729 172.568085 
L 205.263621 172.574539 
L 205.519405 171.664602 
L 205.647297 172.192172 
L 205.775189 172.07117 
L 205.903081 171.598454 
L 206.030973 171.738817 
L 206.542541 173.536103 
L 206.670432 172.419656 
L 207.054108 173.38606 
L 207.309892 171.793671 
L 207.437784 172.10989 
L 207.565676 172.021155 
L 207.82146 174.291156 
L 207.949352 174.415385 
L 208.077244 174.715471 
L 208.205136 174.421839 
L 208.333028 174.460559 
L 208.46092 173.887816 
L 208.716704 175.096224 
L 208.844596 176.099735 
L 208.972488 176.014227 
L 209.228272 177.851847 
L 209.356164 175.380176 
L 209.611948 176.364327 
L 209.73984 176.318766 
L 209.995624 175.489885 
L 210.251408 177.137127 
L 210.379299 177.304917 
L 210.635083 177.25813 
L 210.890867 178.226308 
L 211.530327 175.115584 
L 211.658219 174.512187 
L 211.786111 174.547407 
L 212.169787 173.152122 
L 212.297679 173.429766 
L 212.553463 172.84397 
L 212.809247 172.955599 
L 212.937139 173.842642 
L 213.192923 173.19891 
L 213.320815 173.281191 
L 213.448707 173.613544 
L 213.704491 171.804965 
L 213.832383 172.193785 
L 213.960274 171.627495 
L 214.088166 172.366415 
L 214.216058 172.092143 
L 214.34395 173.703667 
L 214.471842 173.75552 
L 214.599734 174.260502 
L 214.98341 172.11473 
L 215.111302 172.006635 
L 215.239194 170.504724 
L 215.367086 170.840174 
L 215.494978 170.845014 
L 215.62287 171.007964 
L 215.878654 169.815689 
L 216.006546 169.949598 
L 216.134438 170.428767 
L 216.390222 169.914104 
L 216.646006 170.561062 
L 216.773898 169.6721 
L 216.90179 167.999043 
L 217.029682 169.281666 
L 217.157574 171.813032 
L 217.285466 169.810204 
L 217.413358 170.98215 
L 217.54125 171.062818 
L 217.669141 171.872726 
L 217.797033 170.757893 
L 218.052817 171.832392 
L 218.180709 171.554894 
L 218.308601 172.319627 
L 218.436493 172.079236 
L 218.564385 170.341645 
L 218.692277 170.378753 
L 218.820169 171.048298 
L 218.948061 170.296471 
L 219.203845 170.911162 
L 219.331737 170.995057 
L 219.459629 171.890473 
L 219.587521 171.972755 
L 219.843305 171.180594 
L 219.971197 170.943429 
L 220.226981 169.354267 
L 220.354873 169.644673 
L 220.610657 169.580138 
L 220.738549 170.05608 
L 220.994333 169.433322 
L 221.250117 171.575867 
L 221.5059 172.448696 
L 221.633792 172.308657 
L 221.761684 172.935932 
L 221.889576 172.232506 
L 222.017468 172.511618 
L 222.401144 170.822427 
L 222.529036 171.609748 
L 222.656928 171.33354 
L 222.78482 172.025996 
L 222.912712 172.017929 
L 223.040604 172.598739 
L 223.680064 169.793102 
L 223.807956 170.623984 
L 223.935848 169.87861 
L 224.191632 171.963074 
L 224.319524 171.817872 
L 224.831092 169.497857 
L 225.086875 173.524809 
L 225.214767 172.868171 
L 225.342659 173.768427 
L 225.598443 172.184105 
L 225.726335 172.560018 
L 226.493687 170.525569 
L 226.749471 171.204794 
L 226.877363 170.272271 
L 227.005255 170.638504 
L 227.133147 170.44006 
L 227.388931 171.579094 
L 227.516823 171.588774 
L 227.644715 170.693358 
L 227.772607 170.97731 
L 228.028391 170.385206 
L 228.284175 170.949883 
L 228.539959 170.606237 
L 228.795742 168.470145 
L 229.051526 169.986705 
L 229.179418 169.322 
L 229.30731 169.612405 
L 229.563094 168.358823 
L 229.94677 169.714047 
L 230.074662 170.157722 
L 230.202554 169.919267 
L 230.330446 169.034822 
L 230.58623 169.015461 
L 230.842014 168.04099 
L 230.969906 167.99259 
L 231.097798 167.694118 
L 231.353582 166.782568 
L 231.481474 166.653499 
L 231.737258 164.197961 
L 231.86515 164.356071 
L 231.993042 164.30767 
L 232.120934 164.014038 
L 232.248826 164.752958 
L 232.376717 164.572261 
L 232.760393 165.587066 
L 232.888285 164.867507 
L 233.016177 163.478402 
L 233.271961 165.02723 
L 233.399853 165.21922 
L 233.527745 164.517407 
L 233.655637 164.736824 
L 233.783529 165.256327 
L 233.911421 165.295048 
L 234.167205 166.103342 
L 234.295097 165.858111 
L 234.422989 165.950073 
L 234.934557 167.865134 
L 235.190341 167.498901 
L 235.318233 167.905468 
L 235.446125 167.072973 
L 235.574017 167.027799 
L 235.829801 168.492732 
L 235.957693 168.387863 
L 236.085584 168.000656 
L 236.213476 168.484665 
L 236.46926 166.442148 
L 236.597152 166.367934 
L 236.725044 166.083982 
L 236.980828 165.357969 
L 237.364504 165.751629 
L 237.492396 166.051715 
L 237.74818 163.47453 
L 237.876072 163.470335 
L 238.003964 162.779816 
L 238.131856 163.562297 
L 238.259748 163.136369 
L 238.38764 163.375147 
L 238.515532 162.492637 
L 238.771316 163.37676 
L 238.899208 162.036056 
L 239.0271 162.107044 
L 239.154992 163.034727 
L 239.282884 162.344208 
L 239.66656 165.701615 
L 239.922343 163.65926 
L 240.050235 163.689752 
L 240.178127 164.383498 
L 240.306019 163.723633 
L 240.433911 163.678459 
L 240.561803 160.748431 
L 240.689695 161.15032 
L 240.817587 160.166169 
L 240.945479 161.099338 
L 241.073371 160.21941 
L 241.201263 155.188946 
L 241.329155 156.032734 
L 241.457047 155.300268 
L 241.584939 155.561633 
L 241.712831 155.085691 
L 241.840723 155.896889 
L 242.096507 155.914636 
L 242.224399 156.35218 
L 242.352291 158.388243 
L 242.608075 156.642908 
L 242.735967 157.425066 
L 243.119643 154.256422 
L 243.503318 155.321242 
L 243.886994 153.051241 
L 244.27067 150.311751 
L 244.398562 150.524715 
L 244.526454 151.757324 
L 244.654346 151.547587 
L 244.782238 151.784751 
L 244.91013 151.387864 
L 245.038022 151.720217 
L 245.165914 151.253955 
L 245.421698 152.307481 
L 245.677482 151.061965 
L 245.805374 151.274929 
L 245.933266 149.934225 
L 246.061158 150.058454 
L 246.18905 148.927487 
L 246.316942 148.811324 
L 246.444834 149.411495 
L 246.572726 148.57416 
L 246.82851 150.352085 
L 246.956402 149.477643 
L 247.212185 149.856783 
L 247.340077 150.310138 
L 247.595861 148.972661 
L 247.723753 149.119477 
L 247.851645 149.659953 
L 247.979537 150.737679 
L 248.107429 149.679313 
L 248.363213 149.960038 
L 248.491105 149.345347 
L 248.618997 148.145006 
L 248.874781 149.3034 
L 249.002673 151.282996 
L 249.130565 151.495959 
L 249.258457 150.181069 
L 249.386349 151.831539 
L 249.514241 148.796804 
L 249.770025 157.970383 
L 249.897917 157.679977 
L 250.025809 157.921982 
L 250.281593 155.561633 
L 250.409485 155.595513 
L 250.537377 155.447084 
L 250.665269 157.47024 
L 250.79316 156.187617 
L 250.921052 156.163417 
L 251.176836 157.771939 
L 251.304728 157.381505 
L 251.43262 157.871967 
L 251.816296 155.768143 
L 251.944188 155.714902 
L 252.07208 155.39707 
L 252.199972 155.77137 
L 252.327864 155.106664 
L 252.455756 153.740146 
L 252.71154 153.790161 
L 252.967324 154.31289 
L 253.606784 152.707595 
L 254.629919 159.238485 
L 254.757811 159.549058 
L 254.885703 158.480205 
L 255.013595 158.646381 
L 255.397271 162.550718 
L 255.653055 160.284751 
L 255.908839 163.523576 
L 256.036731 162.84919 
L 256.164623 162.821763 
L 256.420407 161.397164 
L 256.548299 160.4356 
L 256.676191 160.685671 
L 256.804083 161.450405 
L 256.931975 159.422409 
L 257.187759 165.96782 
L 257.571435 164.143107 
L 257.699327 164.123747 
L 257.827219 163.794621 
L 258.083003 166.592191 
L 258.210894 167.300457 
L 258.338786 166.668019 
L 258.59457 164.66745 
L 258.850354 166.192077 
L 258.978246 165.787123 
L 259.106138 165.939586 
L 259.361922 164.607755 
L 259.489814 164.623889 
L 259.617706 163.441294 
L 259.87349 163.776874 
L 260.001382 163.192837 
L 260.129274 163.39128 
L 260.385058 164.256042 
L 260.51295 164.32219 
L 260.768734 160.629204 
L 260.896626 160.979303 
L 261.15241 159.737014 
L 261.280302 161.235828 
L 261.408194 161.177747 
L 261.536086 160.959943 
L 261.663978 161.282616 
L 261.791869 159.86931 
L 262.047653 161.511713 
L 262.175545 161.021251 
L 262.303437 161.518166 
L 262.431329 160.988984 
L 262.687113 161.452019 
L 262.815005 161.418138 
L 262.942897 160.190369 
L 263.070789 160.116155 
L 263.198681 159.367232 
L 263.326573 160.003219 
L 263.454465 161.574634 
L 263.582357 160.580803 
L 263.710249 160.911542 
L 263.966033 156.490929 
L 264.093925 156.632905 
L 264.221817 156.397354 
L 264.349709 156.953319 
L 264.605493 155.774596 
L 264.733385 155.600353 
L 264.861277 156.035961 
L 264.989169 155.960133 
L 265.117061 161.542367 
L 265.372845 162.189325 
L 265.500736 161.784371 
L 265.75652 164.277016 
L 265.884412 163.21381 
L 266.012304 163.428387 
L 266.140196 163.17509 
L 266.268088 163.56875 
L 266.523872 162.458757 
L 266.651764 162.299034 
L 266.907548 160.058073 
L 267.291224 159.748308 
L 267.419116 159.643439 
L 267.6749 160.319438 
L 267.802792 159.927391 
L 268.058576 158.449551 
L 268.31436 159.117483 
L 268.442252 158.57862 
L 268.570144 159.123937 
L 268.698036 158.00265 
L 268.825928 157.933275 
L 268.95382 158.585074 
L 269.081712 160.616297 
L 269.209603 160.361386 
L 269.337495 160.492068 
L 269.465387 160.383973 
L 269.593279 161.561727 
L 269.721171 160.937356 
L 269.849063 161.54398 
L 269.976955 161.382644 
L 270.104847 160.362999 
L 270.360631 161.603675 
L 270.488523 160.864755 
L 270.616415 161.877946 
L 270.744307 161.671436 
L 270.872199 161.895693 
L 271.000091 161.795665 
L 271.127983 162.599119 
L 271.255875 162.44585 
L 271.383767 161.747264 
L 271.511659 161.834385 
L 271.639551 162.676561 
L 271.767443 161.753717 
L 272.151119 164.375431 
L 272.279011 164.075346 
L 272.534795 164.954628 
L 272.662687 164.828786 
L 272.790579 164.414152 
L 272.91847 162.942765 
L 273.046362 163.323519 
L 273.174254 163.289638 
L 273.302146 167.503741 
L 273.430038 167.034252 
L 273.55793 166.127543 
L 273.685822 166.364707 
L 274.069498 164.493207 
L 274.19739 164.962695 
L 274.325282 165.9775 
L 274.453174 165.95814 
L 274.708958 164.591622 
L 274.83685 163.478402 
L 274.964742 163.55907 
L 275.092634 162.757229 
L 275.220526 160.927676 
L 275.348418 161.69725 
L 275.604202 161.134186 
L 275.987878 159.666026 
L 276.11577 159.762828 
L 276.243662 159.999992 
L 276.371554 159.182018 
L 276.499445 161.221308 
L 276.627337 161.171294 
L 276.755229 162.754002 
L 276.883121 162.684627 
L 277.138905 164.344777 
L 277.266797 163.399347 
L 277.394689 164.473846 
L 277.522581 164.228615 
L 277.650473 164.235069 
L 277.778365 164.436739 
L 277.906257 166.213051 
L 278.034149 165.596746 
L 278.162041 165.782283 
L 278.289933 165.432184 
L 278.417825 164.360911 
L 278.545717 164.402052 
L 278.673609 164.927201 
L 278.929393 163.473562 
L 279.057285 163.754287 
L 279.185177 163.74622 
L 279.313069 164.041465 
L 279.568853 166.175944 
L 279.824637 165.341835 
L 280.080421 166.801928 
L 280.208312 166.264679 
L 280.336204 166.501843 
L 280.464096 167.521488 
L 280.591988 166.910023 
L 280.71988 167.119761 
L 281.103556 163.417094 
L 281.487232 164.785225 
L 281.615124 163.515509 
L 281.870908 155.014703 
L 281.9988 155.163132 
L 282.126692 154.969529 
L 282.254584 153.494915 
L 282.382476 153.431994 
L 282.510368 154.032165 
L 283.021936 152.213906 
L 283.27772 153.57881 
L 283.533504 151.91866 
L 283.789288 152.736635 
L 283.917179 151.642775 
L 284.045071 151.734737 
L 284.172963 152.483337 
L 284.300855 151.596795 
L 284.556639 152.070316 
L 284.684531 151.245888 
L 285.068207 154.201568 
L 285.196099 154.708164 
L 285.323991 153.438448 
L 285.451883 154.028938 
L 285.579775 153.582037 
L 285.707667 153.812748 
L 285.835559 153.294052 
L 285.963451 153.599784 
L 286.091343 152.752769 
L 286.602911 154.550054 
L 286.858695 153.38198 
L 287.114479 154.081373 
L 287.242371 153.759507 
L 287.370263 152.986706 
L 287.498155 153.411021 
L 287.753938 151.938021 
L 288.009722 152.128397 
L 288.137614 151.684723 
L 288.265506 151.952541 
L 288.393398 151.53468 
L 288.52129 153.225484 
L 288.649182 150.974843 
L 288.777074 150.705412 
L 288.904966 150.928056 
L 289.032858 150.897402 
L 289.16075 142.006162 
L 289.672318 145.768523 
L 289.928102 145.565239 
L 290.183886 146.200904 
L 290.43967 143.847008 
L 290.695454 144.277776 
L 290.823346 144.947322 
L 290.951238 144.074493 
L 291.07913 145.087684 
L 291.207021 145.2103 
L 291.334913 145.779817 
L 291.462805 145.432944 
L 291.590697 144.179361 
L 291.846481 145.173192 
L 291.974373 144.213242 
L 292.102265 144.995722 
L 292.358049 144.29391 
L 292.485941 144.282616 
L 292.613833 143.379133 
L 292.997509 145.491025 
L 293.125401 145.171579 
L 293.381185 143.963171 
L 293.509077 144.455246 
L 293.636969 145.463598 
L 293.892753 144.795666 
L 294.020645 142.927392 
L 294.148537 143.648565 
L 294.276429 143.427534 
L 294.404321 141.862573 
L 294.660105 142.812843 
L 294.787997 143.135516 
L 294.915888 144.464926 
L 295.171672 143.250064 
L 295.299564 143.198437 
L 295.427456 143.467868 
L 295.555348 143.35816 
L 295.68324 144.49074 
L 295.811132 143.734073 
L 296.194808 138.703609 
L 296.3227 139.410262 
L 296.578484 135.889905 
L 296.706376 135.068704 
L 296.96216 135.041277 
L 297.090052 136.023814 
L 297.217944 128.402291 
L 297.345836 128.081231 
L 297.473728 128.94922 
L 297.60162 128.470052 
L 297.729512 127.218083 
L 297.985296 127.497194 
L 298.113188 128.002177 
L 298.24108 127.177748 
L 298.496864 129.499377 
L 298.624755 129.276733 
L 298.752647 128.71851 
L 298.880539 128.968581 
L 299.264215 127.46654 
L 299.392107 127.498808 
L 299.519999 127.837614 
L 299.775783 134.040992 
L 299.903675 139.058549 
L 300.031567 138.57454 
L 300.287351 130.185056 
L 300.415243 130.243137 
L 300.543135 131.069179 
L 300.671027 133.707026 
L 300.798919 131.446705 
L 301.054703 133.310139 
L 301.182595 130.318965 
L 301.310487 130.423834 
L 301.566271 128.399064 
L 301.694163 129.699434 
L 301.822055 129.539711 
L 301.949947 128.729803 
L 302.077839 126.877663 
L 302.205731 126.653406 
L 302.333622 125.341742 
L 302.589406 127.329405 
L 302.717298 127.703705 
L 302.84519 129.236399 
L 303.100974 133.782854 
L 303.48465 127.898921 
L 303.612542 126.101636 
L 303.740434 127.10192 
L 303.868326 126.382361 
L 303.996218 127.798893 
L 304.252002 125.051337 
L 304.379894 125.259461 
L 304.507786 125.916099 
L 304.76357 121.73265 
L 304.891462 121.347057 
L 305.147246 124.151081 
L 305.275138 122.837804 
L 305.530922 115.626074 
L 305.658814 115.238867 
L 305.914597 112.731702 
L 306.042489 112.83657 
L 306.170381 112.441297 
L 306.298273 112.931759 
L 306.681949 107.436647 
L 306.809841 108.062631 
L 306.937733 107.386632 
L 307.065625 105.1973 
L 307.193517 106.431522 
L 307.321409 110.182589 
L 307.449301 109.301693 
L 307.577193 110.02932 
L 307.705085 106.763874 
L 307.832977 107.130108 
L 308.088761 104.27123 
L 308.216653 105.536106 
L 308.344545 104.860107 
L 308.472437 105.195686 
L 308.600329 106.560591 
L 308.728221 104.259936 
L 308.856113 104.752012 
L 308.984005 106.326653 
L 309.111897 105.295715 
L 309.239789 105.74907 
L 309.367681 104.539048 
L 309.751356 110.537529 
L 309.879248 107.672197 
L 310.00714 107.554422 
L 310.135032 104.790732 
L 310.390816 106.667073 
L 310.518708 106.607378 
L 310.6466 106.826796 
L 310.774492 106.738061 
L 310.902384 106.884877 
L 311.158168 101.854413 
L 311.28606 102.64496 
L 311.413952 104.771372 
L 311.541844 111.047352 
L 311.797628 111.747551 
L 311.92552 115.734169 
L 312.053412 115.877758 
L 312.181304 114.153074 
L 312.309196 114.128874 
L 312.437088 119.949885 
L 312.56498 118.144533 
L 312.692872 121.826226 
L 312.820764 121.13248 
L 312.948656 121.569701 
L 313.076548 121.045358 
L 313.20444 117.599216 
L 313.332331 117.575016 
L 313.460223 116.813509 
L 313.588115 119.701427 
L 313.716007 111.311943 
L 313.971791 121.079239 
L 314.227575 128.136086 
L 314.355467 127.298751 
L 314.611251 135.068704 
L 314.739143 136.041561 
L 315.250711 129.744608 
L 315.378603 127.647237 
L 315.506495 129.115397 
L 315.634387 127.518168 
L 315.762279 123.549297 
L 315.890171 124.607662 
L 316.273847 124.238202 
L 316.401739 124.675423 
L 316.529631 120.396786 
L 316.657523 120.208023 
L 316.913307 121.025998 
L 317.16909 123.426681 
L 317.424874 123.641258 
L 317.680658 121.311563 
L 317.80855 120.722686 
L 317.936442 121.16636 
L 318.192226 124.746411 
L 318.320118 124.439873 
L 318.575902 121.91496 
L 318.703794 119.765962 
L 318.831686 120.262877 
L 319.08747 117.226529 
L 319.215362 118.041277 
L 319.343254 117.257183 
L 319.599038 119.251299 
L 319.72693 116.6796 
L 319.854822 118.39783 
L 320.238498 116.503743 
L 320.494282 113.667452 
L 320.750065 111.311943 
L 320.877957 112.513898 
L 321.005849 111.692696 
L 321.133741 112.013756 
L 321.261633 113.707786 
L 321.389525 112.78817 
L 321.773201 116.692506 
L 322.028985 103.487136 
L 322.156877 105.508679 
L 322.284769 105.57644 
L 322.412661 107.481821 
L 322.924229 98.747077 
L 323.052121 97.988797 
L 323.180013 99.2811 
L 323.307905 99.161711 
L 323.435797 101.644676 
L 323.819473 100.429814 
L 323.947365 101.405898 
L 324.33104 98.476032 
L 324.458932 98.9068 
L 324.586824 97.204702 
L 324.714716 97.745179 
L 324.842608 96.32542 
L 324.9705 96.761028 
L 325.098392 96.569038 
L 325.226284 97.051433 
L 325.482068 96.420608 
L 325.737852 98.422791 
L 325.865744 97.767766 
L 325.993636 98.580901 
L 326.121528 98.056558 
L 326.24942 99.850617 
L 326.505204 98.329216 
L 326.633096 99.171391 
L 326.760988 97.319251 
L 327.016772 102.2755 
L 327.272556 98.36471 
L 327.400448 98.361483 
L 327.784124 94.813699 
L 327.912016 94.981489 
L 328.167799 92.204892 
L 328.679367 95.163799 
L 328.807259 95.062157 
L 329.063043 93.505263 
L 329.190935 93.713386 
L 329.318827 93.644012 
L 329.574611 95.139599 
L 329.702503 94.965355 
L 329.958287 91.393371 
L 330.086179 89.952639 
L 330.341963 92.066143 
L 330.597747 90.23659 
L 330.725639 90.143015 
L 331.237207 89.174998 
L 331.492991 90.549583 
L 331.748774 90.481821 
L 331.876666 91.635376 
L 332.13245 90.806107 
L 332.260342 91.645056 
L 332.388234 91.327223 
L 332.644018 89.379895 
L 332.77191 89.978452 
L 333.155586 89.194358 
L 333.283478 86.543604 
L 333.41137 87.25187 
L 333.539262 87.319631 
L 333.667154 91.178794 
L 333.795046 89.347628 
L 333.922938 91.038431 
L 334.05083 91.025525 
L 334.306614 88.213434 
L 334.434506 88.765204 
L 334.69029 86.403241 
L 334.818182 83.989651 
L 334.946074 83.820248 
L 335.073966 84.883454 
L 335.329749 80.114355 
L 335.457641 80.061114 
L 335.585533 78.728477 
L 335.713425 78.820438 
L 335.841317 79.25766 
L 335.969209 77.591056 
L 336.224993 78.386444 
L 336.352885 78.018597 
L 336.480777 79.746508 
L 336.608669 79.247979 
L 336.864453 81.043652 
L 336.992345 82.658627 
L 337.120237 81.900347 
L 337.248129 81.893894 
L 337.376021 83.082942 
L 337.503913 81.684156 
L 337.631805 78.602634 
L 337.759697 79.072123 
L 338.015481 81.785798 
L 338.143373 88.568374 
L 338.271265 86.390335 
L 338.399157 87.101827 
L 338.527049 90.304352 
L 338.654941 90.067187 
L 338.782833 91.999995 
L 338.910725 87.179269 
L 339.038616 86.724301 
L 339.550184 97.804873 
L 339.805968 93.381034 
L 340.317536 87.114734 
L 340.445428 87.955296 
L 340.57332 87.914962 
L 340.956996 92.722782 
L 341.21278 94.373252 
L 341.468564 90.439874 
L 341.596456 89.520258 
L 341.724348 90.018786 
L 341.85224 89.804209 
L 341.980132 91.182021 
L 342.108024 88.887819 
L 342.4917 91.561161 
L 342.747483 89.391189 
L 342.875375 89.491217 
L 343.131159 91.106193 
L 343.259051 89.362148 
L 343.386943 89.244373 
L 343.514835 90.370499 
L 343.642727 92.835717 
L 343.898511 91.656349 
L 344.154295 85.39489 
L 344.282187 85.244847 
L 344.410079 85.40941 
L 344.537971 84.906041 
L 344.793755 81.982629 
L 345.049539 83.541137 
L 345.177431 83.289452 
L 345.305323 83.404001 
L 345.816891 78.431618 
L 346.072675 79.846537 
L 346.200567 80.959757 
L 346.45635 78.302549 
L 346.584242 83.102302 
L 346.712134 83.515323 
L 347.223702 80.317639 
L 347.351594 78.854319 
L 347.479486 78.876906 
L 347.73527 77.62655 
L 347.863162 77.476507 
L 347.991054 75.642114 
L 348.118946 75.776024 
L 348.246838 76.327793 
L 348.37473 77.44908 
L 348.502622 76.900537 
L 348.630514 77.481348 
L 348.758406 76.184204 
L 348.886298 76.856976 
L 349.01419 76.70048 
L 349.269974 77.323238 
L 349.525758 76.197111 
L 349.65365 76.284233 
L 349.781542 75.940586 
L 349.909434 76.272939 
L 350.165217 76.12935 
L 350.293109 76.308433 
L 350.421001 75.556606 
L 350.548893 77.778206 
L 350.676785 76.994112 
L 350.804677 77.103821 
L 350.932569 77.389386 
L 351.060461 77.194169 
L 351.188353 75.713102 
L 351.316245 72.757423 
L 351.444137 72.431523 
L 351.955705 67.117108 
L 352.211489 69.44035 
L 352.339381 67.478501 
L 352.595165 69.222546 
L 352.723057 71.087592 
L 352.850949 68.293249 
L 352.978841 68.004457 
L 353.106733 68.743377 
L 353.234625 68.281955 
L 353.362517 68.851472 
L 353.490409 67.418806 
L 353.618301 67.384926 
L 353.746192 67.115494 
L 354.001976 64.582515 
L 354.129868 60.833061 
L 354.25776 61.041185 
L 354.641436 63.104675 
L 354.89722 60.092528 
L 355.153004 60.931476 
L 355.280896 58.71633 
L 355.408788 59.261646 
L 355.53668 57.954823 
L 355.664572 61.392898 
L 355.792464 59.177752 
L 355.920356 58.959948 
L 356.048248 57.212676 
L 356.17614 57.072314 
L 356.559816 53.161523 
L 356.687708 53.013094 
L 356.8156 53.348673 
L 356.943492 53.134096 
L 357.199276 50.651131 
L 357.327168 51.996676 
L 357.455059 50.856028 
L 357.582951 50.823761 
L 357.838735 58.141973 
L 357.966627 55.579953 
L 358.094519 56.276926 
L 358.222411 58.261362 
L 358.478195 53.259938 
L 358.606087 53.676186 
L 358.733979 52.120905 
L 358.861871 52.270947 
L 358.989763 51.877287 
L 359.245547 56.226912 
L 359.373439 54.040806 
L 359.757115 59.957006 
L 359.885007 57.094901 
L 360.012899 58.104866 
L 360.268683 53.050201 
L 360.396575 53.427728 
L 360.524467 51.430385 
L 360.652359 52.379042 
L 360.780251 52.188666 
L 361.291818 47.850334 
L 361.41971 48.339183 
L 361.547602 46.196638 
L 361.675494 46.048209 
L 361.803386 43.962131 
L 361.931278 45.059217 
L 362.187062 54.452213 
L 362.314954 53.095375 
L 362.442846 53.143776 
L 362.570738 54.590962 
L 362.69863 54.48448 
L 362.826522 53.727813 
L 362.954414 54.11986 
L 363.082306 55.383123 
L 363.210198 59.431049 
L 363.465982 55.174999 
L 363.593874 55.265348 
L 363.721766 56.001041 
L 363.849658 58.842172 
L 363.97755 59.180978 
L 364.105442 60.0167 
L 364.233334 57.820914 
L 364.61701 61.31223 
L 364.744901 61.189614 
L 365.000685 57.709592 
L 365.128577 55.610607 
L 365.256469 55.989747 
L 365.384361 58.083892 
L 365.512253 57.675711 
L 365.640145 55.792917 
L 365.768037 57.98225 
L 366.151713 52.545219 
L 366.663281 57.343358 
L 366.791173 56.802882 
L 367.046957 59.724681 
L 367.174849 62.194739 
L 367.302741 62.386729 
L 367.558525 59.514944 
L 367.686417 58.71633 
L 367.942201 59.402009 
L 368.197985 55.570273 
L 368.453768 53.934324 
L 368.58166 54.545788 
L 368.837444 52.330642 
L 369.093228 51.457813 
L 369.22112 51.007684 
L 369.732688 57.917715 
L 369.86058 56.368888 
L 370.116364 56.928724 
L 370.244256 36.193791 
L 370.372148 34.596562 
L 370.755824 37.279584 
L 370.755824 37.279584 
" style="fill:none;stroke:#ff0000;stroke-dasharray:5.55,2.4;stroke-dashoffset:0;stroke-width:1.5;"/>
   </g>
   <g id="patch_3">
    <path d="M 56.928125 216.84375 
L 56.928125 25.918125 
" style="fill:none;stroke:#000000;stroke-linecap:square;stroke-linejoin:miter;stroke-width:0.8;"/>
   </g>
   <g id="patch_4">
    <path d="M 385.7 216.84375 
L 385.7 25.918125 
" style="fill:none;stroke:#000000;stroke-linecap:square;stroke-linejoin:miter;stroke-width:0.8;"/>
   </g>
   <g id="patch_5">
    <path d="M 56.928125 216.84375 
L 385.7 216.84375 
" style="fill:none;stroke:#000000;stroke-linecap:square;stroke-linejoin:miter;stroke-width:0.8;"/>
   </g>
   <g id="patch_6">
    <path d="M 56.928125 25.918125 
L 385.7 25.918125 
" style="fill:none;stroke:#000000;stroke-linecap:square;stroke-linejoin:miter;stroke-width:0.8;"/>
   </g>
   <g id="text_14">
    <!-- Company Stock Prices Over Time -->
    <defs>
     <path d="M 64.40625 67.28125 
L 64.40625 56.890625 
Q 59.421875 61.53125 53.78125 63.8125 
Q 48.140625 66.109375 41.796875 66.109375 
Q 29.296875 66.109375 22.65625 58.46875 
Q 16.015625 50.828125 16.015625 36.375 
Q 16.015625 21.96875 22.65625 14.328125 
Q 29.296875 6.6875 41.796875 6.6875 
Q 48.140625 6.6875 53.78125 8.984375 
Q 59.421875 11.28125 64.40625 15.921875 
L 64.40625 5.609375 
Q 59.234375 2.09375 53.4375 0.328125 
Q 47.65625 -1.421875 41.21875 -1.421875 
Q 24.65625 -1.421875 15.125 8.703125 
Q 5.609375 18.84375 5.609375 36.375 
Q 5.609375 53.953125 15.125 64.078125 
Q 24.65625 74.21875 41.21875 74.21875 
Q 47.75 74.21875 53.53125 72.484375 
Q 59.328125 70.75 64.40625 67.28125 
z
" id="DejaVuSans-43"/>
     <path d="M 30.609375 48.390625 
Q 23.390625 48.390625 19.1875 42.75 
Q 14.984375 37.109375 14.984375 27.296875 
Q 14.984375 17.484375 19.15625 11.84375 
Q 23.34375 6.203125 30.609375 6.203125 
Q 37.796875 6.203125 41.984375 11.859375 
Q 46.1875 17.53125 46.1875 27.296875 
Q 46.1875 37.015625 41.984375 42.703125 
Q 37.796875 48.390625 30.609375 48.390625 
z
M 30.609375 56 
Q 42.328125 56 49.015625 48.375 
Q 55.71875 40.765625 55.71875 27.296875 
Q 55.71875 13.875 49.015625 6.21875 
Q 42.328125 -1.421875 30.609375 -1.421875 
Q 18.84375 -1.421875 12.171875 6.21875 
Q 5.515625 13.875 5.515625 27.296875 
Q 5.515625 40.765625 12.171875 48.375 
Q 18.84375 56 30.609375 56 
z
" id="DejaVuSans-6f"/>
     <path d="M 52 44.1875 
Q 55.375 50.25 60.0625 53.125 
Q 64.75 56 71.09375 56 
Q 79.640625 56 84.28125 50.015625 
Q 88.921875 44.046875 88.921875 33.015625 
L 88.921875 0 
L 79.890625 0 
L 79.890625 32.71875 
Q 79.890625 40.578125 77.09375 44.375 
Q 74.3125 48.1875 68.609375 48.1875 
Q 61.625 48.1875 57.5625 43.546875 
Q 53.515625 38.921875 53.515625 30.90625 
L 53.515625 0 
L 44.484375 0 
L 44.484375 32.71875 
Q 44.484375 40.625 41.703125 44.40625 
Q 38.921875 48.1875 33.109375 48.1875 
Q 26.21875 48.1875 22.15625 43.53125 
Q 18.109375 38.875 18.109375 30.90625 
L 18.109375 0 
L 9.078125 0 
L 9.078125 54.6875 
L 18.109375 54.6875 
L 18.109375 46.1875 
Q 21.1875 51.21875 25.484375 53.609375 
Q 29.78125 56 35.6875 56 
Q 41.65625 56 45.828125 52.96875 
Q 50 49.953125 52 44.1875 
z
" id="DejaVuSans-6d"/>
     <path d="M 18.109375 8.203125 
L 18.109375 -20.796875 
L 9.078125 -20.796875 
L 9.078125 54.6875 
L 18.109375 54.6875 
L 18.109375 46.390625 
Q 20.953125 51.265625 25.265625 53.625 
Q 29.59375 56 35.59375 56 
Q 45.5625 56 51.78125 48.09375 
Q 58.015625 40.1875 58.015625 27.296875 
Q 58.015625 14.40625 51.78125 6.484375 
Q 45.5625 -1.421875 35.59375 -1.421875 
Q 29.59375 -1.421875 25.265625 0.953125 
Q 20.953125 3.328125 18.109375 8.203125 
z
M 48.6875 27.296875 
Q 48.6875 37.203125 44.609375 42.84375 
Q 40.53125 48.484375 33.40625 48.484375 
Q 26.265625 48.484375 22.1875 42.84375 
Q 18.109375 37.203125 18.109375 27.296875 
Q 18.109375 17.390625 22.1875 11.75 
Q 26.265625 6.109375 33.40625 6.109375 
Q 40.53125 6.109375 44.609375 11.75 
Q 48.6875 17.390625 48.6875 27.296875 
z
" id="DejaVuSans-70"/>
     <path d="M 54.890625 33.015625 
L 54.890625 0 
L 45.90625 0 
L 45.90625 32.71875 
Q 45.90625 40.484375 42.875 44.328125 
Q 39.84375 48.1875 33.796875 48.1875 
Q 26.515625 48.1875 22.3125 43.546875 
Q 18.109375 38.921875 18.109375 30.90625 
L 18.109375 0 
L 9.078125 0 
L 9.078125 54.6875 
L 18.109375 54.6875 
L 18.109375 46.1875 
Q 21.34375 51.125 25.703125 53.5625 
Q 30.078125 56 35.796875 56 
Q 45.21875 56 50.046875 50.171875 
Q 54.890625 44.34375 54.890625 33.015625 
z
" id="DejaVuSans-6e"/>
     <path d="M 53.515625 70.515625 
L 53.515625 60.890625 
Q 47.90625 63.578125 42.921875 64.890625 
Q 37.9375 66.21875 33.296875 66.21875 
Q 25.25 66.21875 20.875 63.09375 
Q 16.5 59.96875 16.5 54.203125 
Q 16.5 49.359375 19.40625 46.890625 
Q 22.3125 44.4375 30.421875 42.921875 
L 36.375 41.703125 
Q 47.40625 39.59375 52.65625 34.296875 
Q 57.90625 29 57.90625 20.125 
Q 57.90625 9.515625 50.796875 4.046875 
Q 43.703125 -1.421875 29.984375 -1.421875 
Q 24.8125 -1.421875 18.96875 -0.25 
Q 13.140625 0.921875 6.890625 3.21875 
L 6.890625 13.375 
Q 12.890625 10.015625 18.65625 8.296875 
Q 24.421875 6.59375 29.984375 6.59375 
Q 38.421875 6.59375 43.015625 9.90625 
Q 47.609375 13.234375 47.609375 19.390625 
Q 47.609375 24.75 44.3125 27.78125 
Q 41.015625 30.8125 33.5 32.328125 
L 27.484375 33.5 
Q 16.453125 35.6875 11.515625 40.375 
Q 6.59375 45.0625 6.59375 53.421875 
Q 6.59375 63.09375 13.40625 68.65625 
Q 20.21875 74.21875 32.171875 74.21875 
Q 37.3125 74.21875 42.625 73.28125 
Q 47.953125 72.359375 53.515625 70.515625 
z
" id="DejaVuSans-53"/>
     <path d="M 18.3125 70.21875 
L 18.3125 54.6875 
L 36.8125 54.6875 
L 36.8125 47.703125 
L 18.3125 47.703125 
L 18.3125 18.015625 
Q 18.3125 11.328125 20.140625 9.421875 
Q 21.96875 7.515625 27.59375 7.515625 
L 36.8125 7.515625 
L 36.8125 0 
L 27.59375 0 
Q 17.1875 0 13.234375 3.875 
Q 9.28125 7.765625 9.28125 18.015625 
L 9.28125 47.703125 
L 2.6875 47.703125 
L 2.6875 54.6875 
L 9.28125 54.6875 
L 9.28125 70.21875 
z
" id="DejaVuSans-74"/>
     <path d="M 9.078125 75.984375 
L 18.109375 75.984375 
L 18.109375 31.109375 
L 44.921875 54.6875 
L 56.390625 54.6875 
L 27.390625 29.109375 
L 57.625 0 
L 45.90625 0 
L 18.109375 26.703125 
L 18.109375 0 
L 9.078125 0 
z
" id="DejaVuSans-6b"/>
     <path d="M 39.40625 66.21875 
Q 28.65625 66.21875 22.328125 58.203125 
Q 16.015625 50.203125 16.015625 36.375 
Q 16.015625 22.609375 22.328125 14.59375 
Q 28.65625 6.59375 39.40625 6.59375 
Q 50.140625 6.59375 56.421875 14.59375 
Q 62.703125 22.609375 62.703125 36.375 
Q 62.703125 50.203125 56.421875 58.203125 
Q 50.140625 66.21875 39.40625 66.21875 
z
M 39.40625 74.21875 
Q 54.734375 74.21875 63.90625 63.9375 
Q 73.09375 53.65625 73.09375 36.375 
Q 73.09375 19.140625 63.90625 8.859375 
Q 54.734375 -1.421875 39.40625 -1.421875 
Q 24.03125 -1.421875 14.8125 8.828125 
Q 5.609375 19.09375 5.609375 36.375 
Q 5.609375 53.65625 14.8125 63.9375 
Q 24.03125 74.21875 39.40625 74.21875 
z
" id="DejaVuSans-4f"/>
     <path d="M 2.984375 54.6875 
L 12.5 54.6875 
L 29.59375 8.796875 
L 46.6875 54.6875 
L 56.203125 54.6875 
L 35.6875 0 
L 23.484375 0 
z
" id="DejaVuSans-76"/>
     <path d="M -0.296875 72.90625 
L 61.375 72.90625 
L 61.375 64.59375 
L 35.5 64.59375 
L 35.5 0 
L 25.59375 0 
L 25.59375 64.59375 
L -0.296875 64.59375 
z
" id="DejaVuSans-54"/>
    </defs>
    <g transform="translate(121.370937 19.918125)scale(0.12 -0.12)">
     <use xlink:href="#DejaVuSans-43"/>
     <use x="69.824219" xlink:href="#DejaVuSans-6f"/>
     <use x="131.005859" xlink:href="#DejaVuSans-6d"/>
     <use x="228.417969" xlink:href="#DejaVuSans-70"/>
     <use x="291.894531" xlink:href="#DejaVuSans-61"/>
     <use x="353.173828" xlink:href="#DejaVuSans-6e"/>
     <use x="416.552734" xlink:href="#DejaVuSans-79"/>
     <use x="475.732422" xlink:href="#DejaVuSans-20"/>
     <use x="507.519531" xlink:href="#DejaVuSans-53"/>
     <use x="570.996094" xlink:href="#DejaVuSans-74"/>
     <use x="610.205078" xlink:href="#DejaVuSans-6f"/>
     <use x="671.386719" xlink:href="#DejaVuSans-63"/>
     <use x="726.367188" xlink:href="#DejaVuSans-6b"/>
     <use x="784.277344" xlink:href="#DejaVuSans-20"/>
     <use x="816.064453" xlink:href="#DejaVuSans-50"/>
     <use x="876.351562" xlink:href="#DejaVuSans-72"/>
     <use x="917.464844" xlink:href="#DejaVuSans-69"/>
     <use x="945.248047" xlink:href="#DejaVuSans-63"/>
     <use x="1000.228516" xlink:href="#DejaVuSans-65"/>
     <use x="1061.751953" xlink:href="#DejaVuSans-73"/>
     <use x="1113.851562" xlink:href="#DejaVuSans-20"/>
     <use x="1145.638672" xlink:href="#DejaVuSans-4f"/>
     <use x="1224.349609" xlink:href="#DejaVuSans-76"/>
     <use x="1283.529297" xlink:href="#DejaVuSans-65"/>
     <use x="1345.052734" xlink:href="#DejaVuSans-72"/>
     <use x="1386.166016" xlink:href="#DejaVuSans-20"/>
     <use x="1417.953125" xlink:href="#DejaVuSans-54"/>
     <use x="1478.990234" xlink:href="#DejaVuSans-69"/>
     <use x="1506.773438" xlink:href="#DejaVuSans-6d"/>
     <use x="1604.185547" xlink:href="#DejaVuSans-65"/>
    </g>
   </g>
  </g>
 </g>
 <defs>
  <clipPath id="p85de9a59f4">
   <rect height="190.925625" width="328.771875" x="56.928125" y="25.918125"/>
  </clipPath>
 </defs>
</svg>
