<?xml version="1.0" encoding="utf-8" standalone="no"?>
<!DOCTYPE svg PUBLIC "-//W3C//DTD SVG 1.1//EN"
  "http://www.w3.org/Graphics/SVG/1.1/DTD/svg11.dtd">
<!-- Created with matplotlib (http://matplotlib.org/) -->
<svg height="229pt" version="1.1" viewBox="0 0 400 229" width="400pt" xmlns="http://www.w3.org/2000/svg" xmlns:xlink="http://www.w3.org/1999/xlink">
 <defs>
  <style type="text/css">
*{stroke-linecap:butt;stroke-linejoin:round;}
  </style>
 </defs>
 <g id="figure_1">
  <g id="patch_1">
   <path d="M 0 229 
L 400 229 
L 400 0 
L 0 0 
z
" style="fill:#ffffff;"/>
  </g>
  <g id="axes_1">
   <g id="patch_2">
    <path d="M 40.065625 201.521875 
L 385.7 201.521875 
L 385.7 14.3 
L 40.065625 14.3 
z
" style="fill:#ffffff;"/>
   </g>
   <g id="patch_3">
    <path clip-path="url(#p7481bc1cc4)" d="M 55.776278 201.521875 
L 58.918409 201.521875 
L 58.918409 191.615956 
L 55.776278 191.615956 
z
" style="fill:#1f77b4;opacity:0.4;"/>
   </g>
   <g id="patch_4">
    <path clip-path="url(#p7481bc1cc4)" d="M 58.918409 201.521875 
L 62.06054 201.521875 
L 62.06054 201.521875 
L 58.918409 201.521875 
z
" style="fill:#1f77b4;opacity:0.4;"/>
   </g>
   <g id="patch_5">
    <path clip-path="url(#p7481bc1cc4)" d="M 62.06054 201.521875 
L 65.20267 201.521875 
L 65.20267 201.521875 
L 62.06054 201.521875 
z
" style="fill:#1f77b4;opacity:0.4;"/>
   </g>
   <g id="patch_6">
    <path clip-path="url(#p7481bc1cc4)" d="M 65.20267 201.521875 
L 68.344801 201.521875 
L 68.344801 201.521875 
L 65.20267 201.521875 
z
" style="fill:#1f77b4;opacity:0.4;"/>
   </g>
   <g id="patch_7">
    <path clip-path="url(#p7481bc1cc4)" d="M 68.344801 201.521875 
L 71.486932 201.521875 
L 71.486932 201.521875 
L 68.344801 201.521875 
z
" style="fill:#1f77b4;opacity:0.4;"/>
   </g>
   <g id="patch_8">
    <path clip-path="url(#p7481bc1cc4)" d="M 71.486932 201.521875 
L 74.629063 201.521875 
L 74.629063 201.521875 
L 71.486932 201.521875 
z
" style="fill:#1f77b4;opacity:0.4;"/>
   </g>
   <g id="patch_9">
    <path clip-path="url(#p7481bc1cc4)" d="M 74.629063 201.521875 
L 77.771193 201.521875 
L 77.771193 191.615956 
L 74.629063 191.615956 
z
" style="fill:#1f77b4;opacity:0.4;"/>
   </g>
   <g id="patch_10">
    <path clip-path="url(#p7481bc1cc4)" d="M 77.771193 201.521875 
L 80.913324 201.521875 
L 80.913324 201.521875 
L 77.771193 201.521875 
z
" style="fill:#1f77b4;opacity:0.4;"/>
   </g>
   <g id="patch_11">
    <path clip-path="url(#p7481bc1cc4)" d="M 80.913324 201.521875 
L 84.055455 201.521875 
L 84.055455 201.521875 
L 80.913324 201.521875 
z
" style="fill:#1f77b4;opacity:0.4;"/>
   </g>
   <g id="patch_12">
    <path clip-path="url(#p7481bc1cc4)" d="M 84.055455 201.521875 
L 87.197585 201.521875 
L 87.197585 191.615956 
L 84.055455 191.615956 
z
" style="fill:#1f77b4;opacity:0.4;"/>
   </g>
   <g id="patch_13">
    <path clip-path="url(#p7481bc1cc4)" d="M 87.197585 201.521875 
L 90.339716 201.521875 
L 90.339716 191.615956 
L 87.197585 191.615956 
z
" style="fill:#1f77b4;opacity:0.4;"/>
   </g>
   <g id="patch_14">
    <path clip-path="url(#p7481bc1cc4)" d="M 90.339716 201.521875 
L 93.481847 201.521875 
L 93.481847 201.521875 
L 90.339716 201.521875 
z
" style="fill:#1f77b4;opacity:0.4;"/>
   </g>
   <g id="patch_15">
    <path clip-path="url(#p7481bc1cc4)" d="M 93.481847 201.521875 
L 96.623977 201.521875 
L 96.623977 171.804117 
L 93.481847 171.804117 
z
" style="fill:#1f77b4;opacity:0.4;"/>
   </g>
   <g id="patch_16">
    <path clip-path="url(#p7481bc1cc4)" d="M 96.623977 201.521875 
L 99.766108 201.521875 
L 99.766108 201.521875 
L 96.623977 201.521875 
z
" style="fill:#1f77b4;opacity:0.4;"/>
   </g>
   <g id="patch_17">
    <path clip-path="url(#p7481bc1cc4)" d="M 99.766108 201.521875 
L 102.908239 201.521875 
L 102.908239 201.521875 
L 99.766108 201.521875 
z
" style="fill:#1f77b4;opacity:0.4;"/>
   </g>
   <g id="patch_18">
    <path clip-path="url(#p7481bc1cc4)" d="M 102.908239 201.521875 
L 106.050369 201.521875 
L 106.050369 191.615956 
L 102.908239 191.615956 
z
" style="fill:#1f77b4;opacity:0.4;"/>
   </g>
   <g id="patch_19">
    <path clip-path="url(#p7481bc1cc4)" d="M 106.050369 201.521875 
L 109.1925 201.521875 
L 109.1925 201.521875 
L 106.050369 201.521875 
z
" style="fill:#1f77b4;opacity:0.4;"/>
   </g>
   <g id="patch_20">
    <path clip-path="url(#p7481bc1cc4)" d="M 109.1925 201.521875 
L 112.334631 201.521875 
L 112.334631 181.710036 
L 109.1925 181.710036 
z
" style="fill:#1f77b4;opacity:0.4;"/>
   </g>
   <g id="patch_21">
    <path clip-path="url(#p7481bc1cc4)" d="M 112.334631 201.521875 
L 115.476761 201.521875 
L 115.476761 201.521875 
L 112.334631 201.521875 
z
" style="fill:#1f77b4;opacity:0.4;"/>
   </g>
   <g id="patch_22">
    <path clip-path="url(#p7481bc1cc4)" d="M 115.476761 201.521875 
L 118.618892 201.521875 
L 118.618892 191.615956 
L 115.476761 191.615956 
z
" style="fill:#1f77b4;opacity:0.4;"/>
   </g>
   <g id="patch_23">
    <path clip-path="url(#p7481bc1cc4)" d="M 118.618892 201.521875 
L 121.761023 201.521875 
L 121.761023 191.615956 
L 118.618892 191.615956 
z
" style="fill:#1f77b4;opacity:0.4;"/>
   </g>
   <g id="patch_24">
    <path clip-path="url(#p7481bc1cc4)" d="M 121.761023 201.521875 
L 124.903153 201.521875 
L 124.903153 151.992278 
L 121.761023 151.992278 
z
" style="fill:#1f77b4;opacity:0.4;"/>
   </g>
   <g id="patch_25">
    <path clip-path="url(#p7481bc1cc4)" d="M 124.903153 201.521875 
L 128.045284 201.521875 
L 128.045284 191.615956 
L 124.903153 191.615956 
z
" style="fill:#1f77b4;opacity:0.4;"/>
   </g>
   <g id="patch_26">
    <path clip-path="url(#p7481bc1cc4)" d="M 128.045284 201.521875 
L 131.187415 201.521875 
L 131.187415 161.898198 
L 128.045284 161.898198 
z
" style="fill:#1f77b4;opacity:0.4;"/>
   </g>
   <g id="patch_27">
    <path clip-path="url(#p7481bc1cc4)" d="M 131.187415 201.521875 
L 134.329545 201.521875 
L 134.329545 171.804117 
L 131.187415 171.804117 
z
" style="fill:#1f77b4;opacity:0.4;"/>
   </g>
   <g id="patch_28">
    <path clip-path="url(#p7481bc1cc4)" d="M 134.329545 201.521875 
L 137.471676 201.521875 
L 137.471676 181.710036 
L 134.329545 181.710036 
z
" style="fill:#1f77b4;opacity:0.4;"/>
   </g>
   <g id="patch_29">
    <path clip-path="url(#p7481bc1cc4)" d="M 137.471676 201.521875 
L 140.613807 201.521875 
L 140.613807 161.898198 
L 137.471676 161.898198 
z
" style="fill:#1f77b4;opacity:0.4;"/>
   </g>
   <g id="patch_30">
    <path clip-path="url(#p7481bc1cc4)" d="M 140.613807 201.521875 
L 143.755938 201.521875 
L 143.755938 171.804117 
L 140.613807 171.804117 
z
" style="fill:#1f77b4;opacity:0.4;"/>
   </g>
   <g id="patch_31">
    <path clip-path="url(#p7481bc1cc4)" d="M 143.755938 201.521875 
L 146.898068 201.521875 
L 146.898068 191.615956 
L 143.755938 191.615956 
z
" style="fill:#1f77b4;opacity:0.4;"/>
   </g>
   <g id="patch_32">
    <path clip-path="url(#p7481bc1cc4)" d="M 146.898068 201.521875 
L 150.040199 201.521875 
L 150.040199 112.368601 
L 146.898068 112.368601 
z
" style="fill:#1f77b4;opacity:0.4;"/>
   </g>
   <g id="patch_33">
    <path clip-path="url(#p7481bc1cc4)" d="M 150.040199 201.521875 
L 153.18233 201.521875 
L 153.18233 132.18044 
L 150.040199 132.18044 
z
" style="fill:#1f77b4;opacity:0.4;"/>
   </g>
   <g id="patch_34">
    <path clip-path="url(#p7481bc1cc4)" d="M 153.18233 201.521875 
L 156.32446 201.521875 
L 156.32446 102.462682 
L 153.18233 102.462682 
z
" style="fill:#1f77b4;opacity:0.4;"/>
   </g>
   <g id="patch_35">
    <path clip-path="url(#p7481bc1cc4)" d="M 156.32446 201.521875 
L 159.466591 201.521875 
L 159.466591 142.086359 
L 156.32446 142.086359 
z
" style="fill:#1f77b4;opacity:0.4;"/>
   </g>
   <g id="patch_36">
    <path clip-path="url(#p7481bc1cc4)" d="M 159.466591 201.521875 
L 162.608722 201.521875 
L 162.608722 171.804117 
L 159.466591 171.804117 
z
" style="fill:#1f77b4;opacity:0.4;"/>
   </g>
   <g id="patch_37">
    <path clip-path="url(#p7481bc1cc4)" d="M 162.608722 201.521875 
L 165.750852 201.521875 
L 165.750852 102.462682 
L 162.608722 102.462682 
z
" style="fill:#1f77b4;opacity:0.4;"/>
   </g>
   <g id="patch_38">
    <path clip-path="url(#p7481bc1cc4)" d="M 165.750852 201.521875 
L 168.892983 201.521875 
L 168.892983 132.18044 
L 165.750852 132.18044 
z
" style="fill:#1f77b4;opacity:0.4;"/>
   </g>
   <g id="patch_39">
    <path clip-path="url(#p7481bc1cc4)" d="M 168.892983 201.521875 
L 172.035114 201.521875 
L 172.035114 132.18044 
L 168.892983 132.18044 
z
" style="fill:#1f77b4;opacity:0.4;"/>
   </g>
   <g id="patch_40">
    <path clip-path="url(#p7481bc1cc4)" d="M 172.035114 201.521875 
L 175.177244 201.521875 
L 175.177244 132.18044 
L 172.035114 132.18044 
z
" style="fill:#1f77b4;opacity:0.4;"/>
   </g>
   <g id="patch_41">
    <path clip-path="url(#p7481bc1cc4)" d="M 175.177244 201.521875 
L 178.319375 201.521875 
L 178.319375 92.556763 
L 175.177244 92.556763 
z
" style="fill:#1f77b4;opacity:0.4;"/>
   </g>
   <g id="patch_42">
    <path clip-path="url(#p7481bc1cc4)" d="M 178.319375 201.521875 
L 181.461506 201.521875 
L 181.461506 142.086359 
L 178.319375 142.086359 
z
" style="fill:#1f77b4;opacity:0.4;"/>
   </g>
   <g id="patch_43">
    <path clip-path="url(#p7481bc1cc4)" d="M 181.461506 201.521875 
L 184.603636 201.521875 
L 184.603636 132.18044 
L 181.461506 132.18044 
z
" style="fill:#1f77b4;opacity:0.4;"/>
   </g>
   <g id="patch_44">
    <path clip-path="url(#p7481bc1cc4)" d="M 184.603636 201.521875 
L 187.745767 201.521875 
L 187.745767 52.933085 
L 184.603636 52.933085 
z
" style="fill:#1f77b4;opacity:0.4;"/>
   </g>
   <g id="patch_45">
    <path clip-path="url(#p7481bc1cc4)" d="M 187.745767 201.521875 
L 190.887898 201.521875 
L 190.887898 102.462682 
L 187.745767 102.462682 
z
" style="fill:#1f77b4;opacity:0.4;"/>
   </g>
   <g id="patch_46">
    <path clip-path="url(#p7481bc1cc4)" d="M 190.887898 201.521875 
L 194.030028 201.521875 
L 194.030028 82.650843 
L 190.887898 82.650843 
z
" style="fill:#1f77b4;opacity:0.4;"/>
   </g>
   <g id="patch_47">
    <path clip-path="url(#p7481bc1cc4)" d="M 194.030028 201.521875 
L 197.172159 201.521875 
L 197.172159 151.992278 
L 194.030028 151.992278 
z
" style="fill:#1f77b4;opacity:0.4;"/>
   </g>
   <g id="patch_48">
    <path clip-path="url(#p7481bc1cc4)" d="M 197.172159 201.521875 
L 200.31429 201.521875 
L 200.31429 62.839005 
L 197.172159 62.839005 
z
" style="fill:#1f77b4;opacity:0.4;"/>
   </g>
   <g id="patch_49">
    <path clip-path="url(#p7481bc1cc4)" d="M 200.31429 201.521875 
L 203.45642 201.521875 
L 203.45642 43.027166 
L 200.31429 43.027166 
z
" style="fill:#1f77b4;opacity:0.4;"/>
   </g>
   <g id="patch_50">
    <path clip-path="url(#p7481bc1cc4)" d="M 203.45642 201.521875 
L 206.598551 201.521875 
L 206.598551 112.368601 
L 203.45642 112.368601 
z
" style="fill:#1f77b4;opacity:0.4;"/>
   </g>
   <g id="patch_51">
    <path clip-path="url(#p7481bc1cc4)" d="M 206.598551 201.521875 
L 209.740682 201.521875 
L 209.740682 52.933085 
L 206.598551 52.933085 
z
" style="fill:#1f77b4;opacity:0.4;"/>
   </g>
   <g id="patch_52">
    <path clip-path="url(#p7481bc1cc4)" d="M 209.740682 201.521875 
L 212.882812 201.521875 
L 212.882812 72.744924 
L 209.740682 72.744924 
z
" style="fill:#1f77b4;opacity:0.4;"/>
   </g>
   <g id="patch_53">
    <path clip-path="url(#p7481bc1cc4)" d="M 212.882812 201.521875 
L 216.024943 201.521875 
L 216.024943 62.839005 
L 212.882812 62.839005 
z
" style="fill:#1f77b4;opacity:0.4;"/>
   </g>
   <g id="patch_54">
    <path clip-path="url(#p7481bc1cc4)" d="M 216.024943 201.521875 
L 219.167074 201.521875 
L 219.167074 132.18044 
L 216.024943 132.18044 
z
" style="fill:#1f77b4;opacity:0.4;"/>
   </g>
   <g id="patch_55">
    <path clip-path="url(#p7481bc1cc4)" d="M 219.167074 201.521875 
L 222.309205 201.521875 
L 222.309205 72.744924 
L 219.167074 72.744924 
z
" style="fill:#1f77b4;opacity:0.4;"/>
   </g>
   <g id="patch_56">
    <path clip-path="url(#p7481bc1cc4)" d="M 222.309205 201.521875 
L 225.451335 201.521875 
L 225.451335 92.556763 
L 222.309205 92.556763 
z
" style="fill:#1f77b4;opacity:0.4;"/>
   </g>
   <g id="patch_57">
    <path clip-path="url(#p7481bc1cc4)" d="M 225.451335 201.521875 
L 228.593466 201.521875 
L 228.593466 23.215327 
L 225.451335 23.215327 
z
" style="fill:#1f77b4;opacity:0.4;"/>
   </g>
   <g id="patch_58">
    <path clip-path="url(#p7481bc1cc4)" d="M 228.593466 201.521875 
L 231.735597 201.521875 
L 231.735597 112.368601 
L 228.593466 112.368601 
z
" style="fill:#1f77b4;opacity:0.4;"/>
   </g>
   <g id="patch_59">
    <path clip-path="url(#p7481bc1cc4)" d="M 231.735597 201.521875 
L 234.877727 201.521875 
L 234.877727 52.933085 
L 231.735597 52.933085 
z
" style="fill:#1f77b4;opacity:0.4;"/>
   </g>
   <g id="patch_60">
    <path clip-path="url(#p7481bc1cc4)" d="M 234.877727 201.521875 
L 238.019858 201.521875 
L 238.019858 92.556763 
L 234.877727 92.556763 
z
" style="fill:#1f77b4;opacity:0.4;"/>
   </g>
   <g id="patch_61">
    <path clip-path="url(#p7481bc1cc4)" d="M 238.019858 201.521875 
L 241.161989 201.521875 
L 241.161989 62.839005 
L 238.019858 62.839005 
z
" style="fill:#1f77b4;opacity:0.4;"/>
   </g>
   <g id="patch_62">
    <path clip-path="url(#p7481bc1cc4)" d="M 241.161989 201.521875 
L 244.304119 201.521875 
L 244.304119 132.18044 
L 241.161989 132.18044 
z
" style="fill:#1f77b4;opacity:0.4;"/>
   </g>
   <g id="patch_63">
    <path clip-path="url(#p7481bc1cc4)" d="M 244.304119 201.521875 
L 247.44625 201.521875 
L 247.44625 151.992278 
L 244.304119 151.992278 
z
" style="fill:#1f77b4;opacity:0.4;"/>
   </g>
   <g id="patch_64">
    <path clip-path="url(#p7481bc1cc4)" d="M 247.44625 201.521875 
L 250.588381 201.521875 
L 250.588381 112.368601 
L 247.44625 112.368601 
z
" style="fill:#1f77b4;opacity:0.4;"/>
   </g>
   <g id="patch_65">
    <path clip-path="url(#p7481bc1cc4)" d="M 250.588381 201.521875 
L 253.730511 201.521875 
L 253.730511 122.274521 
L 250.588381 122.274521 
z
" style="fill:#1f77b4;opacity:0.4;"/>
   </g>
   <g id="patch_66">
    <path clip-path="url(#p7481bc1cc4)" d="M 253.730511 201.521875 
L 256.872642 201.521875 
L 256.872642 72.744924 
L 253.730511 72.744924 
z
" style="fill:#1f77b4;opacity:0.4;"/>
   </g>
   <g id="patch_67">
    <path clip-path="url(#p7481bc1cc4)" d="M 256.872642 201.521875 
L 260.014773 201.521875 
L 260.014773 102.462682 
L 256.872642 102.462682 
z
" style="fill:#1f77b4;opacity:0.4;"/>
   </g>
   <g id="patch_68">
    <path clip-path="url(#p7481bc1cc4)" d="M 260.014773 201.521875 
L 263.156903 201.521875 
L 263.156903 132.18044 
L 260.014773 132.18044 
z
" style="fill:#1f77b4;opacity:0.4;"/>
   </g>
   <g id="patch_69">
    <path clip-path="url(#p7481bc1cc4)" d="M 263.156903 201.521875 
L 266.299034 201.521875 
L 266.299034 151.992278 
L 263.156903 151.992278 
z
" style="fill:#1f77b4;opacity:0.4;"/>
   </g>
   <g id="patch_70">
    <path clip-path="url(#p7481bc1cc4)" d="M 266.299034 201.521875 
L 269.441165 201.521875 
L 269.441165 132.18044 
L 266.299034 132.18044 
z
" style="fill:#1f77b4;opacity:0.4;"/>
   </g>
   <g id="patch_71">
    <path clip-path="url(#p7481bc1cc4)" d="M 269.441165 201.521875 
L 272.583295 201.521875 
L 272.583295 72.744924 
L 269.441165 72.744924 
z
" style="fill:#1f77b4;opacity:0.4;"/>
   </g>
   <g id="patch_72">
    <path clip-path="url(#p7481bc1cc4)" d="M 272.583295 201.521875 
L 275.725426 201.521875 
L 275.725426 161.898198 
L 272.583295 161.898198 
z
" style="fill:#1f77b4;opacity:0.4;"/>
   </g>
   <g id="patch_73">
    <path clip-path="url(#p7481bc1cc4)" d="M 275.725426 201.521875 
L 278.867557 201.521875 
L 278.867557 151.992278 
L 275.725426 151.992278 
z
" style="fill:#1f77b4;opacity:0.4;"/>
   </g>
   <g id="patch_74">
    <path clip-path="url(#p7481bc1cc4)" d="M 278.867557 201.521875 
L 282.009687 201.521875 
L 282.009687 142.086359 
L 278.867557 142.086359 
z
" style="fill:#1f77b4;opacity:0.4;"/>
   </g>
   <g id="patch_75">
    <path clip-path="url(#p7481bc1cc4)" d="M 282.009687 201.521875 
L 285.151818 201.521875 
L 285.151818 132.18044 
L 282.009687 132.18044 
z
" style="fill:#1f77b4;opacity:0.4;"/>
   </g>
   <g id="patch_76">
    <path clip-path="url(#p7481bc1cc4)" d="M 285.151818 201.521875 
L 288.293949 201.521875 
L 288.293949 181.710036 
L 285.151818 181.710036 
z
" style="fill:#1f77b4;opacity:0.4;"/>
   </g>
   <g id="patch_77">
    <path clip-path="url(#p7481bc1cc4)" d="M 288.293949 201.521875 
L 291.43608 201.521875 
L 291.43608 161.898198 
L 288.293949 161.898198 
z
" style="fill:#1f77b4;opacity:0.4;"/>
   </g>
   <g id="patch_78">
    <path clip-path="url(#p7481bc1cc4)" d="M 291.43608 201.521875 
L 294.57821 201.521875 
L 294.57821 161.898198 
L 291.43608 161.898198 
z
" style="fill:#1f77b4;opacity:0.4;"/>
   </g>
   <g id="patch_79">
    <path clip-path="url(#p7481bc1cc4)" d="M 294.57821 201.521875 
L 297.720341 201.521875 
L 297.720341 112.368601 
L 294.57821 112.368601 
z
" style="fill:#1f77b4;opacity:0.4;"/>
   </g>
   <g id="patch_80">
    <path clip-path="url(#p7481bc1cc4)" d="M 297.720341 201.521875 
L 300.862472 201.521875 
L 300.862472 191.615956 
L 297.720341 191.615956 
z
" style="fill:#1f77b4;opacity:0.4;"/>
   </g>
   <g id="patch_81">
    <path clip-path="url(#p7481bc1cc4)" d="M 300.862472 201.521875 
L 304.004602 201.521875 
L 304.004602 151.992278 
L 300.862472 151.992278 
z
" style="fill:#1f77b4;opacity:0.4;"/>
   </g>
   <g id="patch_82">
    <path clip-path="url(#p7481bc1cc4)" d="M 304.004602 201.521875 
L 307.146733 201.521875 
L 307.146733 171.804117 
L 304.004602 171.804117 
z
" style="fill:#1f77b4;opacity:0.4;"/>
   </g>
   <g id="patch_83">
    <path clip-path="url(#p7481bc1cc4)" d="M 307.146733 201.521875 
L 310.288864 201.521875 
L 310.288864 171.804117 
L 307.146733 171.804117 
z
" style="fill:#1f77b4;opacity:0.4;"/>
   </g>
   <g id="patch_84">
    <path clip-path="url(#p7481bc1cc4)" d="M 310.288864 201.521875 
L 313.430994 201.521875 
L 313.430994 181.710036 
L 310.288864 181.710036 
z
" style="fill:#1f77b4;opacity:0.4;"/>
   </g>
   <g id="patch_85">
    <path clip-path="url(#p7481bc1cc4)" d="M 313.430994 201.521875 
L 316.573125 201.521875 
L 316.573125 171.804117 
L 313.430994 171.804117 
z
" style="fill:#1f77b4;opacity:0.4;"/>
   </g>
   <g id="patch_86">
    <path clip-path="url(#p7481bc1cc4)" d="M 316.573125 201.521875 
L 319.715256 201.521875 
L 319.715256 191.615956 
L 316.573125 191.615956 
z
" style="fill:#1f77b4;opacity:0.4;"/>
   </g>
   <g id="patch_87">
    <path clip-path="url(#p7481bc1cc4)" d="M 319.715256 201.521875 
L 322.857386 201.521875 
L 322.857386 191.615956 
L 319.715256 191.615956 
z
" style="fill:#1f77b4;opacity:0.4;"/>
   </g>
   <g id="patch_88">
    <path clip-path="url(#p7481bc1cc4)" d="M 322.857386 201.521875 
L 325.999517 201.521875 
L 325.999517 181.710036 
L 322.857386 181.710036 
z
" style="fill:#1f77b4;opacity:0.4;"/>
   </g>
   <g id="patch_89">
    <path clip-path="url(#p7481bc1cc4)" d="M 325.999517 201.521875 
L 329.141648 201.521875 
L 329.141648 201.521875 
L 325.999517 201.521875 
z
" style="fill:#1f77b4;opacity:0.4;"/>
   </g>
   <g id="patch_90">
    <path clip-path="url(#p7481bc1cc4)" d="M 329.141648 201.521875 
L 332.283778 201.521875 
L 332.283778 171.804117 
L 329.141648 171.804117 
z
" style="fill:#1f77b4;opacity:0.4;"/>
   </g>
   <g id="patch_91">
    <path clip-path="url(#p7481bc1cc4)" d="M 332.283778 201.521875 
L 335.425909 201.521875 
L 335.425909 181.710036 
L 332.283778 181.710036 
z
" style="fill:#1f77b4;opacity:0.4;"/>
   </g>
   <g id="patch_92">
    <path clip-path="url(#p7481bc1cc4)" d="M 335.425909 201.521875 
L 338.56804 201.521875 
L 338.56804 201.521875 
L 335.425909 201.521875 
z
" style="fill:#1f77b4;opacity:0.4;"/>
   </g>
   <g id="patch_93">
    <path clip-path="url(#p7481bc1cc4)" d="M 338.56804 201.521875 
L 341.71017 201.521875 
L 341.71017 191.615956 
L 338.56804 191.615956 
z
" style="fill:#1f77b4;opacity:0.4;"/>
   </g>
   <g id="patch_94">
    <path clip-path="url(#p7481bc1cc4)" d="M 341.71017 201.521875 
L 344.852301 201.521875 
L 344.852301 201.521875 
L 341.71017 201.521875 
z
" style="fill:#1f77b4;opacity:0.4;"/>
   </g>
   <g id="patch_95">
    <path clip-path="url(#p7481bc1cc4)" d="M 344.852301 201.521875 
L 347.994432 201.521875 
L 347.994432 201.521875 
L 344.852301 201.521875 
z
" style="fill:#1f77b4;opacity:0.4;"/>
   </g>
   <g id="patch_96">
    <path clip-path="url(#p7481bc1cc4)" d="M 347.994432 201.521875 
L 351.136562 201.521875 
L 351.136562 201.521875 
L 347.994432 201.521875 
z
" style="fill:#1f77b4;opacity:0.4;"/>
   </g>
   <g id="patch_97">
    <path clip-path="url(#p7481bc1cc4)" d="M 351.136562 201.521875 
L 354.278693 201.521875 
L 354.278693 191.615956 
L 351.136562 191.615956 
z
" style="fill:#1f77b4;opacity:0.4;"/>
   </g>
   <g id="patch_98">
    <path clip-path="url(#p7481bc1cc4)" d="M 354.278693 201.521875 
L 357.420824 201.521875 
L 357.420824 201.521875 
L 354.278693 201.521875 
z
" style="fill:#1f77b4;opacity:0.4;"/>
   </g>
   <g id="patch_99">
    <path clip-path="url(#p7481bc1cc4)" d="M 357.420824 201.521875 
L 360.562955 201.521875 
L 360.562955 201.521875 
L 357.420824 201.521875 
z
" style="fill:#1f77b4;opacity:0.4;"/>
   </g>
   <g id="patch_100">
    <path clip-path="url(#p7481bc1cc4)" d="M 360.562955 201.521875 
L 363.705085 201.521875 
L 363.705085 201.521875 
L 360.562955 201.521875 
z
" style="fill:#1f77b4;opacity:0.4;"/>
   </g>
   <g id="patch_101">
    <path clip-path="url(#p7481bc1cc4)" d="M 363.705085 201.521875 
L 366.847216 201.521875 
L 366.847216 201.521875 
L 363.705085 201.521875 
z
" style="fill:#1f77b4;opacity:0.4;"/>
   </g>
   <g id="patch_102">
    <path clip-path="url(#p7481bc1cc4)" d="M 366.847216 201.521875 
L 369.989347 201.521875 
L 369.989347 191.615956 
L 366.847216 191.615956 
z
" style="fill:#1f77b4;opacity:0.4;"/>
   </g>
   <g id="patch_103">
    <path clip-path="url(#p7481bc1cc4)" d="M 138.14525 201.521875 
L 139.342531 201.521875 
L 139.342531 191.615956 
L 138.14525 191.615956 
z
" style="fill:#ff7f0e;opacity:0.4;"/>
   </g>
   <g id="patch_104">
    <path clip-path="url(#p7481bc1cc4)" d="M 139.342531 201.521875 
L 140.539811 201.521875 
L 140.539811 201.521875 
L 139.342531 201.521875 
z
" style="fill:#ff7f0e;opacity:0.4;"/>
   </g>
   <g id="patch_105">
    <path clip-path="url(#p7481bc1cc4)" d="M 140.539811 201.521875 
L 141.737092 201.521875 
L 141.737092 201.521875 
L 140.539811 201.521875 
z
" style="fill:#ff7f0e;opacity:0.4;"/>
   </g>
   <g id="patch_106">
    <path clip-path="url(#p7481bc1cc4)" d="M 141.737092 201.521875 
L 142.934373 201.521875 
L 142.934373 201.521875 
L 141.737092 201.521875 
z
" style="fill:#ff7f0e;opacity:0.4;"/>
   </g>
   <g id="patch_107">
    <path clip-path="url(#p7481bc1cc4)" d="M 142.934373 201.521875 
L 144.131653 201.521875 
L 144.131653 201.521875 
L 142.934373 201.521875 
z
" style="fill:#ff7f0e;opacity:0.4;"/>
   </g>
   <g id="patch_108">
    <path clip-path="url(#p7481bc1cc4)" d="M 144.131653 201.521875 
L 145.328934 201.521875 
L 145.328934 181.710036 
L 144.131653 181.710036 
z
" style="fill:#ff7f0e;opacity:0.4;"/>
   </g>
   <g id="patch_109">
    <path clip-path="url(#p7481bc1cc4)" d="M 145.328934 201.521875 
L 146.526215 201.521875 
L 146.526215 201.521875 
L 145.328934 201.521875 
z
" style="fill:#ff7f0e;opacity:0.4;"/>
   </g>
   <g id="patch_110">
    <path clip-path="url(#p7481bc1cc4)" d="M 146.526215 201.521875 
L 147.723495 201.521875 
L 147.723495 201.521875 
L 146.526215 201.521875 
z
" style="fill:#ff7f0e;opacity:0.4;"/>
   </g>
   <g id="patch_111">
    <path clip-path="url(#p7481bc1cc4)" d="M 147.723495 201.521875 
L 148.920776 201.521875 
L 148.920776 201.521875 
L 147.723495 201.521875 
z
" style="fill:#ff7f0e;opacity:0.4;"/>
   </g>
   <g id="patch_112">
    <path clip-path="url(#p7481bc1cc4)" d="M 148.920776 201.521875 
L 150.118056 201.521875 
L 150.118056 201.521875 
L 148.920776 201.521875 
z
" style="fill:#ff7f0e;opacity:0.4;"/>
   </g>
   <g id="patch_113">
    <path clip-path="url(#p7481bc1cc4)" d="M 150.118056 201.521875 
L 151.315337 201.521875 
L 151.315337 201.521875 
L 150.118056 201.521875 
z
" style="fill:#ff7f0e;opacity:0.4;"/>
   </g>
   <g id="patch_114">
    <path clip-path="url(#p7481bc1cc4)" d="M 151.315337 201.521875 
L 152.512618 201.521875 
L 152.512618 191.615956 
L 151.315337 191.615956 
z
" style="fill:#ff7f0e;opacity:0.4;"/>
   </g>
   <g id="patch_115">
    <path clip-path="url(#p7481bc1cc4)" d="M 152.512618 201.521875 
L 153.709898 201.521875 
L 153.709898 201.521875 
L 152.512618 201.521875 
z
" style="fill:#ff7f0e;opacity:0.4;"/>
   </g>
   <g id="patch_116">
    <path clip-path="url(#p7481bc1cc4)" d="M 153.709898 201.521875 
L 154.907179 201.521875 
L 154.907179 171.804117 
L 153.709898 171.804117 
z
" style="fill:#ff7f0e;opacity:0.4;"/>
   </g>
   <g id="patch_117">
    <path clip-path="url(#p7481bc1cc4)" d="M 154.907179 201.521875 
L 156.10446 201.521875 
L 156.10446 181.710036 
L 154.907179 181.710036 
z
" style="fill:#ff7f0e;opacity:0.4;"/>
   </g>
   <g id="patch_118">
    <path clip-path="url(#p7481bc1cc4)" d="M 156.10446 201.521875 
L 157.30174 201.521875 
L 157.30174 181.710036 
L 156.10446 181.710036 
z
" style="fill:#ff7f0e;opacity:0.4;"/>
   </g>
   <g id="patch_119">
    <path clip-path="url(#p7481bc1cc4)" d="M 157.30174 201.521875 
L 158.499021 201.521875 
L 158.499021 171.804117 
L 157.30174 171.804117 
z
" style="fill:#ff7f0e;opacity:0.4;"/>
   </g>
   <g id="patch_120">
    <path clip-path="url(#p7481bc1cc4)" d="M 158.499021 201.521875 
L 159.696302 201.521875 
L 159.696302 191.615956 
L 158.499021 191.615956 
z
" style="fill:#ff7f0e;opacity:0.4;"/>
   </g>
   <g id="patch_121">
    <path clip-path="url(#p7481bc1cc4)" d="M 159.696302 201.521875 
L 160.893582 201.521875 
L 160.893582 171.804117 
L 159.696302 171.804117 
z
" style="fill:#ff7f0e;opacity:0.4;"/>
   </g>
   <g id="patch_122">
    <path clip-path="url(#p7481bc1cc4)" d="M 160.893582 201.521875 
L 162.090863 201.521875 
L 162.090863 171.804117 
L 160.893582 171.804117 
z
" style="fill:#ff7f0e;opacity:0.4;"/>
   </g>
   <g id="patch_123">
    <path clip-path="url(#p7481bc1cc4)" d="M 162.090863 201.521875 
L 163.288144 201.521875 
L 163.288144 151.992278 
L 162.090863 151.992278 
z
" style="fill:#ff7f0e;opacity:0.4;"/>
   </g>
   <g id="patch_124">
    <path clip-path="url(#p7481bc1cc4)" d="M 163.288144 201.521875 
L 164.485424 201.521875 
L 164.485424 181.710036 
L 163.288144 181.710036 
z
" style="fill:#ff7f0e;opacity:0.4;"/>
   </g>
   <g id="patch_125">
    <path clip-path="url(#p7481bc1cc4)" d="M 164.485424 201.521875 
L 165.682705 201.521875 
L 165.682705 171.804117 
L 164.485424 171.804117 
z
" style="fill:#ff7f0e;opacity:0.4;"/>
   </g>
   <g id="patch_126">
    <path clip-path="url(#p7481bc1cc4)" d="M 165.682705 201.521875 
L 166.879986 201.521875 
L 166.879986 122.274521 
L 165.682705 122.274521 
z
" style="fill:#ff7f0e;opacity:0.4;"/>
   </g>
   <g id="patch_127">
    <path clip-path="url(#p7481bc1cc4)" d="M 166.879986 201.521875 
L 168.077266 201.521875 
L 168.077266 191.615956 
L 166.879986 191.615956 
z
" style="fill:#ff7f0e;opacity:0.4;"/>
   </g>
   <g id="patch_128">
    <path clip-path="url(#p7481bc1cc4)" d="M 168.077266 201.521875 
L 169.274547 201.521875 
L 169.274547 151.992278 
L 168.077266 151.992278 
z
" style="fill:#ff7f0e;opacity:0.4;"/>
   </g>
   <g id="patch_129">
    <path clip-path="url(#p7481bc1cc4)" d="M 169.274547 201.521875 
L 170.471827 201.521875 
L 170.471827 142.086359 
L 169.274547 142.086359 
z
" style="fill:#ff7f0e;opacity:0.4;"/>
   </g>
   <g id="patch_130">
    <path clip-path="url(#p7481bc1cc4)" d="M 170.471827 201.521875 
L 171.669108 201.521875 
L 171.669108 171.804117 
L 170.471827 171.804117 
z
" style="fill:#ff7f0e;opacity:0.4;"/>
   </g>
   <g id="patch_131">
    <path clip-path="url(#p7481bc1cc4)" d="M 171.669108 201.521875 
L 172.866389 201.521875 
L 172.866389 142.086359 
L 171.669108 142.086359 
z
" style="fill:#ff7f0e;opacity:0.4;"/>
   </g>
   <g id="patch_132">
    <path clip-path="url(#p7481bc1cc4)" d="M 172.866389 201.521875 
L 174.063669 201.521875 
L 174.063669 92.556763 
L 172.866389 92.556763 
z
" style="fill:#ff7f0e;opacity:0.4;"/>
   </g>
   <g id="patch_133">
    <path clip-path="url(#p7481bc1cc4)" d="M 174.063669 201.521875 
L 175.26095 201.521875 
L 175.26095 72.744924 
L 174.063669 72.744924 
z
" style="fill:#ff7f0e;opacity:0.4;"/>
   </g>
   <g id="patch_134">
    <path clip-path="url(#p7481bc1cc4)" d="M 175.26095 201.521875 
L 176.458231 201.521875 
L 176.458231 181.710036 
L 175.26095 181.710036 
z
" style="fill:#ff7f0e;opacity:0.4;"/>
   </g>
   <g id="patch_135">
    <path clip-path="url(#p7481bc1cc4)" d="M 176.458231 201.521875 
L 177.655511 201.521875 
L 177.655511 142.086359 
L 176.458231 142.086359 
z
" style="fill:#ff7f0e;opacity:0.4;"/>
   </g>
   <g id="patch_136">
    <path clip-path="url(#p7481bc1cc4)" d="M 177.655511 201.521875 
L 178.852792 201.521875 
L 178.852792 132.18044 
L 177.655511 132.18044 
z
" style="fill:#ff7f0e;opacity:0.4;"/>
   </g>
   <g id="patch_137">
    <path clip-path="url(#p7481bc1cc4)" d="M 178.852792 201.521875 
L 180.050073 201.521875 
L 180.050073 151.992278 
L 178.852792 151.992278 
z
" style="fill:#ff7f0e;opacity:0.4;"/>
   </g>
   <g id="patch_138">
    <path clip-path="url(#p7481bc1cc4)" d="M 180.050073 201.521875 
L 181.247353 201.521875 
L 181.247353 112.368601 
L 180.050073 112.368601 
z
" style="fill:#ff7f0e;opacity:0.4;"/>
   </g>
   <g id="patch_139">
    <path clip-path="url(#p7481bc1cc4)" d="M 181.247353 201.521875 
L 182.444634 201.521875 
L 182.444634 62.839005 
L 181.247353 62.839005 
z
" style="fill:#ff7f0e;opacity:0.4;"/>
   </g>
   <g id="patch_140">
    <path clip-path="url(#p7481bc1cc4)" d="M 182.444634 201.521875 
L 183.641915 201.521875 
L 183.641915 122.274521 
L 182.444634 122.274521 
z
" style="fill:#ff7f0e;opacity:0.4;"/>
   </g>
   <g id="patch_141">
    <path clip-path="url(#p7481bc1cc4)" d="M 183.641915 201.521875 
L 184.839195 201.521875 
L 184.839195 92.556763 
L 183.641915 92.556763 
z
" style="fill:#ff7f0e;opacity:0.4;"/>
   </g>
   <g id="patch_142">
    <path clip-path="url(#p7481bc1cc4)" d="M 184.839195 201.521875 
L 186.036476 201.521875 
L 186.036476 92.556763 
L 184.839195 92.556763 
z
" style="fill:#ff7f0e;opacity:0.4;"/>
   </g>
   <g id="patch_143">
    <path clip-path="url(#p7481bc1cc4)" d="M 186.036476 201.521875 
L 187.233757 201.521875 
L 187.233757 62.839005 
L 186.036476 62.839005 
z
" style="fill:#ff7f0e;opacity:0.4;"/>
   </g>
   <g id="patch_144">
    <path clip-path="url(#p7481bc1cc4)" d="M 187.233757 201.521875 
L 188.431037 201.521875 
L 188.431037 62.839005 
L 187.233757 62.839005 
z
" style="fill:#ff7f0e;opacity:0.4;"/>
   </g>
   <g id="patch_145">
    <path clip-path="url(#p7481bc1cc4)" d="M 188.431037 201.521875 
L 189.628318 201.521875 
L 189.628318 72.744924 
L 188.431037 72.744924 
z
" style="fill:#ff7f0e;opacity:0.4;"/>
   </g>
   <g id="patch_146">
    <path clip-path="url(#p7481bc1cc4)" d="M 189.628318 201.521875 
L 190.825598 201.521875 
L 190.825598 52.933085 
L 189.628318 52.933085 
z
" style="fill:#ff7f0e;opacity:0.4;"/>
   </g>
   <g id="patch_147">
    <path clip-path="url(#p7481bc1cc4)" d="M 190.825598 201.521875 
L 192.022879 201.521875 
L 192.022879 43.027166 
L 190.825598 43.027166 
z
" style="fill:#ff7f0e;opacity:0.4;"/>
   </g>
   <g id="patch_148">
    <path clip-path="url(#p7481bc1cc4)" d="M 192.022879 201.521875 
L 193.22016 201.521875 
L 193.22016 62.839005 
L 192.022879 62.839005 
z
" style="fill:#ff7f0e;opacity:0.4;"/>
   </g>
   <g id="patch_149">
    <path clip-path="url(#p7481bc1cc4)" d="M 193.22016 201.521875 
L 194.41744 201.521875 
L 194.41744 23.215327 
L 193.22016 23.215327 
z
" style="fill:#ff7f0e;opacity:0.4;"/>
   </g>
   <g id="patch_150">
    <path clip-path="url(#p7481bc1cc4)" d="M 194.41744 201.521875 
L 195.614721 201.521875 
L 195.614721 52.933085 
L 194.41744 52.933085 
z
" style="fill:#ff7f0e;opacity:0.4;"/>
   </g>
   <g id="patch_151">
    <path clip-path="url(#p7481bc1cc4)" d="M 195.614721 201.521875 
L 196.812002 201.521875 
L 196.812002 62.839005 
L 195.614721 62.839005 
z
" style="fill:#ff7f0e;opacity:0.4;"/>
   </g>
   <g id="patch_152">
    <path clip-path="url(#p7481bc1cc4)" d="M 196.812002 201.521875 
L 198.009282 201.521875 
L 198.009282 62.839005 
L 196.812002 62.839005 
z
" style="fill:#ff7f0e;opacity:0.4;"/>
   </g>
   <g id="patch_153">
    <path clip-path="url(#p7481bc1cc4)" d="M 198.009282 201.521875 
L 199.206563 201.521875 
L 199.206563 92.556763 
L 198.009282 92.556763 
z
" style="fill:#ff7f0e;opacity:0.4;"/>
   </g>
   <g id="patch_154">
    <path clip-path="url(#p7481bc1cc4)" d="M 199.206563 201.521875 
L 200.403844 201.521875 
L 200.403844 62.839005 
L 199.206563 62.839005 
z
" style="fill:#ff7f0e;opacity:0.4;"/>
   </g>
   <g id="patch_155">
    <path clip-path="url(#p7481bc1cc4)" d="M 200.403844 201.521875 
L 201.601124 201.521875 
L 201.601124 102.462682 
L 200.403844 102.462682 
z
" style="fill:#ff7f0e;opacity:0.4;"/>
   </g>
   <g id="patch_156">
    <path clip-path="url(#p7481bc1cc4)" d="M 201.601124 201.521875 
L 202.798405 201.521875 
L 202.798405 92.556763 
L 201.601124 92.556763 
z
" style="fill:#ff7f0e;opacity:0.4;"/>
   </g>
   <g id="patch_157">
    <path clip-path="url(#p7481bc1cc4)" d="M 202.798405 201.521875 
L 203.995686 201.521875 
L 203.995686 122.274521 
L 202.798405 122.274521 
z
" style="fill:#ff7f0e;opacity:0.4;"/>
   </g>
   <g id="patch_158">
    <path clip-path="url(#p7481bc1cc4)" d="M 203.995686 201.521875 
L 205.192966 201.521875 
L 205.192966 82.650843 
L 203.995686 82.650843 
z
" style="fill:#ff7f0e;opacity:0.4;"/>
   </g>
   <g id="patch_159">
    <path clip-path="url(#p7481bc1cc4)" d="M 205.192966 201.521875 
L 206.390247 201.521875 
L 206.390247 142.086359 
L 205.192966 142.086359 
z
" style="fill:#ff7f0e;opacity:0.4;"/>
   </g>
   <g id="patch_160">
    <path clip-path="url(#p7481bc1cc4)" d="M 206.390247 201.521875 
L 207.587528 201.521875 
L 207.587528 142.086359 
L 206.390247 142.086359 
z
" style="fill:#ff7f0e;opacity:0.4;"/>
   </g>
   <g id="patch_161">
    <path clip-path="url(#p7481bc1cc4)" d="M 207.587528 201.521875 
L 208.784808 201.521875 
L 208.784808 102.462682 
L 207.587528 102.462682 
z
" style="fill:#ff7f0e;opacity:0.4;"/>
   </g>
   <g id="patch_162">
    <path clip-path="url(#p7481bc1cc4)" d="M 208.784808 201.521875 
L 209.982089 201.521875 
L 209.982089 132.18044 
L 208.784808 132.18044 
z
" style="fill:#ff7f0e;opacity:0.4;"/>
   </g>
   <g id="patch_163">
    <path clip-path="url(#p7481bc1cc4)" d="M 209.982089 201.521875 
L 211.17937 201.521875 
L 211.17937 82.650843 
L 209.982089 82.650843 
z
" style="fill:#ff7f0e;opacity:0.4;"/>
   </g>
   <g id="patch_164">
    <path clip-path="url(#p7481bc1cc4)" d="M 211.17937 201.521875 
L 212.37665 201.521875 
L 212.37665 82.650843 
L 211.17937 82.650843 
z
" style="fill:#ff7f0e;opacity:0.4;"/>
   </g>
   <g id="patch_165">
    <path clip-path="url(#p7481bc1cc4)" d="M 212.37665 201.521875 
L 213.573931 201.521875 
L 213.573931 82.650843 
L 212.37665 82.650843 
z
" style="fill:#ff7f0e;opacity:0.4;"/>
   </g>
   <g id="patch_166">
    <path clip-path="url(#p7481bc1cc4)" d="M 213.573931 201.521875 
L 214.771211 201.521875 
L 214.771211 102.462682 
L 213.573931 102.462682 
z
" style="fill:#ff7f0e;opacity:0.4;"/>
   </g>
   <g id="patch_167">
    <path clip-path="url(#p7481bc1cc4)" d="M 214.771211 201.521875 
L 215.968492 201.521875 
L 215.968492 161.898198 
L 214.771211 161.898198 
z
" style="fill:#ff7f0e;opacity:0.4;"/>
   </g>
   <g id="patch_168">
    <path clip-path="url(#p7481bc1cc4)" d="M 215.968492 201.521875 
L 217.165773 201.521875 
L 217.165773 132.18044 
L 215.968492 132.18044 
z
" style="fill:#ff7f0e;opacity:0.4;"/>
   </g>
   <g id="patch_169">
    <path clip-path="url(#p7481bc1cc4)" d="M 217.165773 201.521875 
L 218.363053 201.521875 
L 218.363053 132.18044 
L 217.165773 132.18044 
z
" style="fill:#ff7f0e;opacity:0.4;"/>
   </g>
   <g id="patch_170">
    <path clip-path="url(#p7481bc1cc4)" d="M 218.363053 201.521875 
L 219.560334 201.521875 
L 219.560334 201.521875 
L 218.363053 201.521875 
z
" style="fill:#ff7f0e;opacity:0.4;"/>
   </g>
   <g id="patch_171">
    <path clip-path="url(#p7481bc1cc4)" d="M 219.560334 201.521875 
L 220.757615 201.521875 
L 220.757615 161.898198 
L 219.560334 161.898198 
z
" style="fill:#ff7f0e;opacity:0.4;"/>
   </g>
   <g id="patch_172">
    <path clip-path="url(#p7481bc1cc4)" d="M 220.757615 201.521875 
L 221.954895 201.521875 
L 221.954895 151.992278 
L 220.757615 151.992278 
z
" style="fill:#ff7f0e;opacity:0.4;"/>
   </g>
   <g id="patch_173">
    <path clip-path="url(#p7481bc1cc4)" d="M 221.954895 201.521875 
L 223.152176 201.521875 
L 223.152176 151.992278 
L 221.954895 151.992278 
z
" style="fill:#ff7f0e;opacity:0.4;"/>
   </g>
   <g id="patch_174">
    <path clip-path="url(#p7481bc1cc4)" d="M 223.152176 201.521875 
L 224.349457 201.521875 
L 224.349457 151.992278 
L 223.152176 151.992278 
z
" style="fill:#ff7f0e;opacity:0.4;"/>
   </g>
   <g id="patch_175">
    <path clip-path="url(#p7481bc1cc4)" d="M 224.349457 201.521875 
L 225.546737 201.521875 
L 225.546737 171.804117 
L 224.349457 171.804117 
z
" style="fill:#ff7f0e;opacity:0.4;"/>
   </g>
   <g id="patch_176">
    <path clip-path="url(#p7481bc1cc4)" d="M 225.546737 201.521875 
L 226.744018 201.521875 
L 226.744018 171.804117 
L 225.546737 171.804117 
z
" style="fill:#ff7f0e;opacity:0.4;"/>
   </g>
   <g id="patch_177">
    <path clip-path="url(#p7481bc1cc4)" d="M 226.744018 201.521875 
L 227.941299 201.521875 
L 227.941299 171.804117 
L 226.744018 171.804117 
z
" style="fill:#ff7f0e;opacity:0.4;"/>
   </g>
   <g id="patch_178">
    <path clip-path="url(#p7481bc1cc4)" d="M 227.941299 201.521875 
L 229.138579 201.521875 
L 229.138579 171.804117 
L 227.941299 171.804117 
z
" style="fill:#ff7f0e;opacity:0.4;"/>
   </g>
   <g id="patch_179">
    <path clip-path="url(#p7481bc1cc4)" d="M 229.138579 201.521875 
L 230.33586 201.521875 
L 230.33586 181.710036 
L 229.138579 181.710036 
z
" style="fill:#ff7f0e;opacity:0.4;"/>
   </g>
   <g id="patch_180">
    <path clip-path="url(#p7481bc1cc4)" d="M 230.33586 201.521875 
L 231.533141 201.521875 
L 231.533141 201.521875 
L 230.33586 201.521875 
z
" style="fill:#ff7f0e;opacity:0.4;"/>
   </g>
   <g id="patch_181">
    <path clip-path="url(#p7481bc1cc4)" d="M 231.533141 201.521875 
L 232.730421 201.521875 
L 232.730421 201.521875 
L 231.533141 201.521875 
z
" style="fill:#ff7f0e;opacity:0.4;"/>
   </g>
   <g id="patch_182">
    <path clip-path="url(#p7481bc1cc4)" d="M 232.730421 201.521875 
L 233.927702 201.521875 
L 233.927702 201.521875 
L 232.730421 201.521875 
z
" style="fill:#ff7f0e;opacity:0.4;"/>
   </g>
   <g id="patch_183">
    <path clip-path="url(#p7481bc1cc4)" d="M 233.927702 201.521875 
L 235.124982 201.521875 
L 235.124982 201.521875 
L 233.927702 201.521875 
z
" style="fill:#ff7f0e;opacity:0.4;"/>
   </g>
   <g id="patch_184">
    <path clip-path="url(#p7481bc1cc4)" d="M 235.124982 201.521875 
L 236.322263 201.521875 
L 236.322263 191.615956 
L 235.124982 191.615956 
z
" style="fill:#ff7f0e;opacity:0.4;"/>
   </g>
   <g id="patch_185">
    <path clip-path="url(#p7481bc1cc4)" d="M 236.322263 201.521875 
L 237.519544 201.521875 
L 237.519544 201.521875 
L 236.322263 201.521875 
z
" style="fill:#ff7f0e;opacity:0.4;"/>
   </g>
   <g id="patch_186">
    <path clip-path="url(#p7481bc1cc4)" d="M 237.519544 201.521875 
L 238.716824 201.521875 
L 238.716824 201.521875 
L 237.519544 201.521875 
z
" style="fill:#ff7f0e;opacity:0.4;"/>
   </g>
   <g id="patch_187">
    <path clip-path="url(#p7481bc1cc4)" d="M 238.716824 201.521875 
L 239.914105 201.521875 
L 239.914105 191.615956 
L 238.716824 191.615956 
z
" style="fill:#ff7f0e;opacity:0.4;"/>
   </g>
   <g id="patch_188">
    <path clip-path="url(#p7481bc1cc4)" d="M 239.914105 201.521875 
L 241.111386 201.521875 
L 241.111386 201.521875 
L 239.914105 201.521875 
z
" style="fill:#ff7f0e;opacity:0.4;"/>
   </g>
   <g id="patch_189">
    <path clip-path="url(#p7481bc1cc4)" d="M 241.111386 201.521875 
L 242.308666 201.521875 
L 242.308666 201.521875 
L 241.111386 201.521875 
z
" style="fill:#ff7f0e;opacity:0.4;"/>
   </g>
   <g id="patch_190">
    <path clip-path="url(#p7481bc1cc4)" d="M 242.308666 201.521875 
L 243.505947 201.521875 
L 243.505947 201.521875 
L 242.308666 201.521875 
z
" style="fill:#ff7f0e;opacity:0.4;"/>
   </g>
   <g id="patch_191">
    <path clip-path="url(#p7481bc1cc4)" d="M 243.505947 201.521875 
L 244.703228 201.521875 
L 244.703228 191.615956 
L 243.505947 191.615956 
z
" style="fill:#ff7f0e;opacity:0.4;"/>
   </g>
   <g id="patch_192">
    <path clip-path="url(#p7481bc1cc4)" d="M 244.703228 201.521875 
L 245.900508 201.521875 
L 245.900508 201.521875 
L 244.703228 201.521875 
z
" style="fill:#ff7f0e;opacity:0.4;"/>
   </g>
   <g id="patch_193">
    <path clip-path="url(#p7481bc1cc4)" d="M 245.900508 201.521875 
L 247.097789 201.521875 
L 247.097789 201.521875 
L 245.900508 201.521875 
z
" style="fill:#ff7f0e;opacity:0.4;"/>
   </g>
   <g id="patch_194">
    <path clip-path="url(#p7481bc1cc4)" d="M 247.097789 201.521875 
L 248.29507 201.521875 
L 248.29507 201.521875 
L 247.097789 201.521875 
z
" style="fill:#ff7f0e;opacity:0.4;"/>
   </g>
   <g id="patch_195">
    <path clip-path="url(#p7481bc1cc4)" d="M 248.29507 201.521875 
L 249.49235 201.521875 
L 249.49235 201.521875 
L 248.29507 201.521875 
z
" style="fill:#ff7f0e;opacity:0.4;"/>
   </g>
   <g id="patch_196">
    <path clip-path="url(#p7481bc1cc4)" d="M 249.49235 201.521875 
L 250.689631 201.521875 
L 250.689631 201.521875 
L 249.49235 201.521875 
z
" style="fill:#ff7f0e;opacity:0.4;"/>
   </g>
   <g id="patch_197">
    <path clip-path="url(#p7481bc1cc4)" d="M 250.689631 201.521875 
L 251.886912 201.521875 
L 251.886912 201.521875 
L 250.689631 201.521875 
z
" style="fill:#ff7f0e;opacity:0.4;"/>
   </g>
   <g id="patch_198">
    <path clip-path="url(#p7481bc1cc4)" d="M 251.886912 201.521875 
L 253.084192 201.521875 
L 253.084192 201.521875 
L 251.886912 201.521875 
z
" style="fill:#ff7f0e;opacity:0.4;"/>
   </g>
   <g id="patch_199">
    <path clip-path="url(#p7481bc1cc4)" d="M 253.084192 201.521875 
L 254.281473 201.521875 
L 254.281473 201.521875 
L 253.084192 201.521875 
z
" style="fill:#ff7f0e;opacity:0.4;"/>
   </g>
   <g id="patch_200">
    <path clip-path="url(#p7481bc1cc4)" d="M 254.281473 201.521875 
L 255.478754 201.521875 
L 255.478754 201.521875 
L 254.281473 201.521875 
z
" style="fill:#ff7f0e;opacity:0.4;"/>
   </g>
   <g id="patch_201">
    <path clip-path="url(#p7481bc1cc4)" d="M 255.478754 201.521875 
L 256.676034 201.521875 
L 256.676034 201.521875 
L 255.478754 201.521875 
z
" style="fill:#ff7f0e;opacity:0.4;"/>
   </g>
   <g id="patch_202">
    <path clip-path="url(#p7481bc1cc4)" d="M 256.676034 201.521875 
L 257.873315 201.521875 
L 257.873315 191.615956 
L 256.676034 191.615956 
z
" style="fill:#ff7f0e;opacity:0.4;"/>
   </g>
   <g id="matplotlib.axis_1">
    <g id="xtick_1">
     <g id="line2d_1">
      <defs>
       <path d="M 0 0 
L 0 3.5 
" id="m1ab2b87606" style="stroke:#000000;stroke-width:0.8;"/>
      </defs>
      <g>
       <use style="stroke:#000000;stroke-width:0.8;" x="67.50556" xlink:href="#m1ab2b87606" y="201.521875"/>
      </g>
     </g>
     <g id="text_1">
      <!-- 0 -->
      <defs>
       <path d="M 31.78125 66.40625 
Q 24.171875 66.40625 20.328125 58.90625 
Q 16.5 51.421875 16.5 36.375 
Q 16.5 21.390625 20.328125 13.890625 
Q 24.171875 6.390625 31.78125 6.390625 
Q 39.453125 6.390625 43.28125 13.890625 
Q 47.125 21.390625 47.125 36.375 
Q 47.125 51.421875 43.28125 58.90625 
Q 39.453125 66.40625 31.78125 66.40625 
z
M 31.78125 74.21875 
Q 44.046875 74.21875 50.515625 64.515625 
Q 56.984375 54.828125 56.984375 36.375 
Q 56.984375 17.96875 50.515625 8.265625 
Q 44.046875 -1.421875 31.78125 -1.421875 
Q 19.53125 -1.421875 13.0625 8.265625 
Q 6.59375 17.96875 6.59375 36.375 
Q 6.59375 54.828125 13.0625 64.515625 
Q 19.53125 74.21875 31.78125 74.21875 
z
" id="DejaVuSans-30"/>
      </defs>
      <g transform="translate(64.32431 216.120313)scale(0.1 -0.1)">
       <use xlink:href="#DejaVuSans-30"/>
      </g>
     </g>
    </g>
    <g id="xtick_2">
     <g id="line2d_2">
      <g>
       <use style="stroke:#000000;stroke-width:0.8;" x="118.269581" xlink:href="#m1ab2b87606" y="201.521875"/>
      </g>
     </g>
     <g id="text_2">
      <!-- 10 -->
      <defs>
       <path d="M 12.40625 8.296875 
L 28.515625 8.296875 
L 28.515625 63.921875 
L 10.984375 60.40625 
L 10.984375 69.390625 
L 28.421875 72.90625 
L 38.28125 72.90625 
L 38.28125 8.296875 
L 54.390625 8.296875 
L 54.390625 0 
L 12.40625 0 
z
" id="DejaVuSans-31"/>
      </defs>
      <g transform="translate(111.907081 216.120313)scale(0.1 -0.1)">
       <use xlink:href="#DejaVuSans-31"/>
       <use x="63.623047" xlink:href="#DejaVuSans-30"/>
      </g>
     </g>
    </g>
    <g id="xtick_3">
     <g id="line2d_3">
      <g>
       <use style="stroke:#000000;stroke-width:0.8;" x="169.033602" xlink:href="#m1ab2b87606" y="201.521875"/>
      </g>
     </g>
     <g id="text_3">
      <!-- 20 -->
      <defs>
       <path d="M 19.1875 8.296875 
L 53.609375 8.296875 
L 53.609375 0 
L 7.328125 0 
L 7.328125 8.296875 
Q 12.9375 14.109375 22.625 23.890625 
Q 32.328125 33.6875 34.8125 36.53125 
Q 39.546875 41.84375 41.421875 45.53125 
Q 43.3125 49.21875 43.3125 52.78125 
Q 43.3125 58.59375 39.234375 62.25 
Q 35.15625 65.921875 28.609375 65.921875 
Q 23.96875 65.921875 18.8125 64.3125 
Q 13.671875 62.703125 7.8125 59.421875 
L 7.8125 69.390625 
Q 13.765625 71.78125 18.9375 73 
Q 24.125 74.21875 28.421875 74.21875 
Q 39.75 74.21875 46.484375 68.546875 
Q 53.21875 62.890625 53.21875 53.421875 
Q 53.21875 48.921875 51.53125 44.890625 
Q 49.859375 40.875 45.40625 35.40625 
Q 44.1875 33.984375 37.640625 27.21875 
Q 31.109375 20.453125 19.1875 8.296875 
z
" id="DejaVuSans-32"/>
      </defs>
      <g transform="translate(162.671102 216.120313)scale(0.1 -0.1)">
       <use xlink:href="#DejaVuSans-32"/>
       <use x="63.623047" xlink:href="#DejaVuSans-30"/>
      </g>
     </g>
    </g>
    <g id="xtick_4">
     <g id="line2d_4">
      <g>
       <use style="stroke:#000000;stroke-width:0.8;" x="219.797622" xlink:href="#m1ab2b87606" y="201.521875"/>
      </g>
     </g>
     <g id="text_4">
      <!-- 30 -->
      <defs>
       <path d="M 40.578125 39.3125 
Q 47.65625 37.796875 51.625 33 
Q 55.609375 28.21875 55.609375 21.1875 
Q 55.609375 10.40625 48.1875 4.484375 
Q 40.765625 -1.421875 27.09375 -1.421875 
Q 22.515625 -1.421875 17.65625 -0.515625 
Q 12.796875 0.390625 7.625 2.203125 
L 7.625 11.71875 
Q 11.71875 9.328125 16.59375 8.109375 
Q 21.484375 6.890625 26.8125 6.890625 
Q 36.078125 6.890625 40.9375 10.546875 
Q 45.796875 14.203125 45.796875 21.1875 
Q 45.796875 27.640625 41.28125 31.265625 
Q 36.765625 34.90625 28.71875 34.90625 
L 20.21875 34.90625 
L 20.21875 43.015625 
L 29.109375 43.015625 
Q 36.375 43.015625 40.234375 45.921875 
Q 44.09375 48.828125 44.09375 54.296875 
Q 44.09375 59.90625 40.109375 62.90625 
Q 36.140625 65.921875 28.71875 65.921875 
Q 24.65625 65.921875 20.015625 65.03125 
Q 15.375 64.15625 9.8125 62.3125 
L 9.8125 71.09375 
Q 15.4375 72.65625 20.34375 73.4375 
Q 25.25 74.21875 29.59375 74.21875 
Q 40.828125 74.21875 47.359375 69.109375 
Q 53.90625 64.015625 53.90625 55.328125 
Q 53.90625 49.265625 50.4375 45.09375 
Q 46.96875 40.921875 40.578125 39.3125 
z
" id="DejaVuSans-33"/>
      </defs>
      <g transform="translate(213.435122 216.120313)scale(0.1 -0.1)">
       <use xlink:href="#DejaVuSans-33"/>
       <use x="63.623047" xlink:href="#DejaVuSans-30"/>
      </g>
     </g>
    </g>
    <g id="xtick_5">
     <g id="line2d_5">
      <g>
       <use style="stroke:#000000;stroke-width:0.8;" x="270.561643" xlink:href="#m1ab2b87606" y="201.521875"/>
      </g>
     </g>
     <g id="text_5">
      <!-- 40 -->
      <defs>
       <path d="M 37.796875 64.3125 
L 12.890625 25.390625 
L 37.796875 25.390625 
z
M 35.203125 72.90625 
L 47.609375 72.90625 
L 47.609375 25.390625 
L 58.015625 25.390625 
L 58.015625 17.1875 
L 47.609375 17.1875 
L 47.609375 0 
L 37.796875 0 
L 37.796875 17.1875 
L 4.890625 17.1875 
L 4.890625 26.703125 
z
" id="DejaVuSans-34"/>
      </defs>
      <g transform="translate(264.199143 216.120313)scale(0.1 -0.1)">
       <use xlink:href="#DejaVuSans-34"/>
       <use x="63.623047" xlink:href="#DejaVuSans-30"/>
      </g>
     </g>
    </g>
    <g id="xtick_6">
     <g id="line2d_6">
      <g>
       <use style="stroke:#000000;stroke-width:0.8;" x="321.325664" xlink:href="#m1ab2b87606" y="201.521875"/>
      </g>
     </g>
     <g id="text_6">
      <!-- 50 -->
      <defs>
       <path d="M 10.796875 72.90625 
L 49.515625 72.90625 
L 49.515625 64.59375 
L 19.828125 64.59375 
L 19.828125 46.734375 
Q 21.96875 47.46875 24.109375 47.828125 
Q 26.265625 48.1875 28.421875 48.1875 
Q 40.625 48.1875 47.75 41.5 
Q 54.890625 34.8125 54.890625 23.390625 
Q 54.890625 11.625 47.5625 5.09375 
Q 40.234375 -1.421875 26.90625 -1.421875 
Q 22.3125 -1.421875 17.546875 -0.640625 
Q 12.796875 0.140625 7.71875 1.703125 
L 7.71875 11.625 
Q 12.109375 9.234375 16.796875 8.0625 
Q 21.484375 6.890625 26.703125 6.890625 
Q 35.15625 6.890625 40.078125 11.328125 
Q 45.015625 15.765625 45.015625 23.390625 
Q 45.015625 31 40.078125 35.4375 
Q 35.15625 39.890625 26.703125 39.890625 
Q 22.75 39.890625 18.8125 39.015625 
Q 14.890625 38.140625 10.796875 36.28125 
z
" id="DejaVuSans-35"/>
      </defs>
      <g transform="translate(314.963164 216.120313)scale(0.1 -0.1)">
       <use xlink:href="#DejaVuSans-35"/>
       <use x="63.623047" xlink:href="#DejaVuSans-30"/>
      </g>
     </g>
    </g>
    <g id="xtick_7">
     <g id="line2d_7">
      <g>
       <use style="stroke:#000000;stroke-width:0.8;" x="372.089685" xlink:href="#m1ab2b87606" y="201.521875"/>
      </g>
     </g>
     <g id="text_7">
      <!-- 60 -->
      <defs>
       <path d="M 33.015625 40.375 
Q 26.375 40.375 22.484375 35.828125 
Q 18.609375 31.296875 18.609375 23.390625 
Q 18.609375 15.53125 22.484375 10.953125 
Q 26.375 6.390625 33.015625 6.390625 
Q 39.65625 6.390625 43.53125 10.953125 
Q 47.40625 15.53125 47.40625 23.390625 
Q 47.40625 31.296875 43.53125 35.828125 
Q 39.65625 40.375 33.015625 40.375 
z
M 52.59375 71.296875 
L 52.59375 62.3125 
Q 48.875 64.0625 45.09375 64.984375 
Q 41.3125 65.921875 37.59375 65.921875 
Q 27.828125 65.921875 22.671875 59.328125 
Q 17.53125 52.734375 16.796875 39.40625 
Q 19.671875 43.65625 24.015625 45.921875 
Q 28.375 48.1875 33.59375 48.1875 
Q 44.578125 48.1875 50.953125 41.515625 
Q 57.328125 34.859375 57.328125 23.390625 
Q 57.328125 12.15625 50.6875 5.359375 
Q 44.046875 -1.421875 33.015625 -1.421875 
Q 20.359375 -1.421875 13.671875 8.265625 
Q 6.984375 17.96875 6.984375 36.375 
Q 6.984375 53.65625 15.1875 63.9375 
Q 23.390625 74.21875 37.203125 74.21875 
Q 40.921875 74.21875 44.703125 73.484375 
Q 48.484375 72.75 52.59375 71.296875 
z
" id="DejaVuSans-36"/>
      </defs>
      <g transform="translate(365.727185 216.120313)scale(0.1 -0.1)">
       <use xlink:href="#DejaVuSans-36"/>
       <use x="63.623047" xlink:href="#DejaVuSans-30"/>
      </g>
     </g>
    </g>
   </g>
   <g id="matplotlib.axis_2">
    <g id="ytick_1">
     <g id="line2d_8">
      <defs>
       <path d="M 0 0 
L -3.5 0 
" id="m0cec0c75e7" style="stroke:#000000;stroke-width:0.8;"/>
      </defs>
      <g>
       <use style="stroke:#000000;stroke-width:0.8;" x="40.065625" xlink:href="#m0cec0c75e7" y="201.521875"/>
      </g>
     </g>
     <g id="text_8">
      <!-- 0.0 -->
      <defs>
       <path d="M 10.6875 12.40625 
L 21 12.40625 
L 21 0 
L 10.6875 0 
z
" id="DejaVuSans-2e"/>
      </defs>
      <g transform="translate(17.1625 205.321094)scale(0.1 -0.1)">
       <use xlink:href="#DejaVuSans-30"/>
       <use x="63.623047" xlink:href="#DejaVuSans-2e"/>
       <use x="95.410156" xlink:href="#DejaVuSans-30"/>
      </g>
     </g>
    </g>
    <g id="ytick_2">
     <g id="line2d_9">
      <g>
       <use style="stroke:#000000;stroke-width:0.8;" x="40.065625" xlink:href="#m0cec0c75e7" y="176.757077"/>
      </g>
     </g>
     <g id="text_9">
      <!-- 2.5 -->
      <g transform="translate(17.1625 180.556295)scale(0.1 -0.1)">
       <use xlink:href="#DejaVuSans-32"/>
       <use x="63.623047" xlink:href="#DejaVuSans-2e"/>
       <use x="95.410156" xlink:href="#DejaVuSans-35"/>
      </g>
     </g>
    </g>
    <g id="ytick_3">
     <g id="line2d_10">
      <g>
       <use style="stroke:#000000;stroke-width:0.8;" x="40.065625" xlink:href="#m0cec0c75e7" y="151.992278"/>
      </g>
     </g>
     <g id="text_10">
      <!-- 5.0 -->
      <g transform="translate(17.1625 155.791497)scale(0.1 -0.1)">
       <use xlink:href="#DejaVuSans-35"/>
       <use x="63.623047" xlink:href="#DejaVuSans-2e"/>
       <use x="95.410156" xlink:href="#DejaVuSans-30"/>
      </g>
     </g>
    </g>
    <g id="ytick_4">
     <g id="line2d_11">
      <g>
       <use style="stroke:#000000;stroke-width:0.8;" x="40.065625" xlink:href="#m0cec0c75e7" y="127.22748"/>
      </g>
     </g>
     <g id="text_11">
      <!-- 7.5 -->
      <defs>
       <path d="M 8.203125 72.90625 
L 55.078125 72.90625 
L 55.078125 68.703125 
L 28.609375 0 
L 18.3125 0 
L 43.21875 64.59375 
L 8.203125 64.59375 
z
" id="DejaVuSans-37"/>
      </defs>
      <g transform="translate(17.1625 131.026699)scale(0.1 -0.1)">
       <use xlink:href="#DejaVuSans-37"/>
       <use x="63.623047" xlink:href="#DejaVuSans-2e"/>
       <use x="95.410156" xlink:href="#DejaVuSans-35"/>
      </g>
     </g>
    </g>
    <g id="ytick_5">
     <g id="line2d_12">
      <g>
       <use style="stroke:#000000;stroke-width:0.8;" x="40.065625" xlink:href="#m0cec0c75e7" y="102.462682"/>
      </g>
     </g>
     <g id="text_12">
      <!-- 10.0 -->
      <g transform="translate(10.8 106.261901)scale(0.1 -0.1)">
       <use xlink:href="#DejaVuSans-31"/>
       <use x="63.623047" xlink:href="#DejaVuSans-30"/>
       <use x="127.246094" xlink:href="#DejaVuSans-2e"/>
       <use x="159.033203" xlink:href="#DejaVuSans-30"/>
      </g>
     </g>
    </g>
    <g id="ytick_6">
     <g id="line2d_13">
      <g>
       <use style="stroke:#000000;stroke-width:0.8;" x="40.065625" xlink:href="#m0cec0c75e7" y="77.697884"/>
      </g>
     </g>
     <g id="text_13">
      <!-- 12.5 -->
      <g transform="translate(10.8 81.497102)scale(0.1 -0.1)">
       <use xlink:href="#DejaVuSans-31"/>
       <use x="63.623047" xlink:href="#DejaVuSans-32"/>
       <use x="127.246094" xlink:href="#DejaVuSans-2e"/>
       <use x="159.033203" xlink:href="#DejaVuSans-35"/>
      </g>
     </g>
    </g>
    <g id="ytick_7">
     <g id="line2d_14">
      <g>
       <use style="stroke:#000000;stroke-width:0.8;" x="40.065625" xlink:href="#m0cec0c75e7" y="52.933085"/>
      </g>
     </g>
     <g id="text_14">
      <!-- 15.0 -->
      <g transform="translate(10.8 56.732304)scale(0.1 -0.1)">
       <use xlink:href="#DejaVuSans-31"/>
       <use x="63.623047" xlink:href="#DejaVuSans-35"/>
       <use x="127.246094" xlink:href="#DejaVuSans-2e"/>
       <use x="159.033203" xlink:href="#DejaVuSans-30"/>
      </g>
     </g>
    </g>
    <g id="ytick_8">
     <g id="line2d_15">
      <g>
       <use style="stroke:#000000;stroke-width:0.8;" x="40.065625" xlink:href="#m0cec0c75e7" y="28.168287"/>
      </g>
     </g>
     <g id="text_15">
      <!-- 17.5 -->
      <g transform="translate(10.8 31.967506)scale(0.1 -0.1)">
       <use xlink:href="#DejaVuSans-31"/>
       <use x="63.623047" xlink:href="#DejaVuSans-37"/>
       <use x="127.246094" xlink:href="#DejaVuSans-2e"/>
       <use x="159.033203" xlink:href="#DejaVuSans-35"/>
      </g>
     </g>
    </g>
   </g>
   <g id="patch_203">
    <path d="M 40.065625 201.521875 
L 40.065625 14.3 
" style="fill:none;stroke:#000000;stroke-linecap:square;stroke-linejoin:miter;stroke-width:0.8;"/>
   </g>
   <g id="patch_204">
    <path d="M 385.7 201.521875 
L 385.7 14.3 
" style="fill:none;stroke:#000000;stroke-linecap:square;stroke-linejoin:miter;stroke-width:0.8;"/>
   </g>
   <g id="patch_205">
    <path d="M 40.065625 201.521875 
L 385.7 201.521875 
" style="fill:none;stroke:#000000;stroke-linecap:square;stroke-linejoin:miter;stroke-width:0.8;"/>
   </g>
   <g id="patch_206">
    <path d="M 40.065625 14.3 
L 385.7 14.3 
" style="fill:none;stroke:#000000;stroke-linecap:square;stroke-linejoin:miter;stroke-width:0.8;"/>
   </g>
  </g>
 </g>
 <defs>
  <clipPath id="p7481bc1cc4">
   <rect height="187.221875" width="345.634375" x="40.065625" y="14.3"/>
  </clipPath>
 </defs>
</svg>
