<?xml version="1.0" encoding="utf-8" standalone="no"?>
<!DOCTYPE svg PUBLIC "-//W3C//DTD SVG 1.1//EN"
  "http://www.w3.org/Graphics/SVG/1.1/DTD/svg11.dtd">
<!-- Created with matplotlib (http://matplotlib.org/) -->
<svg height="229pt" version="1.1" viewBox="0 0 400 229" width="400pt" xmlns="http://www.w3.org/2000/svg" xmlns:xlink="http://www.w3.org/1999/xlink">
 <defs>
  <style type="text/css">
*{stroke-linecap:butt;stroke-linejoin:round;}
  </style>
 </defs>
 <g id="figure_1">
  <g id="patch_1">
   <path d="M 0 229 
L 400 229 
L 400 0 
L 0 0 
z
" style="fill:#ffffff;"/>
  </g>
  <g id="axes_1">
   <g id="patch_2">
    <path d="M 43.25 201.521875 
L 385.7 201.521875 
L 385.7 14.3 
L 43.25 14.3 
z
" style="fill:#ffffff;"/>
   </g>
   <g id="matplotlib.axis_1">
    <g id="xtick_1">
     <g id="line2d_1">
      <defs>
       <path d="M 0 0 
L 0 3.5 
" id="m131b2703ad" style="stroke:#000000;stroke-width:0.8;"/>
      </defs>
      <g>
       <use style="stroke:#000000;stroke-width:0.8;" x="58.682696" xlink:href="#m131b2703ad" y="201.521875"/>
      </g>
     </g>
     <g id="text_1">
      <!-- 0 -->
      <defs>
       <path d="M 31.78125 66.40625 
Q 24.171875 66.40625 20.328125 58.90625 
Q 16.5 51.421875 16.5 36.375 
Q 16.5 21.390625 20.328125 13.890625 
Q 24.171875 6.390625 31.78125 6.390625 
Q 39.453125 6.390625 43.28125 13.890625 
Q 47.125 21.390625 47.125 36.375 
Q 47.125 51.421875 43.28125 58.90625 
Q 39.453125 66.40625 31.78125 66.40625 
z
M 31.78125 74.21875 
Q 44.046875 74.21875 50.515625 64.515625 
Q 56.984375 54.828125 56.984375 36.375 
Q 56.984375 17.96875 50.515625 8.265625 
Q 44.046875 -1.421875 31.78125 -1.421875 
Q 19.53125 -1.421875 13.0625 8.265625 
Q 6.59375 17.96875 6.59375 36.375 
Q 6.59375 54.828125 13.0625 64.515625 
Q 19.53125 74.21875 31.78125 74.21875 
z
" id="DejaVuSans-30"/>
      </defs>
      <g transform="translate(55.501446 216.120313)scale(0.1 -0.1)">
       <use xlink:href="#DejaVuSans-30"/>
      </g>
     </g>
    </g>
    <g id="xtick_2">
     <g id="line2d_2">
      <g>
       <use style="stroke:#000000;stroke-width:0.8;" x="125.289068" xlink:href="#m131b2703ad" y="201.521875"/>
      </g>
     </g>
     <g id="text_2">
      <!-- 500 -->
      <defs>
       <path d="M 10.796875 72.90625 
L 49.515625 72.90625 
L 49.515625 64.59375 
L 19.828125 64.59375 
L 19.828125 46.734375 
Q 21.96875 47.46875 24.109375 47.828125 
Q 26.265625 48.1875 28.421875 48.1875 
Q 40.625 48.1875 47.75 41.5 
Q 54.890625 34.8125 54.890625 23.390625 
Q 54.890625 11.625 47.5625 5.09375 
Q 40.234375 -1.421875 26.90625 -1.421875 
Q 22.3125 -1.421875 17.546875 -0.640625 
Q 12.796875 0.140625 7.71875 1.703125 
L 7.71875 11.625 
Q 12.109375 9.234375 16.796875 8.0625 
Q 21.484375 6.890625 26.703125 6.890625 
Q 35.15625 6.890625 40.078125 11.328125 
Q 45.015625 15.765625 45.015625 23.390625 
Q 45.015625 31 40.078125 35.4375 
Q 35.15625 39.890625 26.703125 39.890625 
Q 22.75 39.890625 18.8125 39.015625 
Q 14.890625 38.140625 10.796875 36.28125 
z
" id="DejaVuSans-35"/>
      </defs>
      <g transform="translate(115.745318 216.120313)scale(0.1 -0.1)">
       <use xlink:href="#DejaVuSans-35"/>
       <use x="63.623047" xlink:href="#DejaVuSans-30"/>
       <use x="127.246094" xlink:href="#DejaVuSans-30"/>
      </g>
     </g>
    </g>
    <g id="xtick_3">
     <g id="line2d_3">
      <g>
       <use style="stroke:#000000;stroke-width:0.8;" x="191.89544" xlink:href="#m131b2703ad" y="201.521875"/>
      </g>
     </g>
     <g id="text_3">
      <!-- 1000 -->
      <defs>
       <path d="M 12.40625 8.296875 
L 28.515625 8.296875 
L 28.515625 63.921875 
L 10.984375 60.40625 
L 10.984375 69.390625 
L 28.421875 72.90625 
L 38.28125 72.90625 
L 38.28125 8.296875 
L 54.390625 8.296875 
L 54.390625 0 
L 12.40625 0 
z
" id="DejaVuSans-31"/>
      </defs>
      <g transform="translate(179.17044 216.120313)scale(0.1 -0.1)">
       <use xlink:href="#DejaVuSans-31"/>
       <use x="63.623047" xlink:href="#DejaVuSans-30"/>
       <use x="127.246094" xlink:href="#DejaVuSans-30"/>
       <use x="190.869141" xlink:href="#DejaVuSans-30"/>
      </g>
     </g>
    </g>
    <g id="xtick_4">
     <g id="line2d_4">
      <g>
       <use style="stroke:#000000;stroke-width:0.8;" x="258.501812" xlink:href="#m131b2703ad" y="201.521875"/>
      </g>
     </g>
     <g id="text_4">
      <!-- 1500 -->
      <g transform="translate(245.776812 216.120313)scale(0.1 -0.1)">
       <use xlink:href="#DejaVuSans-31"/>
       <use x="63.623047" xlink:href="#DejaVuSans-35"/>
       <use x="127.246094" xlink:href="#DejaVuSans-30"/>
       <use x="190.869141" xlink:href="#DejaVuSans-30"/>
      </g>
     </g>
    </g>
    <g id="xtick_5">
     <g id="line2d_5">
      <g>
       <use style="stroke:#000000;stroke-width:0.8;" x="325.108184" xlink:href="#m131b2703ad" y="201.521875"/>
      </g>
     </g>
     <g id="text_5">
      <!-- 2000 -->
      <defs>
       <path d="M 19.1875 8.296875 
L 53.609375 8.296875 
L 53.609375 0 
L 7.328125 0 
L 7.328125 8.296875 
Q 12.9375 14.109375 22.625 23.890625 
Q 32.328125 33.6875 34.8125 36.53125 
Q 39.546875 41.84375 41.421875 45.53125 
Q 43.3125 49.21875 43.3125 52.78125 
Q 43.3125 58.59375 39.234375 62.25 
Q 35.15625 65.921875 28.609375 65.921875 
Q 23.96875 65.921875 18.8125 64.3125 
Q 13.671875 62.703125 7.8125 59.421875 
L 7.8125 69.390625 
Q 13.765625 71.78125 18.9375 73 
Q 24.125 74.21875 28.421875 74.21875 
Q 39.75 74.21875 46.484375 68.546875 
Q 53.21875 62.890625 53.21875 53.421875 
Q 53.21875 48.921875 51.53125 44.890625 
Q 49.859375 40.875 45.40625 35.40625 
Q 44.1875 33.984375 37.640625 27.21875 
Q 31.109375 20.453125 19.1875 8.296875 
z
" id="DejaVuSans-32"/>
      </defs>
      <g transform="translate(312.383184 216.120313)scale(0.1 -0.1)">
       <use xlink:href="#DejaVuSans-32"/>
       <use x="63.623047" xlink:href="#DejaVuSans-30"/>
       <use x="127.246094" xlink:href="#DejaVuSans-30"/>
       <use x="190.869141" xlink:href="#DejaVuSans-30"/>
      </g>
     </g>
    </g>
   </g>
   <g id="matplotlib.axis_2">
    <g id="ytick_1">
     <g id="line2d_6">
      <defs>
       <path d="M 0 0 
L -3.5 0 
" id="mc53f5fa166" style="stroke:#000000;stroke-width:0.8;"/>
      </defs>
      <g>
       <use style="stroke:#000000;stroke-width:0.8;" x="43.25" xlink:href="#mc53f5fa166" y="198.553763"/>
      </g>
     </g>
     <g id="text_6">
      <!-- 0 -->
      <g transform="translate(29.8875 202.352982)scale(0.1 -0.1)">
       <use xlink:href="#DejaVuSans-30"/>
      </g>
     </g>
    </g>
    <g id="ytick_2">
     <g id="line2d_7">
      <g>
       <use style="stroke:#000000;stroke-width:0.8;" x="43.25" xlink:href="#mc53f5fa166" y="166.912465"/>
      </g>
     </g>
     <g id="text_7">
      <!-- 200 -->
      <g transform="translate(17.1625 170.711684)scale(0.1 -0.1)">
       <use xlink:href="#DejaVuSans-32"/>
       <use x="63.623047" xlink:href="#DejaVuSans-30"/>
       <use x="127.246094" xlink:href="#DejaVuSans-30"/>
      </g>
     </g>
    </g>
    <g id="ytick_3">
     <g id="line2d_8">
      <g>
       <use style="stroke:#000000;stroke-width:0.8;" x="43.25" xlink:href="#mc53f5fa166" y="135.271168"/>
      </g>
     </g>
     <g id="text_8">
      <!-- 400 -->
      <defs>
       <path d="M 37.796875 64.3125 
L 12.890625 25.390625 
L 37.796875 25.390625 
z
M 35.203125 72.90625 
L 47.609375 72.90625 
L 47.609375 25.390625 
L 58.015625 25.390625 
L 58.015625 17.1875 
L 47.609375 17.1875 
L 47.609375 0 
L 37.796875 0 
L 37.796875 17.1875 
L 4.890625 17.1875 
L 4.890625 26.703125 
z
" id="DejaVuSans-34"/>
      </defs>
      <g transform="translate(17.1625 139.070386)scale(0.1 -0.1)">
       <use xlink:href="#DejaVuSans-34"/>
       <use x="63.623047" xlink:href="#DejaVuSans-30"/>
       <use x="127.246094" xlink:href="#DejaVuSans-30"/>
      </g>
     </g>
    </g>
    <g id="ytick_4">
     <g id="line2d_9">
      <g>
       <use style="stroke:#000000;stroke-width:0.8;" x="43.25" xlink:href="#mc53f5fa166" y="103.62987"/>
      </g>
     </g>
     <g id="text_9">
      <!-- 600 -->
      <defs>
       <path d="M 33.015625 40.375 
Q 26.375 40.375 22.484375 35.828125 
Q 18.609375 31.296875 18.609375 23.390625 
Q 18.609375 15.53125 22.484375 10.953125 
Q 26.375 6.390625 33.015625 6.390625 
Q 39.65625 6.390625 43.53125 10.953125 
Q 47.40625 15.53125 47.40625 23.390625 
Q 47.40625 31.296875 43.53125 35.828125 
Q 39.65625 40.375 33.015625 40.375 
z
M 52.59375 71.296875 
L 52.59375 62.3125 
Q 48.875 64.0625 45.09375 64.984375 
Q 41.3125 65.921875 37.59375 65.921875 
Q 27.828125 65.921875 22.671875 59.328125 
Q 17.53125 52.734375 16.796875 39.40625 
Q 19.671875 43.65625 24.015625 45.921875 
Q 28.375 48.1875 33.59375 48.1875 
Q 44.578125 48.1875 50.953125 41.515625 
Q 57.328125 34.859375 57.328125 23.390625 
Q 57.328125 12.15625 50.6875 5.359375 
Q 44.046875 -1.421875 33.015625 -1.421875 
Q 20.359375 -1.421875 13.671875 8.265625 
Q 6.984375 17.96875 6.984375 36.375 
Q 6.984375 53.65625 15.1875 63.9375 
Q 23.390625 74.21875 37.203125 74.21875 
Q 40.921875 74.21875 44.703125 73.484375 
Q 48.484375 72.75 52.59375 71.296875 
z
" id="DejaVuSans-36"/>
      </defs>
      <g transform="translate(17.1625 107.429089)scale(0.1 -0.1)">
       <use xlink:href="#DejaVuSans-36"/>
       <use x="63.623047" xlink:href="#DejaVuSans-30"/>
       <use x="127.246094" xlink:href="#DejaVuSans-30"/>
      </g>
     </g>
    </g>
    <g id="ytick_5">
     <g id="line2d_10">
      <g>
       <use style="stroke:#000000;stroke-width:0.8;" x="43.25" xlink:href="#mc53f5fa166" y="71.988572"/>
      </g>
     </g>
     <g id="text_10">
      <!-- 800 -->
      <defs>
       <path d="M 31.78125 34.625 
Q 24.75 34.625 20.71875 30.859375 
Q 16.703125 27.09375 16.703125 20.515625 
Q 16.703125 13.921875 20.71875 10.15625 
Q 24.75 6.390625 31.78125 6.390625 
Q 38.8125 6.390625 42.859375 10.171875 
Q 46.921875 13.96875 46.921875 20.515625 
Q 46.921875 27.09375 42.890625 30.859375 
Q 38.875 34.625 31.78125 34.625 
z
M 21.921875 38.8125 
Q 15.578125 40.375 12.03125 44.71875 
Q 8.5 49.078125 8.5 55.328125 
Q 8.5 64.0625 14.71875 69.140625 
Q 20.953125 74.21875 31.78125 74.21875 
Q 42.671875 74.21875 48.875 69.140625 
Q 55.078125 64.0625 55.078125 55.328125 
Q 55.078125 49.078125 51.53125 44.71875 
Q 48 40.375 41.703125 38.8125 
Q 48.828125 37.15625 52.796875 32.3125 
Q 56.78125 27.484375 56.78125 20.515625 
Q 56.78125 9.90625 50.3125 4.234375 
Q 43.84375 -1.421875 31.78125 -1.421875 
Q 19.734375 -1.421875 13.25 4.234375 
Q 6.78125 9.90625 6.78125 20.515625 
Q 6.78125 27.484375 10.78125 32.3125 
Q 14.796875 37.15625 21.921875 38.8125 
z
M 18.3125 54.390625 
Q 18.3125 48.734375 21.84375 45.5625 
Q 25.390625 42.390625 31.78125 42.390625 
Q 38.140625 42.390625 41.71875 45.5625 
Q 45.3125 48.734375 45.3125 54.390625 
Q 45.3125 60.0625 41.71875 63.234375 
Q 38.140625 66.40625 31.78125 66.40625 
Q 25.390625 66.40625 21.84375 63.234375 
Q 18.3125 60.0625 18.3125 54.390625 
z
" id="DejaVuSans-38"/>
      </defs>
      <g transform="translate(17.1625 75.787791)scale(0.1 -0.1)">
       <use xlink:href="#DejaVuSans-38"/>
       <use x="63.623047" xlink:href="#DejaVuSans-30"/>
       <use x="127.246094" xlink:href="#DejaVuSans-30"/>
      </g>
     </g>
    </g>
    <g id="ytick_6">
     <g id="line2d_11">
      <g>
       <use style="stroke:#000000;stroke-width:0.8;" x="43.25" xlink:href="#mc53f5fa166" y="40.347274"/>
      </g>
     </g>
     <g id="text_11">
      <!-- 1000 -->
      <g transform="translate(10.8 44.146493)scale(0.1 -0.1)">
       <use xlink:href="#DejaVuSans-31"/>
       <use x="63.623047" xlink:href="#DejaVuSans-30"/>
       <use x="127.246094" xlink:href="#DejaVuSans-30"/>
       <use x="190.869141" xlink:href="#DejaVuSans-30"/>
      </g>
     </g>
    </g>
   </g>
   <g id="line2d_12">
    <path clip-path="url(#p59cf9aa1ff)" d="M 58.815909 186.099748 
L 58.949122 186.164613 
L 59.082335 186.533234 
L 59.215547 186.180434 
L 59.34876 186.180434 
L 59.615186 186.569622 
L 59.748398 186.57595 
L 59.881611 186.038048 
L 60.148037 186.379774 
L 60.281249 185.816559 
L 60.414462 184.617353 
L 60.680888 184.838843 
L 60.8141 184.626846 
L 60.947313 184.884722 
L 61.213738 185.693158 
L 61.480164 185.381491 
L 61.613377 185.065078 
L 61.879802 185.618801 
L 62.013015 185.623547 
L 62.146228 185.356178 
L 62.27944 185.769097 
L 62.412653 185.674173 
L 62.545866 185.775425 
L 62.679079 186.208911 
L 62.945504 185.713724 
L 63.21193 186.412997 
L 63.345142 185.974765 
L 63.611568 186.318073 
L 63.744781 186.098166 
L 63.877993 187.235671 
L 64.144419 185.739037 
L 64.410844 187.200865 
L 64.544057 187.485637 
L 64.67727 187.150239 
L 64.810483 187.368564 
L 64.943695 188.531382 
L 65.076908 187.042659 
L 65.343334 187.896974 
L 65.476546 187.953928 
L 65.609759 188.233954 
L 65.742972 189.295519 
L 65.876185 188.900003 
L 66.009397 189.6942 
L 66.14261 189.654648 
L 66.275823 188.741797 
L 66.542248 190.845943 
L 66.941886 190.173565 
L 67.075099 190.607051 
L 67.60795 190.709885 
L 67.741163 189.687871 
L 67.874376 189.553396 
L 68.274014 189.730587 
L 68.407227 189.306594 
L 68.673652 191.083253 
L 68.806865 190.768422 
L 68.940078 190.887077 
L 69.07329 191.228803 
L 69.206503 191.978701 
L 69.339716 191.445546 
L 69.606141 192.274548 
L 69.739354 192.472306 
L 70.00578 193.01179 
L 70.538631 191.599006 
L 70.805056 192.151146 
L 70.938269 192.037238 
L 71.204694 191.067432 
L 71.337907 190.918718 
L 71.47112 190.420367 
L 71.604332 190.445681 
L 71.870758 190.9203 
L 72.003971 190.445681 
L 72.137183 190.825376 
L 72.403609 190.140342 
L 72.803247 190.668752 
L 73.069673 190.415621 
L 73.202885 190.361831 
L 73.336098 190.738363 
L 74.002162 189.479039 
L 74.135375 189.662558 
L 74.268587 189.51068 
L 74.4018 189.771721 
L 74.535013 190.339682 
L 74.668226 190.414039 
L 74.801438 190.88233 
L 74.934651 190.415621 
L 75.067864 190.39189 
L 75.201077 190.890241 
L 75.334289 190.558007 
L 75.467502 190.652931 
L 75.600715 190.543769 
L 75.86714 190.890241 
L 76.000353 190.586484 
L 76.133566 190.643439 
L 76.399991 188.879436 
L 76.533204 188.493412 
L 76.666417 188.893675 
L 77.066055 187.999808 
L 77.199268 188.53771 
L 77.33248 188.372543 
L 77.598906 188.545621 
L 77.732119 188.797169 
L 77.865331 188.689589 
L 77.998544 188.752871 
L 78.131757 188.450697 
L 78.26497 188.790841 
L 78.398182 188.175417 
L 78.664608 188.691171 
L 78.797821 188.303565 
L 78.931033 188.746543 
L 79.064246 188.792423 
L 79.197459 188.300401 
L 79.330672 188.306729 
L 79.597097 188.983853 
L 79.863523 187.71029 
L 79.996735 187.545756 
L 80.263161 187.957092 
L 80.396374 187.26573 
L 80.529586 187.281551 
L 80.796012 187.485637 
L 80.929225 186.596517 
L 81.19565 187.099613 
L 81.328863 186.895527 
L 81.462076 187.397041 
L 81.595288 187.251492 
L 81.728501 186.935079 
L 81.861714 186.925586 
L 82.128139 186.186762 
L 82.261352 186.215239 
L 82.394565 186.607591 
L 82.66099 185.933631 
L 82.794203 186.064943 
L 83.060628 186.734156 
L 83.327054 186.205747 
L 83.460267 186.281686 
L 83.859905 185.800738 
L 83.993118 185.191643 
L 84.392756 185.930467 
L 84.525969 185.814977 
L 84.659181 186.061779 
L 84.792394 185.933631 
L 84.925607 185.596652 
L 85.05882 185.582413 
L 85.325245 186.221567 
L 85.458458 186.117151 
L 85.591671 186.224731 
L 85.724883 186.816424 
L 85.858096 186.670874 
L 85.991309 186.909766 
L 86.257734 186.234224 
L 86.390947 186.218403 
L 86.657373 186.587024 
L 86.790585 186.151956 
L 86.923798 186.356043 
L 87.190223 186.215239 
L 87.456649 185.117286 
L 87.856287 184.701203 
L 87.9895 184.891051 
L 88.122713 184.777142 
L 88.389138 184.997049 
L 88.788776 185.5571 
L 88.921989 185.477997 
L 89.055202 185.644905 
L 89.188415 185.428953 
L 89.45484 186.264283 
L 89.854478 185.283403 
L 89.987691 185.417878 
L 90.120904 185.318208 
L 90.653755 186.588606 
L 90.92018 186.197836 
L 91.053393 186.272193 
L 91.186606 185.66468 
L 91.319819 185.588741 
L 91.586244 184.930602 
L 91.719457 184.971736 
L 91.985882 184.471804 
L 92.119095 184.506609 
L 92.252308 183.70292 
L 92.518733 185.226448 
L 92.651946 185.109376 
L 92.785159 185.210628 
L 92.918371 184.933766 
L 93.051584 184.985975 
L 93.184797 184.720188 
L 93.451222 185.218538 
L 93.850861 185.194807 
L 93.984073 185.334029 
L 94.117286 184.954333 
L 94.516924 185.729545 
L 95.049775 185.106212 
L 95.449414 185.264418 
L 95.582626 185.215374 
L 96.115477 186.191508 
L 96.381903 186.076017 
L 96.781541 185.288149 
L 96.914754 185.178987 
L 97.181179 185.335611 
L 97.314392 184.204435 
L 97.71403 184.226583 
L 97.847243 183.721905 
L 98.246881 184.232912 
L 98.380094 183.965543 
L 98.513307 184.043064 
L 98.646519 183.783605 
L 98.912945 184.33891 
L 99.046158 184.525594 
L 99.579009 183.41182 
L 99.712221 183.745636 
L 99.845434 183.551042 
L 99.978647 183.134959 
L 100.245072 183.473521 
L 100.378285 183.574773 
L 100.511498 183.527311 
L 100.644711 183.774113 
L 100.777923 183.769367 
L 101.044349 178.834922 
L 101.310774 179.309526 
L 101.443987 179.161286 
L 101.5772 179.75725 
L 101.843625 179.826861 
L 101.976838 180.027783 
L 102.509689 177.963189 
L 102.642902 178.001158 
L 102.776114 177.90307 
L 102.909327 177.517046 
L 103.175753 177.789161 
L 103.308965 177.782833 
L 103.442178 178.146708 
L 103.575391 178.04071 
L 103.708604 177.5123 
L 103.841816 177.521792 
L 103.975029 177.349347 
L 104.108242 177.71164 
L 104.50788 176.04889 
L 104.641093 176.219753 
L 104.907518 177.32087 
L 105.040731 177.336691 
L 105.173944 177.779669 
L 105.307157 177.135769 
L 105.440369 177.330363 
L 105.706795 177.950532 
L 105.97322 178.475778 
L 106.106433 178.227393 
L 106.506071 176.572554 
L 106.639284 176.646911 
L 106.90571 176.498196 
L 107.172135 177.271826 
L 107.305348 177.369914 
L 107.438561 177.244931 
L 107.704986 177.98692 
L 107.838199 177.430033 
L 108.104624 178.406167 
L 108.237837 178.127723 
L 108.504262 178.43939 
L 108.637475 178.365033 
L 108.770688 178.654551 
L 108.903901 178.521657 
L 109.170326 179.51994 
L 109.303539 179.651252 
L 109.569964 178.614999 
L 109.703177 178.713087 
L 109.83639 179.747758 
L 109.969603 179.866413 
L 110.102815 179.71137 
L 110.236028 180.211303 
L 110.369241 179.981903 
L 110.502454 180.070499 
L 110.635666 179.880651 
L 110.768879 179.98665 
L 110.902092 179.554746 
L 111.035305 179.622775 
L 111.30173 180.152766 
L 111.434943 179.872741 
L 111.568156 179.961337 
L 111.701368 179.883815 
L 111.834581 180.005634 
L 111.967794 179.613282 
L 112.101007 179.853756 
L 112.234219 179.822115 
L 112.500645 178.694103 
L 112.633858 178.637148 
L 112.900283 178.159365 
L 113.033496 177.969517 
L 113.166708 178.173603 
L 113.433134 177.42054 
L 113.699559 177.808146 
L 113.832772 177.70373 
L 113.965985 177.774923 
L 114.099198 177.55027 
L 114.23241 177.931547 
L 114.365623 177.912563 
L 114.632049 178.297004 
L 114.765261 177.238603 
L 115.031687 177.176902 
L 115.1649 176.946079 
L 115.298112 177.074068 
L 115.431325 177.700566 
L 115.564538 177.751192 
L 115.697751 177.107291 
L 115.830963 177.216454 
L 115.964176 176.252976 
L 116.097389 176.395362 
L 116.230602 176.215007 
L 116.363814 176.379542 
L 116.63024 175.484093 
L 116.763453 176.061388 
L 116.896665 176.020413 
L 117.163091 175.387587 
L 117.296304 174.808551 
L 117.429516 175.830565 
L 117.562729 175.280007 
L 117.829155 176.507689 
L 117.962367 176.131157 
L 118.09558 176.863653 
L 118.228793 176.801953 
L 118.362005 178.013815 
L 118.495218 177.839788 
L 118.761644 178.781116 
L 118.894856 177.782833 
L 119.028069 177.914145 
L 119.161282 177.37466 
L 119.427707 178.219008 
L 119.56092 178.159365 
L 119.960558 179.614864 
L 120.093771 179.138663 
L 120.226984 179.233587 
L 120.360197 178.800101 
L 120.493409 179.061142 
L 120.626622 178.509001 
L 120.893048 179.056395 
L 121.159473 178.183096 
L 121.292686 179.130752 
L 121.425899 179.250989 
L 121.692324 179.899636 
L 121.825537 179.061142 
L 121.95875 179.089619 
L 122.091962 178.963054 
L 122.225175 178.486852 
L 122.358388 178.47736 
L 122.624813 178.646641 
L 122.758026 179.165558 
L 123.024452 179.339585 
L 123.157664 179.833189 
L 123.290877 179.410778 
L 123.42409 179.917039 
L 123.557302 181.370956 
L 123.690515 181.268122 
L 123.823728 180.999171 
L 123.956941 181.287107 
L 124.090153 181.141557 
L 124.356579 180.167005 
L 124.489792 180.00247 
L 124.756217 178.991531 
L 124.88943 179.046903 
L 125.022643 179.243079 
L 125.155855 179.807876 
L 125.422281 179.553164 
L 125.555494 179.975575 
L 125.688706 179.55791 
L 126.088345 180.023037 
L 126.35477 180.065753 
L 126.487983 179.9028 
L 126.754408 179.186125 
L 126.887621 178.369779 
L 127.287259 178.172021 
L 127.420472 177.98692 
L 127.553685 178.637148 
L 127.686898 178.53115 
L 127.82011 178.826996 
L 127.953323 178.608671 
L 128.219749 178.042292 
L 128.352961 178.371361 
L 128.486174 178.341302 
L 128.752599 178.852309 
L 128.885812 178.48527 
L 129.019025 178.800101 
L 129.152238 178.518493 
L 129.28545 178.969382 
L 129.418663 178.804847 
L 129.685089 177.162664 
L 129.818301 176.596285 
L 129.951514 176.844669 
L 130.617578 175.495167 
L 130.750791 175.542629 
L 130.884003 175.118636 
L 131.017216 175.087786 
L 131.150429 174.616362 
L 131.283642 174.707299 
L 131.550067 174.371901 
L 131.68328 173.125234 
L 131.816493 173.340395 
L 131.949705 173.288187 
L 132.082918 173.400513 
L 132.349344 174.235844 
L 132.482556 173.970057 
L 132.615769 173.103085 
L 132.748982 173.968475 
L 132.882195 173.830835 
L 133.015407 173.944744 
L 133.14862 174.343424 
L 133.281833 173.797612 
L 133.415046 174.004862 
L 133.548258 173.947908 
L 133.681471 172.506647 
L 133.814684 172.67751 
L 133.947896 173.45114 
L 134.081109 173.45114 
L 134.347535 171.7963 
L 134.480747 171.816866 
L 134.61396 171.66657 
L 134.880386 172.158593 
L 135.146811 172.832552 
L 135.812875 171.343829 
L 135.946088 171.615944 
L 136.0793 171.131832 
L 136.345726 172.342112 
L 136.612151 173.591943 
L 136.745364 173.501766 
L 136.878577 172.581004 
L 137.01179 172.47817 
L 137.145002 171.596959 
L 137.278215 171.943432 
L 137.411428 170.511663 
L 137.544641 170.519573 
L 137.677853 170.15728 
L 137.811066 170.804345 
L 138.077492 170.625572 
L 138.210704 170.760047 
L 138.343917 170.385098 
L 138.743555 170.891359 
L 138.876768 170.76954 
L 139.143193 171.035326 
L 139.409619 170.38668 
L 139.542832 170.459455 
L 139.809257 169.325114 
L 139.94247 169.323532 
L 140.208895 169.738033 
L 140.342108 169.90415 
L 140.475321 169.543439 
L 140.608534 169.641527 
L 140.741746 170.076595 
L 141.008172 169.283981 
L 141.141385 168.902703 
L 141.40781 169.208042 
L 141.674236 169.389979 
L 141.807448 169.431113 
L 141.940661 169.201713 
L 142.207087 168.296772 
L 142.739938 170.574946 
L 142.87315 170.598677 
L 143.006363 170.805927 
L 143.139576 169.372576 
L 143.272789 171.478305 
L 143.406001 171.715614 
L 143.672427 171.100191 
L 143.80564 171.071714 
L 144.072065 170.641392 
L 144.33849 169.238101 
L 144.471703 169.094133 
L 144.738129 168.428084 
L 145.004554 169.029268 
L 145.137767 168.848913 
L 145.27098 169.048253 
L 145.537405 170.601841 
L 145.670618 170.43256 
L 145.803831 170.513245 
L 146.070256 171.747256 
L 146.336682 171.217264 
L 146.469894 171.394455 
L 146.73632 172.150682 
L 146.869533 171.808956 
L 147.002745 172.269337 
L 147.135958 171.963999 
L 147.535596 172.497154 
L 147.668809 173.087265 
L 147.802022 172.952789 
L 147.935235 172.524841 
L 148.068447 172.829388 
L 148.20166 172.399066 
L 148.334873 171.484633 
L 148.468086 171.503618 
L 148.601298 171.761494 
L 148.867724 170.168355 
L 149.134149 170.056028 
L 149.400575 169.239683 
L 149.533787 169.639945 
L 149.667 169.299801 
L 149.933426 169.437441 
L 150.066638 170.000656 
L 150.199851 169.714302 
L 150.333064 169.788659 
L 150.599489 170.339218 
L 150.732702 170.263279 
L 150.999128 169.144759 
L 151.13234 169.219116 
L 151.265553 169.71272 
L 151.398766 167.445621 
L 151.531979 167.692423 
L 151.665191 167.575351 
L 151.798404 166.7242 
L 151.931617 167.157685 
L 152.06483 166.917212 
L 152.198042 167.369682 
L 152.331255 167.292161 
L 152.597681 166.289132 
L 152.730893 166.219521 
L 152.864106 165.952152 
L 152.997319 166.507457 
L 153.130532 168.097432 
L 153.53017 167.101522 
L 153.663383 167.126044 
L 154.063021 168.136984 
L 154.196234 167.703498 
L 154.329446 167.841137 
L 154.462659 167.436129 
L 154.595872 168.115626 
L 154.729084 167.917077 
L 154.99551 169.1764 
L 155.395148 168.545156 
L 155.528361 169.043507 
L 155.661574 169.081476 
L 155.794786 168.500858 
L 156.061212 169.499141 
L 156.327637 168.855241 
L 156.46085 167.825317 
L 156.594063 168.236654 
L 156.727276 167.836391 
L 156.860488 168.091104 
L 156.993701 166.714707 
L 157.393339 166.202118 
L 157.659765 164.825722 
L 157.792978 164.667515 
L 158.059403 164.020451 
L 158.325829 165.135806 
L 158.459041 164.776678 
L 158.592254 165.270282 
L 158.725467 164.876348 
L 158.85868 165.088345 
L 158.991892 164.055256 
L 159.258318 164.822558 
L 159.391531 164.298894 
L 159.524743 164.77826 
L 159.657956 164.669097 
L 159.924381 163.13133 
L 160.190807 163.539503 
L 160.457232 165.336729 
L 160.590445 166.67832 
L 160.723658 166.485308 
L 160.856871 167.909166 
L 160.990083 166.107194 
L 161.123296 167.841137 
L 161.389722 166.54859 
L 161.522934 166.445756 
L 161.78936 167.556366 
L 162.055785 170.245876 
L 162.188998 170.465783 
L 162.322211 167.932897 
L 162.455424 167.90442 
L 162.588636 168.173371 
L 163.121487 164.502981 
L 163.387913 165.3304 
L 163.654338 163.764156 
L 163.787551 164.181821 
L 163.920764 165.110493 
L 164.320402 163.341745 
L 164.453615 162.675696 
L 164.72004 160.316837 
L 165.119678 163.237329 
L 165.252891 163.17721 
L 165.386104 162.190002 
L 165.519317 163.082286 
L 165.652529 162.212151 
L 166.052168 165.017152 
L 166.18538 164.934884 
L 166.451806 163.509444 
L 166.585019 162.998437 
L 166.851444 161.299299 
L 166.984657 161.088885 
L 167.11787 161.193301 
L 167.251082 159.52264 
L 167.384295 160.215585 
L 167.517508 159.970365 
L 167.650721 161.924215 
L 168.050359 160.962319 
L 168.183572 162.617159 
L 168.316784 167.165596 
L 168.58321 164.172329 
L 168.849635 164.997376 
L 169.116061 164.018869 
L 169.249274 164.305222 
L 169.515699 164.066331 
L 169.648912 165.137389 
L 169.782125 165.205417 
L 170.04855 163.917617 
L 170.181763 164.091644 
L 170.581401 167.364936 
L 170.714614 168.613185 
L 170.847826 168.124327 
L 170.981039 168.654319 
L 171.114252 169.697058 
L 171.247465 167.837973 
L 171.380677 168.749243 
L 171.647103 167.366518 
L 171.780316 167.540545 
L 171.913528 167.507322 
L 172.046741 168.179699 
L 172.179954 167.652872 
L 172.313167 168.418591 
L 172.446379 168.015165 
L 172.579592 168.570469 
L 172.712805 169.99591 
L 172.846018 170.043372 
L 173.112443 169.877255 
L 173.245656 170.182593 
L 173.378869 169.677915 
L 173.512081 170.970462 
L 173.645294 170.230055 
L 174.044932 171.043237 
L 174.178145 171.047983 
L 174.311358 171.16822 
L 174.444571 170.230055 
L 174.577783 170.470529 
L 174.710996 170.454709 
L 174.844209 169.663676 
L 174.977422 170.304412 
L 175.110634 170.181011 
L 175.243847 170.250622 
L 175.37706 170.720496 
L 175.643485 169.813972 
L 175.909911 167.790511 
L 176.176336 169.113118 
L 176.442762 168.842585 
L 176.709187 167.644961 
L 176.8424 168.154386 
L 176.975613 167.792093 
L 177.108825 170.162027 
L 177.242038 169.80448 
L 177.375251 168.861569 
L 177.508464 169.579827 
L 177.774889 169.209624 
L 177.908102 169.288727 
L 178.041315 169.200131 
L 178.174527 168.242982 
L 178.30774 168.288862 
L 178.574166 170.08767 
L 178.707378 169.681079 
L 178.840591 169.719048 
L 179.107017 170.252204 
L 179.240229 170.214235 
L 179.373442 170.309159 
L 179.506655 169.47541 
L 179.639868 170.125639 
L 179.77308 170.070267 
L 179.906293 170.18734 
L 180.172719 169.90415 
L 180.439144 168.867898 
L 180.705569 169.540275 
L 180.838782 169.350427 
L 180.971995 169.719048 
L 181.23842 169.277652 
L 181.371633 169.203295 
L 181.504846 168.125909 
L 181.638059 168.220833 
L 181.771271 168.114835 
L 181.904484 167.69717 
L 182.17091 166.051822 
L 182.304122 166.728946 
L 182.437335 166.183133 
L 182.570548 166.515367 
L 182.703761 167.220968 
L 182.836973 166.966256 
L 182.970186 167.863286 
L 183.103399 167.800004 
L 183.236612 168.198684 
L 183.369824 168.972314 
L 183.503037 168.815689 
L 183.63625 168.385368 
L 183.902675 169.206459 
L 184.169101 168.325249 
L 184.302314 168.320503 
L 184.568739 168.772974 
L 184.701952 168.442322 
L 184.968377 167.546873 
L 185.10159 162.664621 
L 185.234803 161.865678 
L 185.368016 162.159942 
L 185.501228 162.126719 
L 185.634441 162.253284 
L 185.767654 163.117092 
L 185.900866 162.93199 
L 186.167292 163.27688 
L 186.433717 162.53331 
L 186.56693 163.284791 
L 186.700143 163.053809 
L 186.833356 163.106017 
L 187.099781 164.721305 
L 187.232994 164.047346 
L 187.366207 164.48716 
L 187.499419 164.178657 
L 187.765845 164.873184 
L 187.899058 164.57892 
L 188.03227 165.452219 
L 188.165483 164.87002 
L 188.298696 165.612008 
L 188.431909 164.607397 
L 188.565121 164.822558 
L 188.831547 163.938183 
L 188.96476 163.988809 
L 189.097972 164.302058 
L 189.231185 164.314715 
L 189.497611 164.626382 
L 189.897249 163.110763 
L 190.030462 163.270552 
L 190.163674 163.657367 
L 190.296887 163.40661 
L 190.4301 163.737261 
L 190.563313 162.860797 
L 190.696525 162.859215 
L 190.829738 163.541085 
L 190.962951 162.427311 
L 191.229376 162.240628 
L 191.495802 162.949393 
L 191.629014 162.949393 
L 191.89544 164.006212 
L 192.028653 164.482414 
L 192.161865 164.003048 
L 192.295078 164.379579 
L 192.561504 164.148598 
L 192.827929 162.436804 
L 193.094355 163.267388 
L 193.227567 164.215045 
L 193.36078 163.746754 
L 193.493993 161.008199 
L 193.627206 161.202793 
L 193.893631 161.835619 
L 194.026844 162.038123 
L 194.160057 161.379984 
L 194.293269 161.535027 
L 194.426482 161.128436 
L 194.692908 161.523952 
L 194.959333 161.780247 
L 195.092546 161.661592 
L 195.358971 160.338986 
L 195.625397 160.528834 
L 195.75861 160.671219 
L 195.891822 160.093766 
L 196.025035 160.394674 
L 196.158248 159.676101 
L 196.29146 159.964036 
L 196.557886 159.457776 
L 196.691099 159.600161 
L 196.824311 159.275838 
L 196.957524 159.337539 
L 197.090737 159.600161 
L 197.357162 157.556134 
L 197.623588 158.10511 
L 197.756801 158.111438 
L 198.023226 157.219154 
L 198.156439 157.736489 
L 198.289652 157.617834 
L 198.422864 157.154289 
L 198.556077 157.291929 
L 199.088928 159.054349 
L 199.222141 157.95956 
L 199.621779 158.907217 
L 199.888205 157.345719 
L 200.021417 157.655804 
L 200.15463 157.56879 
L 200.421056 159.794755 
L 200.554268 159.916574 
L 200.687481 160.210838 
L 200.820694 159.922903 
L 200.953907 159.960872 
L 201.087119 159.399239 
L 201.353545 160.584206 
L 201.486757 161.56825 
L 201.61997 161.484401 
L 201.886396 163.286373 
L 202.019608 160.862649 
L 202.152821 161.708564 
L 202.286034 161.827709 
L 202.419247 161.783031 
L 202.685672 160.97023 
L 202.952098 162.585518 
L 203.08531 162.750053 
L 203.351736 162.704173 
L 203.618161 163.65357 
L 204.284225 160.603191 
L 204.417438 160.011498 
L 204.550651 160.046035 
L 204.950289 158.677818 
L 205.083502 158.950075 
L 205.349927 158.375643 
L 205.616353 158.485106 
L 205.749565 159.354941 
L 206.015991 158.723698 
L 206.149204 158.804383 
L 206.282416 159.130288 
L 206.548842 157.356793 
L 206.682054 157.738071 
L 206.815267 157.182766 
L 206.94848 157.907352 
L 207.081693 157.638401 
L 207.214905 159.218662 
L 207.348118 159.26951 
L 207.481331 159.764696 
L 207.880969 157.66055 
L 208.014182 157.554552 
L 208.147395 156.081776 
L 208.280607 156.410719 
L 208.41382 156.415465 
L 208.547033 156.575253 
L 208.813458 155.406107 
L 208.946671 155.537419 
L 209.079884 156.007292 
L 209.346309 155.502613 
L 209.612735 156.137021 
L 209.745948 155.265304 
L 209.87916 153.624702 
L 210.012373 154.882444 
L 210.145586 157.364704 
L 210.278799 155.400728 
L 210.412011 156.54994 
L 210.545224 156.629044 
L 210.678437 157.42324 
L 210.81165 156.330033 
L 211.078075 157.383689 
L 211.211288 157.111573 
L 211.344501 157.861472 
L 211.477713 157.625744 
L 211.610926 155.921861 
L 211.744139 155.958248 
L 211.877351 156.614805 
L 212.010564 155.877563 
L 212.27699 156.480329 
L 212.410202 156.562597 
L 212.543415 157.440643 
L 212.676628 157.521328 
L 212.943053 156.744534 
L 213.076266 156.511971 
L 213.342692 154.953637 
L 213.475904 155.238409 
L 213.74233 155.175126 
L 213.875543 155.641835 
L 214.141968 155.031158 
L 214.408394 157.13214 
L 214.674819 157.988037 
L 214.808032 157.850714 
L 214.941245 158.465821 
L 215.074457 157.776041 
L 215.20767 158.049738 
L 215.607308 156.393316 
L 215.740521 157.165364 
L 215.873734 156.894514 
L 216.006947 157.573536 
L 216.140159 157.565626 
L 216.273372 158.135169 
L 216.939436 155.383959 
L 217.072649 156.198722 
L 217.205861 155.467808 
L 217.472287 157.511836 
L 217.605499 157.36945 
L 218.13835 155.094441 
L 218.404776 159.043275 
L 218.537989 158.399374 
L 218.671201 159.282166 
L 218.937627 157.728579 
L 219.07084 158.0972 
L 219.870116 156.102216 
L 220.136542 156.768265 
L 220.269754 155.853832 
L 220.402967 156.212961 
L 220.53618 156.018367 
L 220.802605 157.135304 
L 220.935818 157.144797 
L 221.069031 156.266751 
L 221.202244 156.545194 
L 221.468669 155.964576 
L 221.735095 156.518299 
L 222.00152 156.181319 
L 222.267946 154.086665 
L 222.534371 155.573806 
L 222.667584 154.921996 
L 222.800796 155.206767 
L 223.067222 153.977503 
L 223.46686 155.306437 
L 223.600073 155.741505 
L 223.733286 155.507676 
L 223.866498 154.640388 
L 224.132924 154.621403 
L 224.399349 153.665836 
L 224.532562 153.618374 
L 224.665775 153.325692 
L 224.9322 152.431825 
L 225.065413 152.30526 
L 225.331839 149.897358 
L 225.465051 150.0524 
L 225.598264 150.004938 
L 225.731477 149.717002 
L 225.86469 150.441588 
L 225.997902 150.264397 
L 226.397541 151.259515 
L 226.530753 150.553914 
L 226.663966 149.191757 
L 226.930392 150.710539 
L 227.063604 150.898805 
L 227.196817 150.210606 
L 227.33003 150.425767 
L 227.463243 150.935192 
L 227.596455 150.973162 
L 227.862881 151.765776 
L 227.996093 151.525302 
L 228.129306 151.61548 
L 228.662157 153.493391 
L 228.928583 153.134262 
L 229.061795 153.532943 
L 229.195008 152.716597 
L 229.328221 152.672299 
L 229.594646 154.108814 
L 229.727859 154.00598 
L 229.861072 153.626284 
L 229.994285 154.100904 
L 230.26071 152.09801 
L 230.393923 152.025235 
L 230.527136 151.746791 
L 230.793561 151.034862 
L 231.193199 151.420886 
L 231.326412 151.71515 
L 231.592838 149.18796 
L 231.72605 149.183846 
L 231.859263 148.506722 
L 231.992476 149.274024 
L 232.125689 148.856359 
L 232.258901 149.090504 
L 232.392114 148.225115 
L 232.65854 149.092086 
L 232.791752 147.777391 
L 232.924965 147.847001 
L 233.058178 148.756689 
L 233.19139 148.079565 
L 233.591029 151.371842 
L 233.857454 149.369106 
L 233.990667 149.399007 
L 234.12388 150.079295 
L 234.257092 149.43223 
L 234.390305 149.387933 
L 234.523518 146.514745 
L 234.656731 146.908837 
L 234.789943 145.943777 
L 234.923156 146.858844 
L 235.056369 145.995985 
L 235.189582 141.063107 
L 235.322794 141.890527 
L 235.456007 141.17227 
L 235.58922 141.428564 
L 235.722433 140.961855 
L 235.855645 141.757317 
L 236.122071 141.77472 
L 236.255284 142.203776 
L 236.388496 144.200342 
L 236.654922 142.488864 
L 236.788135 143.255849 
L 237.187773 140.148674 
L 237.587411 141.192837 
L 237.987049 138.966871 
L 238.386687 136.280525 
L 238.5199 136.489358 
L 238.653113 137.698055 
L 238.786326 137.492387 
L 238.919538 137.72495 
L 239.052751 137.335762 
L 239.185964 137.661668 
L 239.319177 137.204451 
L 239.585602 138.237539 
L 239.852028 137.016185 
L 239.98524 137.225018 
L 240.118453 135.910322 
L 240.251666 136.032141 
L 240.384879 134.923113 
L 240.518091 134.809205 
L 240.651304 135.397733 
L 240.784517 134.576641 
L 241.050942 136.320077 
L 241.184155 135.462597 
L 241.450581 135.834383 
L 241.583793 136.278943 
L 241.850219 134.967411 
L 241.983432 135.111379 
L 242.116644 135.641371 
L 242.249857 136.69819 
L 242.38307 135.660356 
L 242.516283 135.92456 
L 242.649495 135.935635 
L 242.782708 135.332868 
L 242.915921 134.155812 
L 243.182346 135.291734 
L 243.315559 137.232928 
L 243.448772 137.441761 
L 243.581984 136.152378 
L 243.715197 137.77083 
L 243.84841 134.794966 
L 244.114835 143.790587 
L 244.248048 143.505815 
L 244.381261 143.743125 
L 244.647686 141.428564 
L 244.780899 141.461788 
L 244.914112 141.316238 
L 245.047325 143.300147 
L 245.180537 142.042405 
L 245.31375 142.018674 
L 245.580176 143.595993 
L 245.713388 143.213133 
L 245.846601 143.694081 
L 246.246239 141.631068 
L 246.379452 141.57886 
L 246.512665 141.267194 
L 246.645878 141.634233 
L 246.77909 140.982422 
L 246.912303 139.642413 
L 247.178729 139.691457 
L 247.445154 140.204046 
L 248.111218 138.629891 
L 248.510856 141.501339 
L 248.644069 142.88881 
L 248.777281 142.43634 
L 249.043707 145.005613 
L 249.17692 145.03409 
L 249.310132 145.338638 
L 249.443345 144.29052 
L 249.576558 144.453472 
L 249.976196 148.282069 
L 250.242622 146.060059 
L 250.509047 149.236054 
L 250.64226 148.574751 
L 250.775473 148.547856 
L 251.041898 147.150893 
L 251.175111 146.207982 
L 251.308324 146.453202 
L 251.441536 147.203101 
L 251.574749 145.214445 
L 251.841175 151.632883 
L 252.240813 149.843567 
L 252.374026 149.824583 
L 252.507238 149.501841 
L 252.773664 152.245142 
L 252.906877 152.939668 
L 253.040089 152.319499 
L 253.306515 150.357738 
L 253.57294 151.85279 
L 253.706153 151.455691 
L 253.839366 151.605197 
L 254.105791 150.299202 
L 254.239004 150.315023 
L 254.372217 149.155369 
L 254.638642 149.484439 
L 254.771855 148.911731 
L 254.905068 149.106325 
L 255.171493 149.954312 
L 255.304706 150.019177 
L 255.571131 146.39783 
L 255.704344 146.741138 
L 255.97077 145.522948 
L 256.103982 146.992686 
L 256.237195 146.935732 
L 256.370408 146.722153 
L 256.503621 147.038566 
L 256.636833 145.652677 
L 256.903259 147.263219 
L 257.036472 146.782272 
L 257.169684 147.269548 
L 257.302897 146.75063 
L 257.569323 147.204683 
L 257.702535 147.17146 
L 257.835748 145.967508 
L 257.968961 145.894733 
L 258.102174 145.160339 
L 258.235386 145.783989 
L 258.368599 147.32492 
L 258.501812 146.350368 
L 258.635025 146.674691 
L 258.90145 142.339834 
L 259.034663 142.479055 
L 259.167875 142.248074 
L 259.301088 142.793253 
L 259.567514 141.637397 
L 259.700726 141.466534 
L 259.833939 141.893691 
L 259.967152 141.819334 
L 260.100365 147.293279 
L 260.233577 147.862822 
L 260.36679 147.927687 
L 260.500003 147.530588 
L 260.766428 149.974879 
L 260.899641 148.932298 
L 261.032854 149.142713 
L 261.166067 148.894328 
L 261.299279 149.280352 
L 261.565705 148.191892 
L 261.698918 148.035267 
L 261.965343 145.837779 
L 262.364981 145.534023 
L 262.498194 145.431188 
L 262.76462 146.094074 
L 262.897832 145.709632 
L 263.164258 144.26046 
L 263.430683 144.915435 
L 263.563896 144.387026 
L 263.697109 144.921763 
L 263.830322 143.822228 
L 263.963534 143.7542 
L 264.096747 144.393354 
L 264.22996 146.385173 
L 264.363172 146.135207 
L 264.496385 146.263354 
L 264.629598 146.157356 
L 264.762811 147.312263 
L 264.896023 146.700004 
L 265.029236 147.294861 
L 265.162449 147.136654 
L 265.295662 146.136789 
L 265.428874 147.215758 
L 265.562087 147.353397 
L 265.6953 146.628811 
L 265.828513 147.622348 
L 265.961725 147.419844 
L 266.094938 147.639751 
L 266.228151 147.541663 
L 266.361364 148.329531 
L 266.494576 148.179235 
L 266.627789 147.494201 
L 266.761002 147.579632 
L 266.894215 148.40547 
L 267.027427 147.500529 
L 267.427066 150.071385 
L 267.560278 149.777121 
L 267.826704 150.639346 
L 267.959917 150.515945 
L 268.093129 150.109354 
L 268.226342 148.666511 
L 268.359555 149.039878 
L 268.492768 149.006655 
L 268.62598 153.139008 
L 268.759193 152.678628 
L 268.892406 151.789507 
L 269.025619 152.022071 
L 269.425257 150.186875 
L 269.558469 150.647256 
L 269.691682 151.642375 
L 269.824895 151.62339 
L 270.09132 150.283381 
L 270.224533 149.191757 
L 270.357746 149.27086 
L 270.490959 148.484574 
L 270.624171 146.690512 
L 270.757384 147.445157 
L 271.02381 146.893016 
L 271.423448 145.453337 
L 271.556661 145.548261 
L 271.689873 145.780825 
L 271.823086 144.978718 
L 271.956299 146.978448 
L 272.089512 146.929404 
L 272.222724 148.481409 
L 272.355937 148.413381 
L 272.622363 150.041325 
L 272.755575 149.114235 
L 272.888788 150.167891 
L 273.022001 149.927417 
L 273.155214 149.933745 
L 273.288426 150.131503 
L 273.421639 151.873357 
L 273.554852 151.269008 
L 273.688065 151.450945 
L 273.821277 151.107637 
L 273.95449 150.057146 
L 274.087703 150.097489 
L 274.220916 150.612451 
L 274.487341 149.18701 
L 274.620554 149.46229 
L 274.753766 149.454379 
L 274.886979 149.743897 
L 275.153405 151.836969 
L 275.41983 151.019042 
L 275.686256 152.45081 
L 275.819468 151.923983 
L 275.952681 152.156546 
L 276.085894 153.156411 
L 276.219107 152.556809 
L 276.352319 152.762477 
L 276.751958 149.131638 
L 277.151596 150.473229 
L 277.284809 149.228144 
L 277.551234 140.892244 
L 277.684447 141.037794 
L 277.81766 140.847946 
L 277.950872 139.401939 
L 278.084085 139.340239 
L 278.217298 139.928767 
L 278.750149 138.14578 
L 279.016574 139.484206 
L 279.283 137.856262 
L 279.549425 138.658369 
L 279.682638 137.585729 
L 279.815851 137.675906 
L 279.949063 138.409984 
L 280.082276 137.54064 
L 280.348702 138.004976 
L 280.481914 137.196541 
L 280.881553 140.094883 
L 281.014765 140.591652 
L 281.147978 139.346567 
L 281.281191 139.925603 
L 281.414404 139.487371 
L 281.547616 139.713606 
L 281.680829 139.204972 
L 281.814042 139.504773 
L 281.947255 138.674189 
L 282.480106 140.436609 
L 282.746531 139.291195 
L 283.012957 139.97702 
L 283.146169 139.661398 
L 283.279382 138.903589 
L 283.412595 139.319672 
L 283.67902 137.875246 
L 283.945446 138.06193 
L 284.078659 137.626862 
L 284.211871 137.889485 
L 284.345084 137.47973 
L 284.478297 139.137734 
L 284.61151 136.930754 
L 284.744722 136.666549 
L 284.877935 136.884874 
L 285.011148 136.854815 
L 285.14436 128.136055 
L 285.677211 131.82543 
L 285.943637 131.62609 
L 286.210062 132.249424 
L 286.476488 129.941191 
L 286.742913 130.363602 
L 286.876126 131.020159 
L 287.009339 130.164262 
L 287.142552 131.157799 
L 287.275764 131.278036 
L 287.408977 131.836505 
L 287.54219 131.496361 
L 287.675403 130.267096 
L 287.941828 131.241648 
L 288.075041 130.30032 
L 288.208254 131.067621 
L 288.474679 130.379423 
L 288.607892 130.368349 
L 288.741105 129.482392 
L 289.140743 131.553315 
L 289.273956 131.240066 
L 289.540381 130.0551 
L 289.673594 130.537629 
L 289.806807 131.52642 
L 290.073232 130.871445 
L 290.206445 129.039414 
L 290.339657 129.746597 
L 290.47287 129.529854 
L 290.606083 127.995251 
L 290.739296 128.810015 
L 290.872508 128.927087 
L 291.005721 129.2435 
L 291.138934 130.547122 
L 291.405359 129.355827 
L 291.538572 129.305201 
L 291.671785 129.569406 
L 291.804998 129.461825 
L 291.93821 130.572435 
L 292.071423 129.830446 
L 292.471061 124.897568 
L 292.604274 125.590513 
L 292.8707 122.138447 
L 293.003912 121.333176 
L 293.270338 121.306281 
L 293.403551 122.269758 
L 293.536763 114.796084 
L 293.669976 114.481253 
L 293.803189 115.332404 
L 293.936402 114.862531 
L 294.069614 113.634848 
L 294.33604 113.908545 
L 294.469253 114.403732 
L 294.602465 113.595297 
L 294.868891 115.871888 
L 295.002104 115.653563 
L 295.135316 115.106169 
L 295.268529 115.351389 
L 295.668167 113.878486 
L 295.80138 113.910128 
L 295.934593 114.242361 
L 296.201018 120.325401 
L 296.334231 125.245622 
L 296.467444 124.771003 
L 296.733869 116.544266 
L 296.867082 116.60122 
L 297.000295 117.411237 
L 297.133507 119.997913 
L 297.26672 117.78144 
L 297.533146 119.608725 
L 297.666358 116.675577 
L 297.799571 116.778411 
L 298.065997 114.79292 
L 298.199209 116.068064 
L 298.332422 115.91144 
L 298.465635 115.117243 
L 298.598848 113.301033 
L 298.73206 113.081126 
L 298.865273 111.794907 
L 299.131699 113.744011 
L 299.264911 114.11105 
L 299.398124 115.614011 
L 299.66455 120.07227 
L 300.064188 114.30248 
L 300.197401 112.540059 
L 300.330613 113.52094 
L 300.463826 112.815339 
L 300.597039 114.204392 
L 300.863464 111.510135 
L 300.996677 111.714221 
L 301.12989 112.358122 
L 301.396315 108.255828 
L 301.529528 107.877714 
L 301.795953 110.627343 
L 301.929166 109.339542 
L 302.195592 102.267712 
L 302.328804 101.888016 
L 302.59523 99.429488 
L 302.728443 99.532322 
L 302.861655 99.144716 
L 302.994868 99.625664 
L 303.394506 94.237151 
L 303.527719 94.850992 
L 303.660932 94.188107 
L 303.794145 92.041245 
L 303.927357 93.251524 
L 304.06057 96.929825 
L 304.193783 96.066018 
L 304.326996 96.779529 
L 304.460208 93.57743 
L 304.593421 93.936558 
L 304.859847 91.133139 
L 304.993059 92.373478 
L 305.126272 91.710593 
L 305.259485 92.039663 
L 305.392698 93.378089 
L 305.52591 91.122065 
L 305.659123 91.604595 
L 305.792336 93.14869 
L 305.925548 92.137751 
L 306.058761 92.582311 
L 306.191974 91.395762 
L 306.591612 97.277879 
L 306.724825 94.468132 
L 306.858038 94.352641 
L 306.99125 91.642564 
L 307.257676 93.482506 
L 307.390889 93.423969 
L 307.524101 93.63913 
L 307.657314 93.552117 
L 307.790527 93.696085 
L 308.056952 88.763206 
L 308.190165 89.538418 
L 308.323378 91.62358 
L 308.456591 97.777812 
L 308.723016 98.464428 
L 308.856229 102.37371 
L 308.989442 102.514514 
L 309.122654 100.823287 
L 309.255867 100.799556 
L 309.38908 106.507646 
L 309.522293 104.737315 
L 309.655505 108.347587 
L 309.788718 107.6673 
L 309.921931 108.096039 
L 310.055144 107.581868 
L 310.188356 104.202577 
L 310.321569 104.178846 
L 310.454782 103.432112 
L 310.587995 106.264008 
L 310.721207 98.037271 
L 310.987633 107.615091 
L 311.254058 114.535043 
L 311.387271 113.713952 
L 311.653696 121.333176 
L 311.786909 122.287161 
L 312.31976 116.112362 
L 312.452973 114.055678 
L 312.586186 115.495357 
L 312.719398 113.929112 
L 312.852611 110.037233 
L 312.985824 111.075067 
L 313.385462 110.712774 
L 313.518675 111.141514 
L 313.651888 106.945878 
L 313.7851 106.760776 
L 314.051526 107.562883 
L 314.317951 109.916996 
L 314.584377 110.12741 
L 314.850802 107.842909 
L 314.984015 107.265455 
L 315.117228 107.700523 
L 315.383653 111.211125 
L 315.516866 110.910533 
L 315.783292 108.434601 
L 315.916504 106.327291 
L 316.049717 106.814567 
L 316.316142 103.83712 
L 316.449355 104.636063 
L 316.582568 103.86718 
L 316.848993 105.822612 
L 316.982206 103.3008 
L 317.115419 104.9857 
L 317.515057 103.128355 
L 317.781483 100.347085 
L 318.047908 98.037271 
L 318.181121 99.215909 
L 318.314334 98.410638 
L 318.447546 98.725469 
L 318.580759 100.386637 
L 318.713972 99.48486 
L 319.11361 103.313457 
L 319.380036 90.364256 
L 319.513248 92.346583 
L 319.646461 92.41303 
L 319.779674 94.281449 
L 320.312525 85.716149 
L 320.445738 84.972579 
L 320.57895 86.239813 
L 320.712163 86.12274 
L 320.845376 88.557538 
L 321.245014 87.366243 
L 321.378227 88.323392 
L 321.777865 85.450362 
L 321.911078 85.872774 
L 322.04429 84.203695 
L 322.177503 84.733687 
L 322.310716 83.34147 
L 322.443929 83.768627 
L 322.577141 83.580362 
L 322.710354 84.053399 
L 322.97678 83.434812 
L 323.243205 85.398154 
L 323.376418 84.755836 
L 323.509631 85.553197 
L 323.642843 85.039025 
L 323.776056 86.798282 
L 324.042482 85.306394 
L 324.175694 86.132232 
L 324.308907 84.316022 
L 324.575333 89.176125 
L 324.841758 85.3412 
L 324.974971 85.338036 
L 325.374609 81.859075 
L 325.507822 82.02361 
L 325.774247 79.300876 
L 326.307098 82.202383 
L 326.440311 82.102713 
L 326.706736 80.57602 
L 326.839949 80.780107 
L 326.973162 80.712078 
L 327.239587 82.178652 
L 327.3728 82.007789 
L 327.639226 78.505097 
L 327.772438 77.092314 
L 328.038864 79.164819 
L 328.305289 77.370757 
L 328.438502 77.278997 
L 328.971353 76.329758 
L 329.237779 77.677678 
L 329.504204 77.611231 
L 329.637417 78.742407 
L 329.903842 77.929226 
L 330.037055 78.7519 
L 330.170268 78.440233 
L 330.436693 76.53068 
L 330.569906 77.117627 
L 330.969544 76.348743 
L 331.102757 73.74941 
L 331.23597 74.443937 
L 331.369183 74.510384 
L 331.502395 78.294683 
L 331.635608 76.499039 
L 331.768821 78.157043 
L 331.902033 78.144387 
L 332.168459 75.386848 
L 332.301672 75.927914 
L 332.434884 75.117897 
L 332.834523 71.078885 
L 332.967735 72.121466 
L 333.234161 67.444882 
L 333.367374 67.392674 
L 333.500586 66.085888 
L 333.633799 66.176066 
L 333.767012 66.604805 
L 333.900225 64.970532 
L 334.16665 65.75049 
L 334.299863 65.38978 
L 334.433076 67.084171 
L 334.566288 66.595313 
L 334.832714 68.356151 
L 334.965927 69.939798 
L 335.099139 69.196228 
L 335.232352 69.189899 
L 335.365565 70.355881 
L 335.498778 68.984231 
L 335.63199 65.962487 
L 335.765203 66.422868 
L 336.031629 69.083901 
L 336.164841 75.734902 
L 336.298054 73.599114 
L 336.431267 74.296805 
L 336.56448 77.437204 
L 336.697692 77.20464 
L 336.830905 79.099954 
L 336.964118 74.372744 
L 337.09733 73.926602 
L 337.230543 76.437339 
L 337.363756 81.10443 
L 337.496969 81.637586 
L 337.630181 84.792223 
L 337.763394 80.968372 
L 337.896607 80.454201 
L 338.429458 74.309461 
L 338.562671 75.133717 
L 338.695883 75.094166 
L 339.095522 79.808719 
L 339.361947 81.427171 
L 339.628373 77.570097 
L 339.761585 76.66832 
L 339.894798 77.157178 
L 340.028011 76.946764 
L 340.161224 78.297847 
L 340.294436 76.048151 
L 340.694075 78.669632 
L 340.9605 76.541755 
L 341.093713 76.639843 
L 341.360138 78.22349 
L 341.493351 76.513278 
L 341.626564 76.397787 
L 341.759777 77.502068 
L 341.892989 79.919463 
L 342.159415 78.762974 
L 342.42584 72.62298 
L 342.559053 72.475848 
L 342.692266 72.637219 
L 342.825478 72.143615 
L 343.091904 69.276913 
L 343.358329 70.805188 
L 343.491542 70.558386 
L 343.624755 70.670712 
L 344.157606 65.794788 
L 344.424031 67.182259 
L 344.557244 68.273884 
L 344.82367 65.668223 
L 344.956882 70.374866 
L 345.090095 70.779875 
L 345.622946 67.644222 
L 345.756159 66.209289 
L 345.889372 66.231438 
L 346.155797 65.005338 
L 346.28901 64.858206 
L 346.422223 63.059398 
L 346.555435 63.190709 
L 346.688648 63.731776 
L 346.821861 64.831311 
L 346.955074 64.293409 
L 347.088286 64.862952 
L 347.221499 63.590972 
L 347.354712 64.250693 
L 347.487924 64.097233 
L 347.75435 64.70791 
L 348.020775 63.603628 
L 348.153988 63.68906 
L 348.287201 63.35208 
L 348.420414 63.677985 
L 348.686839 63.537182 
L 348.820052 63.712791 
L 348.953265 62.975549 
L 349.086477 65.154052 
L 349.21969 64.385168 
L 349.352903 64.492749 
L 349.486116 64.772774 
L 349.619328 64.581344 
L 349.752541 63.129009 
L 349.885754 60.230666 
L 350.018967 59.911089 
L 350.551818 54.699767 
L 350.818243 56.977941 
L 350.951456 55.05415 
L 351.217881 56.764362 
L 351.351094 58.593229 
L 351.484307 55.853092 
L 351.61752 55.569903 
L 351.750732 56.294489 
L 351.883945 55.842018 
L 352.017158 56.400487 
L 352.150371 54.995613 
L 352.283583 54.96239 
L 352.416796 54.698185 
L 352.683221 52.214343 
L 352.816434 48.537624 
L 352.949647 48.741711 
L 353.349285 50.765172 
L 353.615711 47.811457 
L 353.882136 48.63413 
L 354.015349 46.461955 
L 354.148562 46.996693 
L 354.281774 45.715221 
L 354.414987 49.086601 
L 354.5482 46.914426 
L 354.681413 46.700847 
L 354.814625 44.987471 
L 354.947838 44.849831 
L 355.347476 41.014906 
L 355.480689 40.869356 
L 355.613902 41.198425 
L 355.747115 40.988011 
L 356.01354 38.553213 
L 356.146753 39.872655 
L 356.279966 38.754135 
L 356.413178 38.722494 
L 356.679604 45.89874 
L 356.812817 43.386421 
L 356.946029 44.069873 
L 357.079242 46.015813 
L 357.345668 41.111412 
L 357.47888 41.519585 
L 357.612093 39.994474 
L 357.745306 40.141606 
L 357.878518 39.755582 
L 358.144944 44.020829 
L 358.278157 41.877131 
L 358.677795 47.678563 
L 358.811008 44.87198 
L 358.94422 45.862353 
L 359.210646 40.905743 
L 359.343859 41.275947 
L 359.477071 39.31735 
L 359.610284 40.247604 
L 359.743497 40.060921 
L 360.276348 35.806748 
L 360.409561 36.286114 
L 360.542773 34.185132 
L 360.675986 34.039582 
L 360.809199 31.993972 
L 360.942412 33.069776 
L 361.208837 42.280558 
L 361.34205 40.950041 
L 361.475263 40.997503 
L 361.608475 42.416615 
L 361.741688 42.312199 
L 361.874901 41.570211 
L 362.008114 41.954652 
L 362.141326 43.193409 
L 362.274539 47.16281 
L 362.540965 42.989323 
L 362.674177 43.077918 
L 362.80739 43.79934 
L 362.940603 46.585356 
L 363.073815 46.91759 
L 363.207028 47.7371 
L 363.340241 45.583909 
L 363.739879 49.007498 
L 363.873092 48.887261 
L 364.139517 45.474747 
L 364.27273 43.41648 
L 364.405943 43.788266 
L 364.539156 45.841786 
L 364.672368 45.441523 
L 364.805581 43.595254 
L 364.938794 45.742116 
L 365.338432 40.410557 
L 365.871283 45.115618 
L 366.004496 44.585626 
L 366.270921 47.450746 
L 366.404134 49.872887 
L 366.537347 50.061153 
L 366.803772 47.245077 
L 366.936985 46.461955 
L 367.203411 47.134333 
L 367.336623 45.813309 
L 367.603049 41.995786 
L 367.736262 41.772715 
L 367.869474 42.372318 
L 368.1359 40.200142 
L 368.402325 39.344245 
L 368.535538 38.902849 
L 368.801963 42.465659 
L 368.935176 43.051023 
L 369.068389 45.678833 
L 369.201602 44.160051 
L 369.468027 44.709027 
L 369.60124 24.376329 
L 369.734453 22.810085 
L 370.134091 25.441059 
L 370.134091 25.441059 
" style="fill:none;stroke:#ff0000;stroke-dasharray:5.55,2.4;stroke-dashoffset:0;stroke-width:1.5;"/>
   </g>
   <g id="patch_3">
    <path d="M 43.25 201.521875 
L 43.25 14.3 
" style="fill:none;stroke:#000000;stroke-linecap:square;stroke-linejoin:miter;stroke-width:0.8;"/>
   </g>
   <g id="patch_4">
    <path d="M 385.7 201.521875 
L 385.7 14.3 
" style="fill:none;stroke:#000000;stroke-linecap:square;stroke-linejoin:miter;stroke-width:0.8;"/>
   </g>
   <g id="patch_5">
    <path d="M 43.25 201.521875 
L 385.7 201.521875 
" style="fill:none;stroke:#000000;stroke-linecap:square;stroke-linejoin:miter;stroke-width:0.8;"/>
   </g>
   <g id="patch_6">
    <path d="M 43.25 14.3 
L 385.7 14.3 
" style="fill:none;stroke:#000000;stroke-linecap:square;stroke-linejoin:miter;stroke-width:0.8;"/>
   </g>
  </g>
 </g>
 <defs>
  <clipPath id="p59cf9aa1ff">
   <rect height="187.221875" width="342.45" x="43.25" y="14.3"/>
  </clipPath>
 </defs>
</svg>
