<?xml version="1.0" encoding="utf-8" standalone="no"?>
<!DOCTYPE svg PUBLIC "-//W3C//DTD SVG 1.1//EN"
  "http://www.w3.org/Graphics/SVG/1.1/DTD/svg11.dtd">
<!-- Created with matplotlib (http://matplotlib.org/) -->
<svg height="229pt" version="1.1" viewBox="0 0 400 229" width="400pt" xmlns="http://www.w3.org/2000/svg" xmlns:xlink="http://www.w3.org/1999/xlink">
 <defs>
  <style type="text/css">
*{stroke-linecap:butt;stroke-linejoin:round;}
  </style>
 </defs>
 <g id="figure_1">
  <g id="patch_1">
   <path d="M 0 229 
L 400 229 
L 400 0 
L 0 0 
z
" style="fill:#ffffff;"/>
  </g>
  <g id="axes_1">
   <g id="patch_2">
    <path d="M 50.565625 187.84375 
L 385.7 187.84375 
L 385.7 25.918125 
L 50.565625 25.918125 
z
" style="fill:#ffffff;"/>
   </g>
   <g id="matplotlib.axis_1">
    <g id="xtick_1">
     <g id="line2d_1">
      <defs>
       <path d="M 0 0 
L 0 3.5 
" id="m62c35e8071" style="stroke:#000000;stroke-width:0.8;"/>
      </defs>
      <g>
       <use style="stroke:#000000;stroke-width:0.8;" x="65.557014" xlink:href="#m62c35e8071" y="187.84375"/>
      </g>
     </g>
     <g id="text_1">
      <!-- 0 -->
      <defs>
       <path d="M 31.78125 66.40625 
Q 24.171875 66.40625 20.328125 58.90625 
Q 16.5 51.421875 16.5 36.375 
Q 16.5 21.390625 20.328125 13.890625 
Q 24.171875 6.390625 31.78125 6.390625 
Q 39.453125 6.390625 43.28125 13.890625 
Q 47.125 21.390625 47.125 36.375 
Q 47.125 51.421875 43.28125 58.90625 
Q 39.453125 66.40625 31.78125 66.40625 
z
M 31.78125 74.21875 
Q 44.046875 74.21875 50.515625 64.515625 
Q 56.984375 54.828125 56.984375 36.375 
Q 56.984375 17.96875 50.515625 8.265625 
Q 44.046875 -1.421875 31.78125 -1.421875 
Q 19.53125 -1.421875 13.0625 8.265625 
Q 6.59375 17.96875 6.59375 36.375 
Q 6.59375 54.828125 13.0625 64.515625 
Q 19.53125 74.21875 31.78125 74.21875 
z
" id="DejaVuSans-30"/>
      </defs>
      <g transform="translate(62.375764 202.442187)scale(0.1 -0.1)">
       <use xlink:href="#DejaVuSans-30"/>
      </g>
     </g>
    </g>
    <g id="xtick_2">
     <g id="line2d_2">
      <g>
       <use style="stroke:#000000;stroke-width:0.8;" x="113.955364" xlink:href="#m62c35e8071" y="187.84375"/>
      </g>
     </g>
     <g id="text_2">
      <!-- 200 -->
      <defs>
       <path d="M 19.1875 8.296875 
L 53.609375 8.296875 
L 53.609375 0 
L 7.328125 0 
L 7.328125 8.296875 
Q 12.9375 14.109375 22.625 23.890625 
Q 32.328125 33.6875 34.8125 36.53125 
Q 39.546875 41.84375 41.421875 45.53125 
Q 43.3125 49.21875 43.3125 52.78125 
Q 43.3125 58.59375 39.234375 62.25 
Q 35.15625 65.921875 28.609375 65.921875 
Q 23.96875 65.921875 18.8125 64.3125 
Q 13.671875 62.703125 7.8125 59.421875 
L 7.8125 69.390625 
Q 13.765625 71.78125 18.9375 73 
Q 24.125 74.21875 28.421875 74.21875 
Q 39.75 74.21875 46.484375 68.546875 
Q 53.21875 62.890625 53.21875 53.421875 
Q 53.21875 48.921875 51.53125 44.890625 
Q 49.859375 40.875 45.40625 35.40625 
Q 44.1875 33.984375 37.640625 27.21875 
Q 31.109375 20.453125 19.1875 8.296875 
z
" id="DejaVuSans-32"/>
      </defs>
      <g transform="translate(104.411614 202.442187)scale(0.1 -0.1)">
       <use xlink:href="#DejaVuSans-32"/>
       <use x="63.623047" xlink:href="#DejaVuSans-30"/>
       <use x="127.246094" xlink:href="#DejaVuSans-30"/>
      </g>
     </g>
    </g>
    <g id="xtick_3">
     <g id="line2d_3">
      <g>
       <use style="stroke:#000000;stroke-width:0.8;" x="162.353714" xlink:href="#m62c35e8071" y="187.84375"/>
      </g>
     </g>
     <g id="text_3">
      <!-- 400 -->
      <defs>
       <path d="M 37.796875 64.3125 
L 12.890625 25.390625 
L 37.796875 25.390625 
z
M 35.203125 72.90625 
L 47.609375 72.90625 
L 47.609375 25.390625 
L 58.015625 25.390625 
L 58.015625 17.1875 
L 47.609375 17.1875 
L 47.609375 0 
L 37.796875 0 
L 37.796875 17.1875 
L 4.890625 17.1875 
L 4.890625 26.703125 
z
" id="DejaVuSans-34"/>
      </defs>
      <g transform="translate(152.809964 202.442187)scale(0.1 -0.1)">
       <use xlink:href="#DejaVuSans-34"/>
       <use x="63.623047" xlink:href="#DejaVuSans-30"/>
       <use x="127.246094" xlink:href="#DejaVuSans-30"/>
      </g>
     </g>
    </g>
    <g id="xtick_4">
     <g id="line2d_4">
      <g>
       <use style="stroke:#000000;stroke-width:0.8;" x="210.752064" xlink:href="#m62c35e8071" y="187.84375"/>
      </g>
     </g>
     <g id="text_4">
      <!-- 600 -->
      <defs>
       <path d="M 33.015625 40.375 
Q 26.375 40.375 22.484375 35.828125 
Q 18.609375 31.296875 18.609375 23.390625 
Q 18.609375 15.53125 22.484375 10.953125 
Q 26.375 6.390625 33.015625 6.390625 
Q 39.65625 6.390625 43.53125 10.953125 
Q 47.40625 15.53125 47.40625 23.390625 
Q 47.40625 31.296875 43.53125 35.828125 
Q 39.65625 40.375 33.015625 40.375 
z
M 52.59375 71.296875 
L 52.59375 62.3125 
Q 48.875 64.0625 45.09375 64.984375 
Q 41.3125 65.921875 37.59375 65.921875 
Q 27.828125 65.921875 22.671875 59.328125 
Q 17.53125 52.734375 16.796875 39.40625 
Q 19.671875 43.65625 24.015625 45.921875 
Q 28.375 48.1875 33.59375 48.1875 
Q 44.578125 48.1875 50.953125 41.515625 
Q 57.328125 34.859375 57.328125 23.390625 
Q 57.328125 12.15625 50.6875 5.359375 
Q 44.046875 -1.421875 33.015625 -1.421875 
Q 20.359375 -1.421875 13.671875 8.265625 
Q 6.984375 17.96875 6.984375 36.375 
Q 6.984375 53.65625 15.1875 63.9375 
Q 23.390625 74.21875 37.203125 74.21875 
Q 40.921875 74.21875 44.703125 73.484375 
Q 48.484375 72.75 52.59375 71.296875 
z
" id="DejaVuSans-36"/>
      </defs>
      <g transform="translate(201.208314 202.442187)scale(0.1 -0.1)">
       <use xlink:href="#DejaVuSans-36"/>
       <use x="63.623047" xlink:href="#DejaVuSans-30"/>
       <use x="127.246094" xlink:href="#DejaVuSans-30"/>
      </g>
     </g>
    </g>
    <g id="xtick_5">
     <g id="line2d_5">
      <g>
       <use style="stroke:#000000;stroke-width:0.8;" x="259.150414" xlink:href="#m62c35e8071" y="187.84375"/>
      </g>
     </g>
     <g id="text_5">
      <!-- 800 -->
      <defs>
       <path d="M 31.78125 34.625 
Q 24.75 34.625 20.71875 30.859375 
Q 16.703125 27.09375 16.703125 20.515625 
Q 16.703125 13.921875 20.71875 10.15625 
Q 24.75 6.390625 31.78125 6.390625 
Q 38.8125 6.390625 42.859375 10.171875 
Q 46.921875 13.96875 46.921875 20.515625 
Q 46.921875 27.09375 42.890625 30.859375 
Q 38.875 34.625 31.78125 34.625 
z
M 21.921875 38.8125 
Q 15.578125 40.375 12.03125 44.71875 
Q 8.5 49.078125 8.5 55.328125 
Q 8.5 64.0625 14.71875 69.140625 
Q 20.953125 74.21875 31.78125 74.21875 
Q 42.671875 74.21875 48.875 69.140625 
Q 55.078125 64.0625 55.078125 55.328125 
Q 55.078125 49.078125 51.53125 44.71875 
Q 48 40.375 41.703125 38.8125 
Q 48.828125 37.15625 52.796875 32.3125 
Q 56.78125 27.484375 56.78125 20.515625 
Q 56.78125 9.90625 50.3125 4.234375 
Q 43.84375 -1.421875 31.78125 -1.421875 
Q 19.734375 -1.421875 13.25 4.234375 
Q 6.78125 9.90625 6.78125 20.515625 
Q 6.78125 27.484375 10.78125 32.3125 
Q 14.796875 37.15625 21.921875 38.8125 
z
M 18.3125 54.390625 
Q 18.3125 48.734375 21.84375 45.5625 
Q 25.390625 42.390625 31.78125 42.390625 
Q 38.140625 42.390625 41.71875 45.5625 
Q 45.3125 48.734375 45.3125 54.390625 
Q 45.3125 60.0625 41.71875 63.234375 
Q 38.140625 66.40625 31.78125 66.40625 
Q 25.390625 66.40625 21.84375 63.234375 
Q 18.3125 60.0625 18.3125 54.390625 
z
" id="DejaVuSans-38"/>
      </defs>
      <g transform="translate(249.606664 202.442187)scale(0.1 -0.1)">
       <use xlink:href="#DejaVuSans-38"/>
       <use x="63.623047" xlink:href="#DejaVuSans-30"/>
       <use x="127.246094" xlink:href="#DejaVuSans-30"/>
      </g>
     </g>
    </g>
    <g id="xtick_6">
     <g id="line2d_6">
      <g>
       <use style="stroke:#000000;stroke-width:0.8;" x="307.548764" xlink:href="#m62c35e8071" y="187.84375"/>
      </g>
     </g>
     <g id="text_6">
      <!-- 1000 -->
      <defs>
       <path d="M 12.40625 8.296875 
L 28.515625 8.296875 
L 28.515625 63.921875 
L 10.984375 60.40625 
L 10.984375 69.390625 
L 28.421875 72.90625 
L 38.28125 72.90625 
L 38.28125 8.296875 
L 54.390625 8.296875 
L 54.390625 0 
L 12.40625 0 
z
" id="DejaVuSans-31"/>
      </defs>
      <g transform="translate(294.823764 202.442187)scale(0.1 -0.1)">
       <use xlink:href="#DejaVuSans-31"/>
       <use x="63.623047" xlink:href="#DejaVuSans-30"/>
       <use x="127.246094" xlink:href="#DejaVuSans-30"/>
       <use x="190.869141" xlink:href="#DejaVuSans-30"/>
      </g>
     </g>
    </g>
    <g id="xtick_7">
     <g id="line2d_7">
      <g>
       <use style="stroke:#000000;stroke-width:0.8;" x="355.947114" xlink:href="#m62c35e8071" y="187.84375"/>
      </g>
     </g>
     <g id="text_7">
      <!-- 1200 -->
      <g transform="translate(343.222114 202.442187)scale(0.1 -0.1)">
       <use xlink:href="#DejaVuSans-31"/>
       <use x="63.623047" xlink:href="#DejaVuSans-32"/>
       <use x="127.246094" xlink:href="#DejaVuSans-30"/>
       <use x="190.869141" xlink:href="#DejaVuSans-30"/>
      </g>
     </g>
    </g>
    <g id="text_8">
     <!-- Days -->
     <defs>
      <path d="M 19.671875 64.796875 
L 19.671875 8.109375 
L 31.59375 8.109375 
Q 46.6875 8.109375 53.6875 14.9375 
Q 60.6875 21.78125 60.6875 36.53125 
Q 60.6875 51.171875 53.6875 57.984375 
Q 46.6875 64.796875 31.59375 64.796875 
z
M 9.8125 72.90625 
L 30.078125 72.90625 
Q 51.265625 72.90625 61.171875 64.09375 
Q 71.09375 55.28125 71.09375 36.53125 
Q 71.09375 17.671875 61.125 8.828125 
Q 51.171875 0 30.078125 0 
L 9.8125 0 
z
" id="DejaVuSans-44"/>
      <path d="M 34.28125 27.484375 
Q 23.390625 27.484375 19.1875 25 
Q 14.984375 22.515625 14.984375 16.5 
Q 14.984375 11.71875 18.140625 8.90625 
Q 21.296875 6.109375 26.703125 6.109375 
Q 34.1875 6.109375 38.703125 11.40625 
Q 43.21875 16.703125 43.21875 25.484375 
L 43.21875 27.484375 
z
M 52.203125 31.203125 
L 52.203125 0 
L 43.21875 0 
L 43.21875 8.296875 
Q 40.140625 3.328125 35.546875 0.953125 
Q 30.953125 -1.421875 24.3125 -1.421875 
Q 15.921875 -1.421875 10.953125 3.296875 
Q 6 8.015625 6 15.921875 
Q 6 25.140625 12.171875 29.828125 
Q 18.359375 34.515625 30.609375 34.515625 
L 43.21875 34.515625 
L 43.21875 35.40625 
Q 43.21875 41.609375 39.140625 45 
Q 35.0625 48.390625 27.6875 48.390625 
Q 23 48.390625 18.546875 47.265625 
Q 14.109375 46.140625 10.015625 43.890625 
L 10.015625 52.203125 
Q 14.9375 54.109375 19.578125 55.046875 
Q 24.21875 56 28.609375 56 
Q 40.484375 56 46.34375 49.84375 
Q 52.203125 43.703125 52.203125 31.203125 
z
" id="DejaVuSans-61"/>
      <path d="M 32.171875 -5.078125 
Q 28.375 -14.84375 24.75 -17.8125 
Q 21.140625 -20.796875 15.09375 -20.796875 
L 7.90625 -20.796875 
L 7.90625 -13.28125 
L 13.1875 -13.28125 
Q 16.890625 -13.28125 18.9375 -11.515625 
Q 21 -9.765625 23.484375 -3.21875 
L 25.09375 0.875 
L 2.984375 54.6875 
L 12.5 54.6875 
L 29.59375 11.921875 
L 46.6875 54.6875 
L 56.203125 54.6875 
z
" id="DejaVuSans-79"/>
      <path d="M 44.28125 53.078125 
L 44.28125 44.578125 
Q 40.484375 46.53125 36.375 47.5 
Q 32.28125 48.484375 27.875 48.484375 
Q 21.1875 48.484375 17.84375 46.4375 
Q 14.5 44.390625 14.5 40.28125 
Q 14.5 37.15625 16.890625 35.375 
Q 19.28125 33.59375 26.515625 31.984375 
L 29.59375 31.296875 
Q 39.15625 29.25 43.1875 25.515625 
Q 47.21875 21.78125 47.21875 15.09375 
Q 47.21875 7.46875 41.1875 3.015625 
Q 35.15625 -1.421875 24.609375 -1.421875 
Q 20.21875 -1.421875 15.453125 -0.5625 
Q 10.6875 0.296875 5.421875 2 
L 5.421875 11.28125 
Q 10.40625 8.6875 15.234375 7.390625 
Q 20.0625 6.109375 24.8125 6.109375 
Q 31.15625 6.109375 34.5625 8.28125 
Q 37.984375 10.453125 37.984375 14.40625 
Q 37.984375 18.0625 35.515625 20.015625 
Q 33.0625 21.96875 24.703125 23.78125 
L 21.578125 24.515625 
Q 13.234375 26.265625 9.515625 29.90625 
Q 5.8125 33.546875 5.8125 39.890625 
Q 5.8125 47.609375 11.28125 51.796875 
Q 16.75 56 26.8125 56 
Q 31.78125 56 36.171875 55.265625 
Q 40.578125 54.546875 44.28125 53.078125 
z
" id="DejaVuSans-73"/>
     </defs>
     <g transform="translate(205.654687 216.120313)scale(0.1 -0.1)">
      <use xlink:href="#DejaVuSans-44"/>
      <use x="77.001953" xlink:href="#DejaVuSans-61"/>
      <use x="138.28125" xlink:href="#DejaVuSans-79"/>
      <use x="197.460938" xlink:href="#DejaVuSans-73"/>
     </g>
    </g>
   </g>
   <g id="matplotlib.axis_2">
    <g id="ytick_1">
     <g id="line2d_8">
      <defs>
       <path d="M 0 0 
L -3.5 0 
" id="m61537e3486" style="stroke:#000000;stroke-width:0.8;"/>
      </defs>
      <g>
       <use style="stroke:#000000;stroke-width:0.8;" x="50.565625" xlink:href="#m61537e3486" y="172.430945"/>
      </g>
     </g>
     <g id="text_9">
      <!-- 50 -->
      <defs>
       <path d="M 10.796875 72.90625 
L 49.515625 72.90625 
L 49.515625 64.59375 
L 19.828125 64.59375 
L 19.828125 46.734375 
Q 21.96875 47.46875 24.109375 47.828125 
Q 26.265625 48.1875 28.421875 48.1875 
Q 40.625 48.1875 47.75 41.5 
Q 54.890625 34.8125 54.890625 23.390625 
Q 54.890625 11.625 47.5625 5.09375 
Q 40.234375 -1.421875 26.90625 -1.421875 
Q 22.3125 -1.421875 17.546875 -0.640625 
Q 12.796875 0.140625 7.71875 1.703125 
L 7.71875 11.625 
Q 12.109375 9.234375 16.796875 8.0625 
Q 21.484375 6.890625 26.703125 6.890625 
Q 35.15625 6.890625 40.078125 11.328125 
Q 45.015625 15.765625 45.015625 23.390625 
Q 45.015625 31 40.078125 35.4375 
Q 35.15625 39.890625 26.703125 39.890625 
Q 22.75 39.890625 18.8125 39.015625 
Q 14.890625 38.140625 10.796875 36.28125 
z
" id="DejaVuSans-35"/>
      </defs>
      <g transform="translate(30.840625 176.230164)scale(0.1 -0.1)">
       <use xlink:href="#DejaVuSans-35"/>
       <use x="63.623047" xlink:href="#DejaVuSans-30"/>
      </g>
     </g>
    </g>
    <g id="ytick_2">
     <g id="line2d_9">
      <g>
       <use style="stroke:#000000;stroke-width:0.8;" x="50.565625" xlink:href="#m61537e3486" y="145.535324"/>
      </g>
     </g>
     <g id="text_10">
      <!-- 100 -->
      <g transform="translate(24.478125 149.334543)scale(0.1 -0.1)">
       <use xlink:href="#DejaVuSans-31"/>
       <use x="63.623047" xlink:href="#DejaVuSans-30"/>
       <use x="127.246094" xlink:href="#DejaVuSans-30"/>
      </g>
     </g>
    </g>
    <g id="ytick_3">
     <g id="line2d_10">
      <g>
       <use style="stroke:#000000;stroke-width:0.8;" x="50.565625" xlink:href="#m61537e3486" y="118.639703"/>
      </g>
     </g>
     <g id="text_11">
      <!-- 150 -->
      <g transform="translate(24.478125 122.438922)scale(0.1 -0.1)">
       <use xlink:href="#DejaVuSans-31"/>
       <use x="63.623047" xlink:href="#DejaVuSans-35"/>
       <use x="127.246094" xlink:href="#DejaVuSans-30"/>
      </g>
     </g>
    </g>
    <g id="ytick_4">
     <g id="line2d_11">
      <g>
       <use style="stroke:#000000;stroke-width:0.8;" x="50.565625" xlink:href="#m61537e3486" y="91.744082"/>
      </g>
     </g>
     <g id="text_12">
      <!-- 200 -->
      <g transform="translate(24.478125 95.543301)scale(0.1 -0.1)">
       <use xlink:href="#DejaVuSans-32"/>
       <use x="63.623047" xlink:href="#DejaVuSans-30"/>
       <use x="127.246094" xlink:href="#DejaVuSans-30"/>
      </g>
     </g>
    </g>
    <g id="ytick_5">
     <g id="line2d_12">
      <g>
       <use style="stroke:#000000;stroke-width:0.8;" x="50.565625" xlink:href="#m61537e3486" y="64.848461"/>
      </g>
     </g>
     <g id="text_13">
      <!-- 250 -->
      <g transform="translate(24.478125 68.64768)scale(0.1 -0.1)">
       <use xlink:href="#DejaVuSans-32"/>
       <use x="63.623047" xlink:href="#DejaVuSans-35"/>
       <use x="127.246094" xlink:href="#DejaVuSans-30"/>
      </g>
     </g>
    </g>
    <g id="ytick_6">
     <g id="line2d_13">
      <g>
       <use style="stroke:#000000;stroke-width:0.8;" x="50.565625" xlink:href="#m61537e3486" y="37.95284"/>
      </g>
     </g>
     <g id="text_14">
      <!-- 300 -->
      <defs>
       <path d="M 40.578125 39.3125 
Q 47.65625 37.796875 51.625 33 
Q 55.609375 28.21875 55.609375 21.1875 
Q 55.609375 10.40625 48.1875 4.484375 
Q 40.765625 -1.421875 27.09375 -1.421875 
Q 22.515625 -1.421875 17.65625 -0.515625 
Q 12.796875 0.390625 7.625 2.203125 
L 7.625 11.71875 
Q 11.71875 9.328125 16.59375 8.109375 
Q 21.484375 6.890625 26.8125 6.890625 
Q 36.078125 6.890625 40.9375 10.546875 
Q 45.796875 14.203125 45.796875 21.1875 
Q 45.796875 27.640625 41.28125 31.265625 
Q 36.765625 34.90625 28.71875 34.90625 
L 20.21875 34.90625 
L 20.21875 43.015625 
L 29.109375 43.015625 
Q 36.375 43.015625 40.234375 45.921875 
Q 44.09375 48.828125 44.09375 54.296875 
Q 44.09375 59.90625 40.109375 62.90625 
Q 36.140625 65.921875 28.71875 65.921875 
Q 24.65625 65.921875 20.015625 65.03125 
Q 15.375 64.15625 9.8125 62.3125 
L 9.8125 71.09375 
Q 15.4375 72.65625 20.34375 73.4375 
Q 25.25 74.21875 29.59375 74.21875 
Q 40.828125 74.21875 47.359375 69.109375 
Q 53.90625 64.015625 53.90625 55.328125 
Q 53.90625 49.265625 50.4375 45.09375 
Q 46.96875 40.921875 40.578125 39.3125 
z
" id="DejaVuSans-33"/>
      </defs>
      <g transform="translate(24.478125 41.752058)scale(0.1 -0.1)">
       <use xlink:href="#DejaVuSans-33"/>
       <use x="63.623047" xlink:href="#DejaVuSans-30"/>
       <use x="127.246094" xlink:href="#DejaVuSans-30"/>
      </g>
     </g>
    </g>
    <g id="text_15">
     <!-- Prices, $ -->
     <defs>
      <path d="M 19.671875 64.796875 
L 19.671875 37.40625 
L 32.078125 37.40625 
Q 38.96875 37.40625 42.71875 40.96875 
Q 46.484375 44.53125 46.484375 51.125 
Q 46.484375 57.671875 42.71875 61.234375 
Q 38.96875 64.796875 32.078125 64.796875 
z
M 9.8125 72.90625 
L 32.078125 72.90625 
Q 44.34375 72.90625 50.609375 67.359375 
Q 56.890625 61.8125 56.890625 51.125 
Q 56.890625 40.328125 50.609375 34.8125 
Q 44.34375 29.296875 32.078125 29.296875 
L 19.671875 29.296875 
L 19.671875 0 
L 9.8125 0 
z
" id="DejaVuSans-50"/>
      <path d="M 41.109375 46.296875 
Q 39.59375 47.171875 37.8125 47.578125 
Q 36.03125 48 33.890625 48 
Q 26.265625 48 22.1875 43.046875 
Q 18.109375 38.09375 18.109375 28.8125 
L 18.109375 0 
L 9.078125 0 
L 9.078125 54.6875 
L 18.109375 54.6875 
L 18.109375 46.1875 
Q 20.953125 51.171875 25.484375 53.578125 
Q 30.03125 56 36.53125 56 
Q 37.453125 56 38.578125 55.875 
Q 39.703125 55.765625 41.0625 55.515625 
z
" id="DejaVuSans-72"/>
      <path d="M 9.421875 54.6875 
L 18.40625 54.6875 
L 18.40625 0 
L 9.421875 0 
z
M 9.421875 75.984375 
L 18.40625 75.984375 
L 18.40625 64.59375 
L 9.421875 64.59375 
z
" id="DejaVuSans-69"/>
      <path d="M 48.78125 52.59375 
L 48.78125 44.1875 
Q 44.96875 46.296875 41.140625 47.34375 
Q 37.3125 48.390625 33.40625 48.390625 
Q 24.65625 48.390625 19.8125 42.84375 
Q 14.984375 37.3125 14.984375 27.296875 
Q 14.984375 17.28125 19.8125 11.734375 
Q 24.65625 6.203125 33.40625 6.203125 
Q 37.3125 6.203125 41.140625 7.25 
Q 44.96875 8.296875 48.78125 10.40625 
L 48.78125 2.09375 
Q 45.015625 0.34375 40.984375 -0.53125 
Q 36.96875 -1.421875 32.421875 -1.421875 
Q 20.0625 -1.421875 12.78125 6.34375 
Q 5.515625 14.109375 5.515625 27.296875 
Q 5.515625 40.671875 12.859375 48.328125 
Q 20.21875 56 33.015625 56 
Q 37.15625 56 41.109375 55.140625 
Q 45.0625 54.296875 48.78125 52.59375 
z
" id="DejaVuSans-63"/>
      <path d="M 56.203125 29.59375 
L 56.203125 25.203125 
L 14.890625 25.203125 
Q 15.484375 15.921875 20.484375 11.0625 
Q 25.484375 6.203125 34.421875 6.203125 
Q 39.59375 6.203125 44.453125 7.46875 
Q 49.3125 8.734375 54.109375 11.28125 
L 54.109375 2.78125 
Q 49.265625 0.734375 44.1875 -0.34375 
Q 39.109375 -1.421875 33.890625 -1.421875 
Q 20.796875 -1.421875 13.15625 6.1875 
Q 5.515625 13.8125 5.515625 26.8125 
Q 5.515625 40.234375 12.765625 48.109375 
Q 20.015625 56 32.328125 56 
Q 43.359375 56 49.78125 48.890625 
Q 56.203125 41.796875 56.203125 29.59375 
z
M 47.21875 32.234375 
Q 47.125 39.59375 43.09375 43.984375 
Q 39.0625 48.390625 32.421875 48.390625 
Q 24.90625 48.390625 20.390625 44.140625 
Q 15.875 39.890625 15.1875 32.171875 
z
" id="DejaVuSans-65"/>
      <path d="M 11.71875 12.40625 
L 22.015625 12.40625 
L 22.015625 4 
L 14.015625 -11.625 
L 7.71875 -11.625 
L 11.71875 4 
z
" id="DejaVuSans-2c"/>
      <path id="DejaVuSans-20"/>
      <path d="M 33.796875 -14.703125 
L 28.90625 -14.703125 
L 28.859375 0 
Q 23.734375 0.09375 18.609375 1.1875 
Q 13.484375 2.296875 8.296875 4.5 
L 8.296875 13.28125 
Q 13.28125 10.15625 18.375 8.5625 
Q 23.484375 6.984375 28.90625 6.9375 
L 28.90625 29.203125 
Q 18.109375 30.953125 13.203125 35.15625 
Q 8.296875 39.359375 8.296875 46.6875 
Q 8.296875 54.640625 13.625 59.21875 
Q 18.953125 63.8125 28.90625 64.5 
L 28.90625 75.984375 
L 33.796875 75.984375 
L 33.796875 64.65625 
Q 38.328125 64.453125 42.578125 63.6875 
Q 46.828125 62.9375 50.875 61.625 
L 50.875 53.078125 
Q 46.828125 55.125 42.546875 56.25 
Q 38.28125 57.375 33.796875 57.5625 
L 33.796875 36.71875 
Q 44.875 35.015625 50.09375 30.609375 
Q 55.328125 26.21875 55.328125 18.609375 
Q 55.328125 10.359375 49.78125 5.59375 
Q 44.234375 0.828125 33.796875 0.09375 
z
M 28.90625 37.59375 
L 28.90625 57.625 
Q 23.25 56.984375 20.265625 54.390625 
Q 17.28125 51.8125 17.28125 47.515625 
Q 17.28125 43.3125 20.03125 40.96875 
Q 22.796875 38.625 28.90625 37.59375 
z
M 33.796875 28.21875 
L 33.796875 7.078125 
Q 39.984375 7.90625 43.140625 10.59375 
Q 46.296875 13.28125 46.296875 17.671875 
Q 46.296875 21.96875 43.28125 24.5 
Q 40.28125 27.046875 33.796875 28.21875 
z
" id="DejaVuSans-24"/>
     </defs>
     <g transform="translate(18.398438 128.129375)rotate(-90)scale(0.1 -0.1)">
      <use xlink:href="#DejaVuSans-50"/>
      <use x="60.287109" xlink:href="#DejaVuSans-72"/>
      <use x="101.400391" xlink:href="#DejaVuSans-69"/>
      <use x="129.183594" xlink:href="#DejaVuSans-63"/>
      <use x="184.164062" xlink:href="#DejaVuSans-65"/>
      <use x="245.6875" xlink:href="#DejaVuSans-73"/>
      <use x="297.787109" xlink:href="#DejaVuSans-2c"/>
      <use x="329.574219" xlink:href="#DejaVuSans-20"/>
      <use x="361.361328" xlink:href="#DejaVuSans-24"/>
     </g>
    </g>
   </g>
   <g id="line2d_14">
    <path clip-path="url(#p9676d0e317)" d="M 65.799006 156.982101 
L 66.040997 157.202645 
L 66.282989 158.455981 
L 66.524981 157.256436 
L 66.766973 157.256436 
L 67.008964 158.262332 
L 67.250956 158.5797 
L 67.492948 158.601217 
L 67.73494 156.772315 
L 68.218923 157.934206 
L 68.460915 156.019237 
L 68.702907 151.941861 
L 69.18689 152.694939 
L 69.428882 151.974136 
L 69.670874 152.850933 
L 70.154857 155.599666 
L 70.638841 154.539978 
L 70.880832 153.464153 
L 71.122824 154.760522 
L 71.364816 155.346847 
L 71.606808 155.362984 
L 71.848799 154.453912 
L 72.090791 155.857864 
L 72.332783 155.535116 
L 72.574775 155.87938 
L 72.816766 157.35326 
L 73.058758 156.729282 
L 73.30075 155.669594 
L 73.784733 158.047167 
L 74.026725 156.55715 
L 74.510709 157.72442 
L 74.7527 156.976721 
L 74.994692 160.844312 
L 75.478676 155.75566 
L 75.720667 159.020789 
L 76.204651 161.694213 
L 76.446643 160.553839 
L 76.688634 161.296158 
L 76.930626 165.249815 
L 77.172618 160.188059 
L 77.656601 163.092786 
L 77.898593 163.286434 
L 78.140585 164.238539 
L 78.382577 167.847932 
L 78.624568 166.50315 
L 78.86656 169.203471 
L 79.108552 169.068993 
L 79.350544 165.965238 
L 79.834527 173.119473 
L 80.076519 172.274951 
L 80.318511 172.081302 
L 80.560502 170.833345 
L 80.802494 172.307225 
L 81.044486 172.436324 
L 81.286478 172.258813 
L 81.528469 172.990374 
L 81.770461 172.656869 
L 82.012453 169.181954 
L 82.254445 168.724729 
L 82.496436 168.821553 
L 82.738428 168.536459 
L 82.98042 169.327191 
L 83.222412 167.885585 
L 83.706395 173.926342 
L 83.948387 172.855896 
L 84.190379 173.25933 
L 84.43237 174.421221 
L 84.674362 176.970926 
L 84.916354 175.158161 
L 85.400337 177.976822 
L 85.642329 178.649213 
L 85.884321 180.047785 
L 86.126313 180.483494 
L 86.368304 178.955823 
L 86.610296 176.465289 
L 86.852288 176.632041 
L 87.09428 175.679936 
L 87.336271 176.357706 
L 87.578263 177.557251 
L 87.820255 177.169954 
L 88.062247 175.007546 
L 88.304238 173.872551 
L 88.54623 173.366913 
L 88.788222 171.672489 
L 89.030214 171.758555 
L 89.514197 173.372292 
L 89.756189 171.758555 
L 89.998181 173.049545 
L 90.240172 171.016236 
L 90.482164 170.720384 
L 90.724156 171.312088 
L 90.966148 171.591802 
L 91.208139 172.517011 
L 91.450131 171.85 
L 91.934115 171.473461 
L 92.176106 172.753693 
L 92.418098 172.022132 
L 92.66009 171.742417 
L 92.902082 170.085647 
L 93.144073 170.247021 
L 93.386065 168.47191 
L 93.628057 169.095888 
L 93.870049 168.579492 
L 94.11204 169.467048 
L 94.354032 171.398153 
L 94.596024 171.650972 
L 94.838016 173.243193 
L 95.080007 171.656351 
L 95.321999 171.575665 
L 95.563991 173.270089 
L 95.805983 172.140473 
L 96.047974 172.46322 
L 96.289966 172.092061 
L 96.77395 173.270089 
L 97.015941 172.237297 
L 97.257933 172.430945 
L 97.499925 167.686558 
L 97.983908 165.120716 
L 98.2259 166.481634 
L 98.467892 165.34126 
L 98.709884 163.528495 
L 98.951875 163.442429 
L 99.193867 165.271331 
L 99.435859 164.70975 
L 99.677851 164.921688 
L 99.919842 165.298227 
L 100.161834 166.153507 
L 100.403826 165.787727 
L 100.645818 166.002892 
L 100.887809 164.975479 
L 101.129801 166.131991 
L 101.371793 164.039512 
L 101.855776 165.793106 
L 102.097768 164.475221 
L 102.33976 165.981375 
L 102.581752 166.13737 
L 102.823743 164.464462 
L 103.065735 164.485979 
L 103.307727 166.142749 
L 103.549719 166.788244 
L 104.033702 162.458049 
L 104.275694 161.89862 
L 104.517686 162.409637 
L 104.759677 163.297192 
L 105.001669 160.946515 
L 105.243661 161.000306 
L 105.485653 161.618906 
L 105.727644 161.694213 
L 105.969636 158.671146 
L 106.211628 160.161163 
L 106.45362 160.381707 
L 106.695611 159.6878 
L 106.937603 161.392982 
L 107.179595 160.898103 
L 107.421587 159.822278 
L 107.663578 159.790003 
L 108.147562 157.277952 
L 108.389554 157.374777 
L 108.631545 158.708799 
L 108.873537 157.918068 
L 109.115529 156.417293 
L 109.357521 156.86376 
L 109.841504 159.139129 
L 110.083496 157.772832 
L 110.325488 157.342502 
L 110.567479 157.6007 
L 110.809471 156.971342 
L 111.051463 156.723903 
L 111.293455 155.965446 
L 111.535446 153.894483 
L 112.01943 155.002583 
L 112.261422 156.406534 
L 112.503413 156.013858 
L 112.745405 156.853002 
L 112.987397 156.417293 
L 113.229389 155.271539 
L 113.47138 155.223127 
L 113.713372 156.68087 
L 113.955364 157.396293 
L 114.197356 157.041271 
L 114.439347 157.407051 
L 114.681339 159.418844 
L 114.923331 158.923964 
L 115.165323 159.736212 
L 115.649306 157.439326 
L 115.891298 157.385535 
L 116.13329 158.466739 
L 116.375281 158.638871 
L 116.617273 157.159612 
L 116.859265 157.853519 
L 117.343248 157.374777 
L 117.58524 154.65294 
L 117.827232 153.641664 
L 118.069224 153.23823 
L 118.311215 153.324296 
L 118.553207 152.226955 
L 118.795199 152.87245 
L 119.037191 152.485153 
L 119.279182 152.74873 
L 119.521174 153.232851 
L 120.005158 154.583011 
L 120.24715 155.137061 
L 120.489141 154.868105 
L 120.731133 155.435602 
L 120.973125 154.701352 
L 121.215117 156.750798 
L 121.457108 157.541529 
L 121.6991 156.686249 
L 122.183084 154.206472 
L 122.425075 154.663698 
L 122.667067 154.324813 
L 123.635034 158.64425 
L 123.877026 157.713661 
L 124.119018 157.315606 
L 124.361009 157.568425 
L 124.603001 155.502841 
L 124.844993 155.244643 
L 125.328976 153.006928 
L 125.570968 153.146785 
L 125.81296 151.866553 
L 126.054952 151.446982 
L 126.296943 151.565322 
L 126.538935 148.832727 
L 126.780927 152.802521 
L 127.022919 154.012824 
L 127.26491 153.614769 
L 127.506902 153.959033 
L 127.748894 153.017686 
L 127.990886 153.195197 
L 128.232877 152.291504 
L 128.716861 153.985928 
L 128.958853 153.889104 
L 129.200844 153.431879 
L 129.684828 154.378604 
L 129.92682 153.087615 
L 130.410803 154.367846 
L 130.652795 155.723385 
L 131.620762 153.604011 
L 132.104745 154.03972 
L 132.346737 154.141923 
L 132.588729 153.97517 
L 133.556696 157.29409 
L 134.040679 156.901414 
L 134.524663 155.088649 
L 134.766655 154.22261 
L 135.008646 153.85145 
L 135.49263 154.383984 
L 135.734622 150.53791 
L 136.218605 150.763833 
L 136.460597 150.613217 
L 136.702589 148.897277 
L 136.94458 149.634217 
L 137.186572 149.779453 
L 137.428564 150.634734 
L 137.670556 149.725662 
L 137.912547 149.989239 
L 138.154539 149.107063 
L 138.396531 150.35502 
L 138.880514 151.629872 
L 139.60649 148.106546 
L 139.848481 147.842968 
L 140.090473 148.977964 
L 140.332465 148.316331 
L 140.574457 146.901622 
L 140.816448 147.681595 
L 141.300432 148.397018 
L 141.542424 148.235645 
L 141.784415 149.074788 
L 142.026407 149.058651 
L 142.268399 135.589324 
L 142.510391 132.281216 
L 142.752382 133.663597 
L 142.994374 133.894899 
L 143.236366 133.390875 
L 143.478358 135.417192 
L 143.720349 135.401054 
L 143.962341 135.653873 
L 144.204333 136.337022 
L 144.446325 134.448949 
L 144.688316 131.442019 
L 144.930308 131.1892 
L 145.1723 129.317265 
L 145.414292 129.446364 
L 145.656283 129.112858 
L 145.898275 127.800352 
L 146.140267 128.542671 
L 146.382259 128.725561 
L 146.62425 128.704044 
L 146.866242 129.941243 
L 147.108234 129.580842 
L 147.350226 127.784214 
L 147.592217 127.816489 
L 147.834209 127.230164 
L 148.076201 128.461984 
L 148.560184 124.825696 
L 148.802176 122.808524 
L 149.044168 123.38947 
L 149.528151 127.13334 
L 149.770143 127.187131 
L 150.012135 128.693286 
L 150.254127 126.503983 
L 150.496118 127.165615 
L 150.73811 128.655632 
L 150.980102 129.274232 
L 151.464085 131.060101 
L 151.706077 130.215578 
L 151.948069 127.897176 
L 152.190061 127.38078 
L 152.432052 124.589014 
L 152.674044 124.841833 
L 152.916036 124.389987 
L 153.158028 124.336196 
L 153.642011 126.966587 
L 153.884003 127.300093 
L 154.125995 126.875142 
L 154.609978 129.397952 
L 154.85197 127.5045 
L 155.335953 130.823419 
L 155.577945 129.876694 
L 155.819937 130.823419 
L 156.061929 130.936381 
L 156.30392 130.683562 
L 156.545912 131.667942 
L 156.787904 131.216096 
L 157.029896 134.007861 
L 157.513879 135.05679 
L 157.997863 131.533464 
L 158.239854 131.86697 
L 158.481846 135.384917 
L 158.723838 135.788351 
L 158.96583 135.261197 
L 159.207821 136.961 
L 159.449813 136.181027 
L 159.691805 136.482258 
L 159.933797 135.836763 
L 160.175788 136.197165 
L 160.41778 134.728664 
L 160.659772 134.959966 
L 161.143755 136.761973 
L 161.385747 135.809868 
L 161.627739 136.111099 
L 161.869731 135.847521 
L 162.111722 136.261714 
L 162.353714 134.927691 
L 162.595706 135.745318 
L 162.837698 135.637736 
L 163.079689 132.334953 
L 163.321681 131.80242 
L 163.563673 131.608772 
L 163.805665 130.188683 
L 164.047656 129.984276 
L 164.289648 129.338781 
L 164.53164 130.032688 
L 164.773632 129.123616 
L 165.015623 127.472225 
L 165.257615 128.418951 
L 165.499607 128.79011 
L 165.741599 128.435088 
L 165.98359 128.677149 
L 166.225582 127.913313 
L 166.467574 129.209682 
L 166.709566 129.145133 
L 167.193549 130.45226 
L 167.435541 126.853626 
L 167.677533 126.676115 
L 167.919524 126.64384 
L 168.161516 125.859026 
L 168.403508 126.294197 
L 168.6455 128.42433 
L 168.887491 128.596462 
L 169.129483 126.407158 
L 169.371475 126.778318 
L 169.613467 123.502431 
L 169.855458 123.986553 
L 170.09745 123.373332 
L 170.339442 123.932761 
L 170.581434 121.716562 
L 170.823425 120.888177 
L 171.065417 122.851019 
L 171.307409 122.7117 
L 171.791392 120.56005 
L 172.033384 118.591291 
L 172.275376 122.066205 
L 172.517368 120.19427 
L 172.759359 122.932244 
L 173.001351 124.36847 
L 173.243343 123.088239 
L 173.485335 125.578773 
L 173.727326 125.368987 
L 173.969318 129.489397 
L 174.21131 128.897693 
L 174.453302 130.091859 
L 174.695293 132.098272 
L 174.937285 128.704044 
L 175.179277 129.150512 
L 175.421269 127.31623 
L 175.905252 130.187069 
L 176.147244 129.984276 
L 176.631227 132.308058 
L 176.873219 134.93307 
L 177.115211 133.313954 
L 177.357203 133.636701 
L 177.599194 132.162821 
L 177.841186 133.050377 
L 178.083178 131.173063 
L 178.32517 131.840074 
L 178.567161 133.034239 
L 179.051145 130.064963 
L 179.293137 133.287058 
L 179.535128 133.695872 
L 179.77712 135.403744 
L 180.019112 135.901313 
L 180.261104 133.050377 
L 180.503095 133.147201 
L 180.745087 132.716871 
L 180.987079 131.097755 
L 181.229071 131.06548 
L 181.471062 131.608772 
L 181.713054 131.641046 
L 181.955046 133.405399 
L 182.197038 133.536112 
L 182.439029 133.997103 
L 182.681021 135.675389 
L 182.923013 134.239163 
L 183.165005 135.960483 
L 183.406996 140.903898 
L 183.648988 140.554255 
L 183.89098 139.639804 
L 184.132972 140.618805 
L 184.374963 140.123925 
L 184.858947 136.810385 
L 185.100939 136.250956 
L 185.34293 135.040653 
L 185.584922 132.813695 
L 185.826914 133.001965 
L 186.068906 133.668976 
L 186.310897 135.589324 
L 186.552889 134.80935 
L 186.794881 134.723285 
L 187.036873 136.159511 
L 187.278864 134.739422 
L 187.520856 135.384917 
L 187.762848 135.637736 
L 188.00484 136.320884 
L 188.246831 136.320884 
L 188.488823 136.466121 
L 188.730815 135.912071 
L 189.214798 133.475328 
L 189.45679 130.6997 
L 189.698782 130.565221 
L 190.182765 130.027309 
L 190.424757 129.397952 
L 190.666749 131.608772 
L 190.908741 131.24837 
L 191.150732 132.254266 
L 191.392724 131.511947 
L 191.634716 130.011172 
L 191.876708 129.586221 
L 192.118699 130.705079 
L 192.360691 130.602875 
L 192.602683 131.226854 
L 192.844675 132.340332 
L 193.086666 131.092376 
L 193.328658 132.162821 
L 193.57065 131.205337 
L 193.812642 132.738388 
L 194.054633 132.178959 
L 194.296625 128.05855 
L 194.780609 124.669701 
L 195.0226 125.514224 
L 195.990567 121.291611 
L 196.232559 120.925831 
L 196.474551 121.087205 
L 196.716543 119.645599 
L 196.958534 119.540706 
L 197.200526 117.937835 
L 197.442518 118.247027 
L 197.926501 117.106653 
L 198.168493 112.867903 
L 198.410485 113.599464 
L 198.652477 113.421953 
L 198.894468 113.80387 
L 199.13646 114.842041 
L 199.378452 116.644048 
L 199.620444 115.740355 
L 199.862435 112.792595 
L 200.104427 115.734976 
L 200.346419 115.266992 
L 200.588411 115.654289 
L 200.830402 117.009828 
L 201.072394 115.154031 
L 201.314386 115.858696 
L 201.556378 115.665047 
L 201.798369 110.764665 
L 202.040361 111.345611 
L 202.282353 113.976002 
L 202.524345 113.976002 
L 203.008328 108.349438 
L 203.25032 108.419367 
L 203.492312 107.90835 
L 203.734303 109.220857 
L 203.976295 109.581258 
L 204.218287 110.447297 
L 204.460279 111.872765 
L 204.70227 110.780803 
L 204.944262 108.704461 
L 205.186254 108.457021 
L 205.670237 106.811009 
L 205.912229 107.736218 
L 206.154221 106.090206 
L 206.396213 107.682427 
L 207.122188 114.454744 
L 207.36418 114.148134 
L 207.606171 111.017484 
L 207.848163 110.667841 
L 208.090155 107.671669 
L 208.332147 108.849697 
L 208.574138 103.98159 
L 208.81613 104.008485 
L 209.058122 102.776666 
L 209.300114 104.976728 
L 209.542105 104.358128 
L 209.784097 104.368886 
L 210.026089 104.826112 
L 210.268081 103.55126 
L 210.510072 104.239788 
L 210.752064 104.497985 
L 210.994056 105.272579 
L 211.236048 104.858387 
L 211.478039 105.595327 
L 211.720031 105.76208 
L 211.962023 104.885282 
L 212.204015 103.556639 
L 212.446006 103.804078 
L 212.687998 100.732599 
L 212.92999 99.947246 
L 213.171982 99.941867 
L 213.413973 101.109137 
L 213.655965 101.351198 
L 213.897957 101.916006 
L 214.139949 100.689566 
L 214.38194 101.023071 
L 214.623932 102.50233 
L 214.865924 100.23234 
L 215.107916 99.807389 
L 215.349907 98.51102 
L 215.591899 99.350164 
L 215.833891 99.549191 
L 216.075883 99.9849 
L 216.559866 100.307648 
L 216.801858 99.527675 
L 217.285841 96.450816 
L 218.011817 103.890144 
L 218.253808 104.196755 
L 218.4958 104.277441 
L 218.737792 104.982107 
L 218.979784 100.10862 
L 219.221775 107.268234 
L 219.463767 108.075103 
L 219.947751 105.982624 
L 220.189742 105.8858 
L 220.431734 104.691634 
L 220.673726 104.422678 
L 220.915718 100.856318 
L 221.157709 99.651395 
L 221.399701 99.161894 
L 221.641693 97.52664 
L 221.883685 96.897283 
L 222.125676 97.644981 
L 222.367668 98.94135 
L 222.60966 98.32813 
L 222.851652 99.0059 
L 223.335635 104.2882 
L 223.577627 103.712633 
L 223.819619 103.986969 
L 224.303602 108.182686 
L 224.545594 106.794872 
L 224.787586 106.380679 
L 225.029577 106.983141 
L 225.513561 109.554362 
L 225.755553 108.392471 
L 225.997544 109.957797 
L 226.239536 108.919626 
L 226.72352 110.527984 
L 226.965511 110.73239 
L 227.207503 112.738804 
L 227.449495 112.281578 
L 227.691487 110.826525 
L 227.933478 111.862007 
L 228.17547 110.398885 
L 228.417462 107.289751 
L 228.659454 107.3543 
L 228.901445 108.231098 
L 229.385429 102.81432 
L 229.627421 102.432402 
L 229.869412 102.432402 
L 230.353396 99.656774 
L 230.595388 101.017692 
L 230.837379 99.86118 
L 231.079371 99.968763 
L 231.321363 100.329164 
L 231.563355 102.244132 
L 231.805346 101.270511 
L 232.047338 101.52333 
L 232.531322 103.395265 
L 232.773313 103.137067 
L 233.015305 100.420609 
L 233.257297 99.334026 
L 233.499289 99.586845 
L 233.74128 101.265132 
L 233.983272 93.556847 
L 234.225264 94.39599 
L 234.467256 93.997935 
L 234.709247 91.103966 
L 234.951239 92.577846 
L 235.193231 91.760219 
L 235.435223 93.298649 
L 235.677214 93.035072 
L 236.161198 89.624707 
L 236.40319 89.388026 
L 236.645181 88.478954 
L 236.887173 90.367026 
L 237.129165 95.773046 
L 237.85514 92.386887 
L 238.097132 92.470264 
L 238.823107 95.907524 
L 239.065099 94.433644 
L 239.307091 94.901628 
L 239.549082 93.524572 
L 239.791074 95.834906 
L 240.033066 95.159826 
L 240.275058 98.026899 
L 240.517049 99.441609 
L 240.759041 98.441092 
L 241.001033 98.172135 
L 241.243025 97.295338 
L 241.485016 98.989762 
L 241.727008 99.118861 
L 241.969 97.144723 
L 242.452983 100.53895 
L 242.694975 99.075828 
L 242.936967 98.349646 
L 243.178959 94.847837 
L 243.42095 96.246409 
L 243.662942 94.88549 
L 243.904934 95.751529 
L 244.146926 91.071691 
L 244.388917 90.479988 
L 244.630909 89.495608 
L 244.872901 89.328855 
L 245.356884 84.649017 
L 245.598876 84.111105 
L 246.08286 81.911043 
L 246.324851 84.993281 
L 246.566843 85.703325 
L 246.808835 84.482264 
L 247.050827 86.160551 
L 247.292818 84.821149 
L 247.53481 85.541952 
L 247.776802 82.029384 
L 248.260785 84.638259 
L 248.502777 82.857769 
L 248.744769 84.487643 
L 248.986761 84.116484 
L 249.228752 79.63137 
L 249.470744 78.887975 
L 249.954728 80.275789 
L 250.196719 85.450507 
L 250.438711 86.386474 
L 250.680703 90.947972 
L 250.922695 90.291718 
L 251.164686 95.13293 
L 251.406678 89.006108 
L 251.64867 94.901628 
L 252.132653 90.506883 
L 252.374645 90.15724 
L 252.616637 92.992039 
L 252.858629 93.933385 
L 253.10062 101.146791 
L 253.342612 103.077897 
L 253.584604 103.825595 
L 253.826596 95.213617 
L 254.068587 95.116793 
L 254.310579 96.031244 
L 255.036554 85.870078 
L 255.278546 83.551676 
L 255.76253 86.364958 
L 256.246513 81.039625 
L 256.488505 82.459714 
L 256.730497 85.617259 
L 257.21448 81.238652 
L 257.698464 77.338787 
L 257.940455 70.604124 
L 258.182447 69.318513 
L 258.424439 73.858494 
L 258.666431 74.600813 
L 258.908422 79.248376 
L 259.150414 79.04397 
L 259.392406 75.687396 
L 259.634398 78.721222 
L 259.876389 75.762704 
L 260.360373 83.013763 
L 260.602365 85.299891 
L 260.844356 85.020177 
L 261.086348 81.255866 
L 261.32834 80.173586 
L 261.570332 78.436129 
L 262.054315 72.658949 
L 262.296307 71.943526 
L 262.538299 72.298548 
L 262.78029 66.618193 
L 263.022282 68.974249 
L 263.264274 68.140485 
L 263.506266 74.783703 
L 264.232241 71.513196 
L 264.474233 77.13976 
L 264.716224 92.604742 
L 265.200208 82.427439 
L 265.4422 84.476885 
L 265.684191 85.232652 
L 266.168175 81.905664 
L 266.410167 82.879285 
L 266.652158 82.599571 
L 266.89415 82.067037 
L 267.136142 85.708705 
L 267.378134 85.940007 
L 267.620125 82.389785 
L 267.862117 81.5614 
L 268.104109 82.153103 
L 268.588092 89.312718 
L 269.072076 97.52664 
L 269.314068 95.864491 
L 269.556059 97.666498 
L 269.798051 101.211878 
L 270.040043 94.89087 
L 270.282035 97.989245 
L 270.766018 93.287891 
L 271.00801 93.879594 
L 271.250002 93.766633 
L 271.491993 96.05276 
L 271.733985 94.261512 
L 271.975977 96.865008 
L 272.217969 95.493332 
L 272.45996 97.381404 
L 272.701952 102.227995 
L 272.943944 102.389369 
L 273.185936 101.824561 
L 273.427927 101.824561 
L 273.669919 102.862732 
L 273.911911 101.146791 
L 274.153903 105.541536 
L 274.395894 103.024105 
L 275.12187 105.788975 
L 275.363861 105.805113 
L 275.605853 106.213926 
L 275.847845 103.024105 
L 276.089837 103.841732 
L 276.331828 103.787941 
L 276.57382 101.098379 
L 276.815812 103.276924 
L 277.057804 102.857353 
L 277.299795 103.094034 
L 277.541787 104.691634 
L 278.025771 101.609396 
L 278.509754 94.729496 
L 278.993738 99.226444 
L 279.477721 98.306613 
L 279.719713 95.339489 
L 279.961705 94.234616 
L 280.203696 95.966694 
L 280.445688 94.734875 
L 280.68768 102.792803 
L 280.929672 101.577121 
L 281.171663 98.371163 
L 281.413655 100.813285 
L 281.897639 99.55457 
L 282.13963 99.823527 
L 282.381622 99.522296 
L 282.623614 96.267925 
L 282.865606 96.42392 
L 283.349589 102.539984 
L 283.591581 101.157549 
L 283.833573 101.286648 
L 284.317556 103.099413 
L 284.559548 102.970314 
L 284.80154 103.293062 
L 285.043531 100.458263 
L 285.285523 102.669083 
L 285.527515 102.480814 
L 285.769507 102.878869 
L 286.25349 101.916006 
L 286.737474 98.392679 
L 286.979465 100.178549 
L 287.221457 100.678807 
L 287.463449 100.033312 
L 287.705441 101.286648 
L 287.947432 100.119378 
L 288.431416 99.533054 
L 288.673408 95.86987 
L 288.915399 96.192618 
L 289.157391 95.832216 
L 289.399383 94.412128 
L 289.641375 90.200273 
L 289.883366 88.817838 
L 290.125358 91.120104 
L 290.36735 89.264306 
L 290.609342 90.393922 
L 290.851333 92.793011 
L 291.093325 91.926972 
L 291.335317 94.976936 
L 291.577309 94.761771 
L 291.8193 96.11731 
L 292.061292 98.747702 
L 292.303284 98.215168 
L 292.545276 96.752047 
L 293.029259 99.543812 
L 293.513243 96.54764 
L 293.755234 96.531502 
L 293.997226 97.133964 
L 294.239218 98.069932 
L 294.48121 96.945695 
L 294.723201 94.745633 
L 294.965193 93.901111 
L 295.207185 77.301133 
L 295.449177 74.584676 
L 295.691168 75.585193 
L 295.93316 75.472231 
L 296.175152 75.902561 
L 296.417144 78.839563 
L 296.659135 78.210205 
L 297.143119 79.382854 
L 297.385111 77.387199 
L 297.627102 76.854666 
L 297.869094 79.40975 
L 298.111086 78.624398 
L 298.353078 78.801909 
L 298.837061 84.293995 
L 299.079053 82.002488 
L 299.321045 83.497884 
L 299.563036 82.448955 
L 300.04702 84.810391 
L 300.289012 83.809874 
L 300.531003 86.77915 
L 300.772995 84.799633 
L 301.014987 87.322442 
L 301.256979 83.906698 
L 301.49897 84.638259 
L 301.740962 82.255307 
L 301.982954 81.631328 
L 302.224946 81.80346 
L 302.466937 82.868527 
L 302.708929 82.91156 
L 302.950921 83.820632 
L 303.192913 83.971247 
L 303.676896 79.554986 
L 303.918888 78.818046 
L 304.16088 79.361338 
L 304.402871 80.676534 
L 304.644863 79.823943 
L 304.886855 80.94818 
L 305.128847 77.968145 
L 305.370838 77.962766 
L 305.61283 80.281168 
L 305.854822 76.494265 
L 306.096814 75.97249 
L 306.338805 75.859528 
L 306.822789 78.269376 
L 307.064781 78.269376 
L 307.306772 81.25479 
L 307.548764 81.862631 
L 307.790756 83.481747 
L 308.032748 81.851872 
L 308.274739 83.132104 
L 308.758723 82.346752 
L 309.000715 77.666914 
L 309.242706 76.526539 
L 309.72669 79.35058 
L 309.968682 82.572675 
L 310.210673 80.980454 
L 310.452665 71.66919 
L 310.694657 72.330823 
L 310.936649 73.831598 
L 311.420632 75.171 
L 311.662624 72.933284 
L 311.904616 73.460439 
L 312.146607 72.078004 
L 312.388599 73.250653 
L 312.630591 73.422785 
L 312.872583 74.12745 
L 313.114574 74.294203 
L 313.356566 73.890769 
L 313.84055 69.393821 
L 314.082541 69.598227 
L 314.566525 70.523437 
L 314.808517 68.560056 
L 315.050508 69.583166 
L 315.2925 67.139968 
L 315.534492 68.118968 
L 315.776484 66.94094 
L 316.018475 66.397649 
L 316.260467 66.88177 
L 316.502459 65.779049 
L 316.744451 65.988835 
L 316.986443 66.88177 
L 317.228434 64.106142 
L 317.470426 59.931941 
L 317.95441 61.798497 
L 318.196401 61.820014 
L 318.438393 59.340238 
L 318.680385 58.786188 
L 318.922377 60.545161 
L 319.164368 60.141727 
L 319.40636 58.565644 
L 319.648352 59.033627 
L 320.132335 62.263792 
L 320.616319 65.025972 
L 320.858311 61.303618 
L 321.584286 64.525713 
L 322.068269 59.216518 
L 322.310261 60.270826 
L 322.552253 59.974974 
L 323.036236 67.543402 
L 323.278228 67.957595 
L 323.52022 68.958112 
L 323.762212 67.979111 
L 324.004203 68.10821 
L 324.246195 66.198621 
L 324.488187 67.61871 
L 324.97217 73.5734 
L 325.214162 73.288307 
L 325.698146 79.415129 
L 325.940137 71.174311 
L 326.182129 74.050475 
L 326.424121 74.455577 
L 326.666113 74.30367 
L 326.908104 73.277548 
L 327.150096 71.540091 
L 327.63408 77.032177 
L 327.876071 77.591606 
L 328.360055 77.435611 
L 328.844038 80.663624 
L 329.812005 71.287272 
L 330.053997 70.292134 
L 330.295989 68.280342 
L 330.537981 68.397768 
L 331.021964 64.165312 
L 331.263956 63.74574 
L 331.505948 64.671434 
L 331.989931 62.718328 
L 332.231923 63.035696 
L 332.473915 63.090509 
L 332.715906 66.048005 
L 332.957898 64.477301 
L 333.19989 63.901735 
L 333.441882 64.17607 
L 333.683873 65.28417 
L 334.167857 59.254172 
L 334.409849 60.550541 
L 334.65184 58.662468 
L 334.893832 61.126107 
L 335.135824 60.211656 
L 335.377816 65.584648 
L 335.619807 65.757533 
L 335.861799 67.441199 
L 336.345783 60.916321 
L 336.829766 59.926562 
L 337.071758 54.919028 
L 337.31375 56.037455 
L 337.555741 56.053593 
L 337.797733 56.596884 
L 338.039725 55.198312 
L 338.281717 52.621711 
L 338.523708 53.068179 
L 338.7657 54.665779 
L 339.249684 52.949838 
L 339.733667 55.106867 
L 339.975659 52.142969 
L 340.217651 46.564818 
L 340.459642 50.841221 
L 340.701634 59.281067 
L 340.943626 52.603422 
L 341.185618 56.510818 
L 341.427609 56.779774 
L 341.669601 59.480095 
L 341.911593 55.76312 
L 342.153585 58.275171 
L 342.395576 59.345617 
L 342.637568 58.420407 
L 342.87956 60.970112 
L 343.121552 60.168623 
L 343.363543 54.375306 
L 343.605535 54.499026 
L 343.847527 56.731362 
L 344.089519 54.22469 
L 344.33151 56.021318 
L 344.815494 56.553851 
L 345.057486 59.539265 
L 345.299477 59.813601 
L 345.541469 57.721121 
L 346.025453 56.381719 
L 346.267444 52.417305 
L 346.509436 51.083282 
L 346.751428 52.051524 
L 346.99342 52.003112 
L 347.235411 51.836359 
L 347.477403 53.423201 
L 347.719395 51.868634 
L 347.961387 51.346859 
L 348.203378 56.381719 
L 348.687362 60.604332 
L 348.929354 61.400442 
L 349.171345 60.933534 
L 349.413337 63.024938 
L 349.655329 60.67964 
L 349.897321 61.610228 
L 350.381304 56.618401 
L 350.623296 55.978285 
L 350.865288 58.603298 
L 351.107279 57.682391 
L 351.349271 59.991112 
L 351.591263 59.964216 
L 351.833255 61.900701 
L 353.043213 52.546404 
L 353.285205 55.316653 
L 353.527197 52.831497 
L 353.769189 55.488785 
L 354.01118 59.781326 
L 354.253172 59.297205 
L 354.495164 57.559747 
L 354.737156 54.681916 
L 354.979147 54.746465 
L 355.221139 51.562024 
L 355.463131 62.261102 
L 355.705123 64.988318 
L 355.947114 62.799014 
L 356.189106 65.800566 
L 356.67309 60.518266 
L 356.915081 61.771602 
L 357.157073 60.690398 
L 357.399065 60.179381 
L 357.641057 59.383271 
L 357.883048 57.516714 
L 358.12504 57.043352 
L 358.367032 54.988526 
L 358.851015 57.253137 
L 359.093007 54.144004 
L 359.334999 55.365065 
L 359.576991 54.703432 
L 359.818982 57.877116 
L 360.060974 58.501094 
L 360.302966 58.533369 
L 360.544958 55.547955 
L 360.786949 56.494681 
L 361.028941 55.795395 
L 361.270933 54.520542 
L 361.512925 55.768499 
L 361.754916 56.403236 
L 361.996908 55.612504 
L 362.2389 55.257482 
L 362.480892 50.394754 
L 362.722883 48.135522 
L 362.964875 51.518991 
L 363.206867 53.191899 
L 363.448859 50.975699 
L 363.69085 51.943942 
L 364.174834 47.764362 
L 364.658817 52.239794 
L 364.900809 52.282827 
L 365.142801 53.762086 
L 365.384793 52.967051 
L 365.626784 50.018215 
L 366.110768 49.953666 
L 366.35276 47.581472 
L 366.594751 46.704675 
L 366.836743 46.543301 
L 367.078735 45.548163 
L 367.320727 43.014596 
L 367.80471 42.078628 
L 368.288694 33.891601 
L 368.530685 34.418755 
L 368.772677 34.257381 
L 369.014669 33.278381 
L 369.256661 35.74202 
L 369.498652 35.139558 
L 369.982636 37.382652 
L 370.224628 38.523027 
L 370.466619 36.123937 
L 370.466619 36.123937 
" style="fill:none;stroke:#ff0000;stroke-linecap:square;stroke-width:1.5;"/>
   </g>
   <g id="line2d_15">
    <path clip-path="url(#p9676d0e317)" d="M 65.799006 165.461138 
L 66.040997 165.876098 
L 66.282989 165.453453 
L 66.766973 164.363027 
L 67.008964 164.304627 
L 67.250956 164.130957 
L 67.73494 163.361741 
L 67.976931 163.686027 
L 68.218923 163.681414 
L 68.460915 164.082546 
L 68.702907 164.219327 
L 68.944898 163.137354 
L 69.18689 161.06716 
L 69.428882 161.179353 
L 70.154857 160.15809 
L 70.396849 160.628378 
L 70.638841 160.521565 
L 71.122824 160.846618 
L 71.364816 161.057938 
L 71.606808 161.980074 
L 71.848799 161.545901 
L 72.332783 161.434479 
L 72.574775 160.938062 
L 72.816766 160.885039 
L 73.058758 161.02413 
L 73.30075 160.520026 
L 73.542742 160.427814 
L 73.784733 163.439355 
L 74.268717 163.260308 
L 74.510709 163.901193 
L 74.7527 164.903245 
L 74.994692 163.73367 
L 75.478676 162.594833 
L 75.720667 161.203944 
L 75.962659 161.297694 
L 76.446643 161.980074 
L 76.688634 162.150671 
L 76.930626 162.652465 
L 77.172618 162.560253 
L 77.656601 161.633504 
L 77.898593 162.144524 
L 78.382577 161.677306 
L 78.624568 162.084586 
L 78.86656 161.571264 
L 79.108552 161.903999 
L 79.350544 161.68576 
L 79.592535 161.095592 
L 79.834527 160.843544 
L 80.076519 160.905788 
L 80.560502 159.999789 
L 80.802494 158.874783 
L 81.044486 159.444201 
L 81.528469 158.497478 
L 81.770461 158.672683 
L 82.012453 158.117095 
L 82.254445 159.397326 
L 82.496436 158.983135 
L 82.738428 159.058442 
L 82.98042 159.282829 
L 83.222412 159.015408 
L 83.464403 159.048453 
L 83.948387 159.783856 
L 84.190379 159.368126 
L 84.43237 159.546405 
L 84.674362 159.521047 
L 85.158346 158.861719 
L 85.400337 158.983902 
L 85.642329 159.441898 
L 85.884321 159.426529 
L 86.126313 159.551786 
L 86.852288 159.05076 
L 87.578263 156.447261 
L 87.820255 156.42421 
L 88.304238 155.321487 
L 88.788222 156.224413 
L 89.272205 155.75566 
L 89.514197 156.129124 
L 89.756189 156.074565 
L 89.998181 156.676258 
L 90.240172 156.615552 
L 90.482164 157.085072 
L 90.724156 157.100441 
L 90.966148 157.413199 
L 91.208139 155.678814 
L 91.450131 155.533579 
L 91.692123 155.671131 
L 92.418098 156.741576 
L 92.66009 156.625541 
L 92.902082 156.842242 
L 93.144073 158.026419 
L 93.386065 157.498495 
L 93.628057 157.921912 
L 93.870049 157.307921 
L 94.354032 158.605826 
L 94.596024 157.967248 
L 94.838016 156.791525 
L 95.080007 156.685479 
L 95.321999 156.948287 
L 95.563991 157.754389 
L 95.805983 156.992089 
L 96.047974 157.066629 
L 96.289966 156.754639 
L 96.531958 157.05664 
L 96.77395 160.231092 
L 97.015941 160.600713 
L 97.257933 160.709066 
L 97.499925 161.274643 
L 97.741917 160.703685 
L 97.983908 160.454711 
L 98.2259 160.400149 
L 98.467892 160.131193 
L 98.709884 159.261312 
L 98.951875 159.470331 
L 99.435859 158.06484 
L 99.677851 158.240817 
L 99.919842 157.64066 
L 100.161834 157.369398 
L 100.403826 157.465455 
L 100.645818 158.369148 
L 100.887809 158.384517 
L 101.129801 159.125295 
L 101.371793 158.646554 
L 101.855776 159.587133 
L 102.097768 158.66961 
L 102.33976 159.10455 
L 102.581752 158.522069 
L 102.823743 158.528216 
L 103.065735 158.384517 
L 103.549719 158.724935 
L 103.79171 158.180107 
L 104.033702 158.252341 
L 104.275694 158.027186 
L 104.517686 158.691894 
L 105.001669 158.913975 
L 105.243661 158.425244 
L 105.485653 158.607365 
L 105.727644 158.450603 
L 105.969636 157.951879 
L 106.45362 157.329438 
L 106.695611 157.828929 
L 106.937603 157.959565 
L 107.179595 157.889634 
L 107.421587 158.002595 
L 107.663578 157.647575 
L 108.147562 157.845065 
L 108.389554 158.751065 
L 108.873537 159.164488 
L 109.115529 158.546655 
L 109.357521 159.444201 
L 109.599512 159.221353 
L 110.083496 159.517206 
L 110.325488 159.367359 
L 110.809471 158.72878 
L 111.051463 158.671144 
L 111.293455 155.662677 
L 111.535446 155.945467 
L 111.777438 155.309959 
L 112.01943 153.700835 
L 112.503413 153.834546 
L 112.745405 153.808416 
L 112.987397 153.977474 
L 113.229389 153.081467 
L 113.955364 154.407806 
L 114.923331 153.627062 
L 115.165323 154.093513 
L 115.649306 152.873217 
L 115.891298 152.925472 
L 116.13329 152.712613 
L 116.375281 152.662664 
L 116.859265 151.220291 
L 117.101257 151.079665 
L 117.343248 150.301229 
L 117.827232 151.03279 
L 118.311215 149.669566 
L 118.553207 149.38524 
L 118.795199 149.462087 
L 119.037191 148.370121 
L 119.279182 148.692872 
L 119.521174 148.741282 
L 119.763166 149.731043 
L 120.005158 150.1022 
L 120.24715 149.671872 
L 120.731133 149.682628 
L 121.457108 150.511014 
L 121.6991 150.801487 
L 121.941092 150.715419 
L 122.183084 150.47336 
L 122.667067 149.020998 
L 122.909059 148.832726 
L 123.151051 148.940311 
L 123.393042 148.687492 
L 123.635034 147.541739 
L 123.877026 147.988204 
L 124.119018 148.891897 
L 124.361009 148.031237 
L 124.603001 147.762281 
L 124.844993 147.256642 
L 125.086985 147.165198 
L 125.570968 148.967204 
L 125.81296 148.230267 
L 126.054952 148.397018 
L 126.296943 147.998964 
L 126.538935 147.127544 
L 126.780927 147.229749 
L 127.022919 146.707973 
L 127.26491 145.895724 
L 127.748894 147.062993 
L 127.990886 148.278676 
L 128.232877 147.487945 
L 128.716861 148.359364 
L 128.958853 148.26254 
L 129.200844 148.62294 
L 129.684828 147.665457 
L 129.92682 147.606286 
L 130.168811 146.971549 
L 130.652795 146.347573 
L 131.136778 145.298642 
L 131.37877 145.228714 
L 131.620762 145.379329 
L 131.862754 144.57246 
L 132.346737 144.986655 
L 132.588729 144.680046 
L 132.830721 143.996894 
L 133.314704 143.867797 
L 133.556696 146.153925 
L 133.798688 146.180817 
L 134.040679 145.911861 
L 134.282671 146.030203 
L 134.524663 146.605769 
L 134.766655 145.314778 
L 135.008646 144.884451 
L 135.250638 144.023791 
L 135.49263 145.642905 
L 135.734622 144.852177 
L 136.218605 144.303504 
L 136.460597 144.56708 
L 136.702589 145.212578 
L 136.94458 144.373431 
L 137.428564 146.326056 
L 137.670556 146.261505 
L 137.912547 145.099616 
L 138.154539 145.217958 
L 138.396531 145.928002 
L 138.638523 145.836554 
L 138.880514 145.562221 
L 139.364498 146.202335 
L 139.60649 144.706939 
L 139.848481 145.164164 
L 140.090473 144.8199 
L 140.332465 145.325539 
L 140.816448 147.929033 
L 141.05844 146.880105 
L 141.300432 146.439017 
L 141.542424 143.91083 
L 141.784415 144.007655 
L 142.268399 142.748938 
L 142.510391 142.92645 
L 142.752382 142.630596 
L 142.994374 141.958206 
L 143.236366 141.791454 
L 143.478358 141.226645 
L 143.720349 141.113684 
L 143.962341 140.500463 
L 144.204333 140.640322 
L 144.446325 140.909278 
L 144.930308 140.683356 
L 145.1723 140.855488 
L 145.414292 140.489707 
L 145.898275 138.461775 
L 146.140267 137.859316 
L 146.382259 138.036824 
L 146.62425 137.229955 
L 146.866242 137.515048 
L 147.108234 136.116477 
L 147.350226 136.471501 
L 147.592217 135.277334 
L 147.834209 135.885174 
L 148.076201 135.169753 
L 148.318193 135.417193 
L 148.560184 138.273506 
L 148.802176 137.063204 
L 149.28616 136.934106 
L 149.528151 137.95076 
L 149.770143 140.053996 
L 150.012135 137.784004 
L 150.496118 139.908761 
L 150.73811 139.779663 
L 150.980102 142.10882 
L 151.222094 141.705386 
L 151.464085 139.150302 
L 151.706077 138.940517 
L 151.948069 138.994307 
L 152.190061 138.418741 
L 152.674044 139.026585 
L 152.916036 138.117511 
L 153.158028 138.198199 
L 153.400019 138.639287 
L 153.642011 139.408502 
L 154.125995 142.017376 
L 154.367986 141.662356 
L 154.609978 140.570391 
L 154.85197 138.719975 
L 155.093962 138.757629 
L 155.335953 139.386985 
L 155.577945 140.672595 
L 155.819937 140.1562 
L 156.061929 141.7538 
L 156.545912 140.72101 
L 156.787904 140.016342 
L 157.271887 138.144409 
L 157.513879 138.854453 
L 157.755871 136.05193 
L 157.997863 136.756593 
L 158.239854 135.637735 
L 158.481846 135.826003 
L 158.723838 135.583944 
L 158.96583 135.583944 
L 159.207821 134.766319 
L 159.449813 134.766319 
L 159.691805 135.557047 
L 159.933797 134.685632 
L 160.659772 130.861074 
L 161.143755 130.672806 
L 161.385747 130.215581 
L 161.627739 130.140273 
L 161.869731 129.387191 
L 162.111722 127.816488 
L 162.353714 128.558809 
L 162.595706 130.048829 
L 162.837698 129.397952 
L 163.079689 129.801386 
L 163.321681 129.957377 
L 163.563673 129.882069 
L 163.805665 130.161786 
L 164.047656 130.258615 
L 164.289648 130.495293 
L 164.773632 132.221992 
L 165.015623 133.534499 
L 165.257615 132.41026 
L 165.499607 132.689977 
L 165.98359 131.011689 
L 166.225582 130.070342 
L 166.467574 130.339298 
L 166.709566 130.947138 
L 166.951557 130.887967 
L 167.193549 131.259128 
L 167.435541 133.292436 
L 167.677533 132.318816 
L 167.919524 132.598529 
L 168.161516 131.501191 
L 168.403508 132.184338 
L 168.6455 132.071377 
L 168.887491 132.372607 
L 169.129483 130.667425 
L 169.371475 131.630289 
L 169.855458 131.576498 
L 170.09745 130.274751 
L 170.339442 131.011689 
L 170.581434 131.329055 
L 170.823425 131.398986 
L 171.065417 131.79166 
L 171.307409 131.780904 
L 171.549401 130.419982 
L 171.791392 131.017069 
L 172.033384 130.312401 
L 172.759359 126.998858 
L 173.001351 129.311883 
L 173.243343 130.129513 
L 173.485335 131.495811 
L 173.727326 129.666908 
L 174.21131 131.248371 
L 174.453302 132.211235 
L 174.695293 131.183821 
L 174.937285 130.801903 
L 175.179277 131.764767 
L 175.421269 131.468913 
L 175.905252 129.898206 
L 176.147244 130.269367 
L 176.389236 129.026791 
L 176.631227 129.397952 
L 176.873219 129.360294 
L 177.357203 127.999376 
L 177.599194 129.215063 
L 177.841186 128.397434 
L 178.567161 129.473259 
L 178.809153 129.042927 
L 179.051145 129.623874 
L 179.293137 129.666908 
L 179.535128 129.989658 
L 179.77712 131.173064 
L 180.261104 129.839043 
L 180.503095 130.371572 
L 180.745087 131.495811 
L 181.229071 130.624391 
L 181.471062 130.887967 
L 181.713054 130.629772 
L 182.439029 130.898728 
L 182.681021 130.011171 
L 182.923013 130.651289 
L 183.165005 131.840074 
L 183.406996 131.780904 
L 183.648988 131.065479 
L 183.89098 131.318299 
L 184.132972 132.119787 
L 184.374963 131.608772 
L 184.616955 132.367226 
L 184.858947 132.706114 
L 185.100939 133.733525 
L 185.34293 132.071377 
L 185.584922 131.528084 
L 185.826914 131.700216 
L 186.794881 127.864898 
L 187.036873 133.706631 
L 187.278864 131.44202 
L 187.520856 131.915382 
L 187.762848 133.114929 
L 188.00484 132.958933 
L 188.246831 133.082651 
L 188.488823 133.529119 
L 188.730815 133.378505 
L 188.972807 133.970207 
L 189.45679 138.56936 
L 189.698782 136.944862 
L 189.940774 137.69256 
L 190.424757 135.955105 
L 190.666749 138.795282 
L 190.908741 136.907208 
L 191.150732 137.832418 
L 191.392724 136.907208 
L 191.634716 136.697423 
L 191.876708 136.874935 
L 192.118699 137.961516 
L 192.360691 139.924898 
L 192.602683 148.294813 
L 192.844675 139.559117 
L 193.086666 141.721527 
L 193.328658 138.956654 
L 193.812642 139.064238 
L 194.054633 140.075512 
L 194.296625 140.032479 
L 194.538617 138.816799 
L 194.780609 140.710249 
L 195.264592 138.133648 
L 195.506584 140.010965 
L 195.748576 139.193336 
L 195.990567 136.616735 
L 196.232559 136.966379 
L 196.474551 136.794247 
L 196.716543 137.111614 
L 196.958534 138.967414 
L 197.200526 138.182062 
L 197.442518 138.338058 
L 197.68451 138.203579 
L 197.926501 138.407985 
L 198.168493 136.692043 
L 198.410485 138.085238 
L 198.652477 138.633907 
L 198.894468 140.064756 
L 199.378452 141.226645 
L 199.620444 140.220751 
L 200.104427 139.220233 
L 200.346419 140.053996 
L 200.588411 140.1562 
L 200.830402 138.687697 
L 201.072394 139.715112 
L 201.314386 139.462292 
L 201.556378 139.655941 
L 201.798369 139.198716 
L 202.040361 139.725868 
L 202.282353 139.435399 
L 202.524345 138.00455 
L 202.766336 137.827038 
L 203.25032 135.809867 
L 203.492312 137.251472 
L 203.976295 135.476364 
L 204.218287 134.244544 
L 204.70227 134.352124 
L 204.944262 133.093411 
L 205.428246 134.179992 
L 205.670237 134.26068 
L 205.912229 136.444603 
L 206.154221 136.729696 
L 206.396213 136.788867 
L 206.638204 137.359057 
L 206.880196 139.413882 
L 207.122188 137.509672 
L 207.36418 137.057823 
L 207.848163 135.207407 
L 208.090155 135.169753 
L 208.332147 136.213301 
L 208.574138 135.202027 
L 208.81613 135.696905 
L 209.058122 135.858281 
L 209.300114 135.449466 
L 209.784097 136.632872 
L 210.026089 137.310643 
L 210.268081 135.325745 
L 210.510072 136.1111 
L 210.752064 136.04655 
L 211.720031 139.112649 
L 211.962023 139.580634 
L 212.204015 139.069618 
L 212.446006 140.742522 
L 212.687998 141.619322 
L 212.92999 141.554771 
L 213.171982 141.624703 
L 213.413973 140.694112 
L 213.655965 141.452571 
L 213.897957 141.791454 
L 214.139949 140.920035 
L 214.38194 141.764557 
L 214.623932 144.131372 
L 214.865924 142.442328 
L 215.107916 145.234094 
L 215.349907 146.245369 
L 215.591899 146.315296 
L 215.833891 146.089373 
L 216.075883 145.239471 
L 216.317874 145.363192 
L 216.801858 147.579393 
L 217.04385 146.390603 
L 217.285841 148.171096 
L 218.011817 144.717699 
L 218.253808 145.572978 
L 218.737792 148.87576 
L 218.979784 148.337847 
L 219.221775 147.434155 
L 219.463767 147.998964 
L 219.705759 148.224886 
L 220.189742 147.407261 
L 220.431734 149.230784 
L 220.915718 147.730008 
L 221.157709 148.87576 
L 221.399701 148.660594 
L 221.641693 148.21413 
L 222.125676 146.159305 
L 222.367668 147.686974 
L 222.851652 147.471808 
L 223.093643 148.773555 
L 223.577627 147.041481 
L 223.819619 147.224369 
L 224.06161 146.799417 
L 224.303602 145.260988 
L 224.545594 145.223334 
L 224.787586 144.26047 
L 225.029577 144.249714 
L 225.271569 145.115753 
L 225.513561 144.83066 
L 225.755553 144.776866 
L 225.997544 144.330401 
L 226.239536 144.507909 
L 226.481528 143.405192 
L 226.965511 142.566049 
L 227.207503 142.124962 
L 227.691487 142.711284 
L 227.933478 142.04965 
L 228.17547 142.592943 
L 228.417462 142.30785 
L 228.659454 142.904933 
L 228.901445 140.882381 
L 229.143437 140.306815 
L 229.385429 140.812454 
L 229.627421 139.930278 
L 229.869412 140.419776 
L 230.111404 140.032479 
L 230.353396 140.183097 
L 230.595388 140.742522 
L 230.837379 140.710249 
L 231.079371 140.511224 
L 231.563355 139.28478 
L 231.805346 139.021204 
L 232.047338 140.753283 
L 232.531322 141.963586 
L 232.773313 141.807591 
L 233.015305 142.840382 
L 233.257297 142.845762 
L 233.499289 143.432084 
L 233.74128 147.686974 
L 233.983272 146.820934 
L 234.225264 148.768179 
L 234.467256 148.778936 
L 234.709247 148.655218 
L 234.951239 148.117305 
L 235.435223 149.101682 
L 235.677214 149.300711 
L 236.161198 149.042512 
L 236.40319 149.451326 
L 236.645181 150.914448 
L 237.129165 148.466945 
L 237.371157 148.676731 
L 237.613148 148.418535 
L 237.85514 148.418535 
L 238.823107 145.707456 
L 239.065099 145.836554 
L 239.307091 145.75049 
L 239.549082 146.06248 
L 239.791074 146.826315 
L 240.275058 146.616529 
L 240.517049 145.938759 
L 240.759041 146.06248 
L 241.001033 146.342193 
L 241.485016 146.239988 
L 241.727008 146.976929 
L 241.969 146.707973 
L 242.210992 147.444915 
L 242.452983 147.353467 
L 242.694975 147.686974 
L 242.936967 148.25716 
L 243.178959 147.552496 
L 243.42095 147.719248 
L 243.662942 149.349121 
L 244.146926 149.354501 
L 244.388917 148.778936 
L 244.630909 148.526116 
L 244.872901 147.96131 
L 245.114893 148.015101 
L 245.356884 148.440052 
L 245.840868 147.423398 
L 246.808835 146.939276 
L 247.050827 146.116271 
L 247.292818 146.234612 
L 247.776802 145.535324 
L 248.018794 145.626768 
L 248.260785 145.933378 
L 248.744769 147.245886 
L 248.986761 143.23844 
L 249.228752 144.013031 
L 249.470744 143.28147 
L 249.712736 143.163128 
L 249.954728 142.280952 
L 250.196719 142.947967 
L 251.406678 140.850108 
L 251.64867 140.952312 
L 251.890662 141.350366 
L 252.132653 141.156718 
L 252.374645 140.355229 
L 252.616637 140.640322 
L 252.858629 140.570391 
L 253.10062 140.817834 
L 253.342612 140.76942 
L 253.584604 140.914659 
L 253.826596 140.925415 
L 254.068587 141.560152 
L 254.310579 141.549391 
L 254.794563 142.415431 
L 255.036554 142.490738 
L 255.278546 142.232542 
L 255.520538 141.3934 
L 255.76253 141.285815 
L 256.004521 141.323469 
L 256.246513 141.635459 
L 256.730497 144.109855 
L 256.972488 141.495601 
L 257.21448 140.839347 
L 257.456472 138.079857 
L 257.698464 137.402087 
L 257.940455 137.364433 
L 258.182447 138.515565 
L 258.666431 137.816282 
L 258.908422 137.778628 
L 259.150414 139.274024 
L 259.392406 138.542463 
L 259.634398 138.171302 
L 260.118381 138.832936 
L 260.844356 138.327297 
L 261.086348 138.165926 
L 261.570332 137.455881 
L 261.812323 136.014276 
L 262.296307 136.503774 
L 262.538299 135.917452 
L 262.78029 136.213301 
L 263.022282 135.756076 
L 263.264274 136.256335 
L 263.506266 136.46612 
L 263.748257 136.493017 
L 263.990249 136.337023 
L 264.232241 135.879798 
L 264.474233 137.837799 
L 264.716224 137.256853 
L 264.958216 138.074477 
L 265.4422 138.295024 
L 265.684191 139.403122 
L 265.926183 139.629044 
L 266.168175 140.946932 
L 266.410167 140.113166 
L 266.652158 139.989448 
L 266.89415 140.220751 
L 267.136142 139.569878 
L 267.378134 141.705386 
L 267.620125 141.38802 
L 267.862117 142.00124 
L 268.104109 141.931313 
L 268.346101 140.258404 
L 268.588092 140.306815 
L 268.830084 140.091649 
L 269.072076 139.107272 
L 269.314068 139.424639 
L 269.556059 139.548361 
L 269.798051 139.386985 
L 270.040043 139.736629 
L 270.282035 139.295541 
L 270.766018 140.602668 
L 271.00801 140.1562 
L 271.491993 140.554254 
L 271.975977 138.913623 
L 272.701952 137.445121 
L 272.943944 137.262233 
L 273.185936 136.675906 
L 273.427927 137.036306 
L 273.669919 136.530671 
L 273.911911 136.498394 
L 274.153903 136.740457 
L 274.395894 137.149272 
L 274.879878 136.1111 
L 275.12187 136.686666 
L 275.363861 136.579081 
L 275.605853 137.036306 
L 276.089837 136.97176 
L 276.815812 135.43871 
L 277.299795 135.368778 
L 277.541787 135.255817 
L 277.783779 135.670013 
L 278.025771 134.777076 
L 278.267762 135.099822 
L 278.509754 134.535017 
L 278.993738 135.019135 
L 279.719713 133.625944 
L 279.961705 134.276817 
L 280.203696 134.158475 
L 280.445688 130.995552 
L 280.68768 130.484533 
L 280.929672 130.307025 
L 281.171663 129.865933 
L 281.655647 128.671767 
L 281.897639 128.510399 
L 282.381622 127.74118 
L 282.623614 127.531395 
L 282.865606 126.428673 
L 283.107597 126.347989 
L 283.349589 126.654595 
L 283.591581 126.046759 
L 283.833573 125.939178 
L 284.075564 125.428155 
L 284.317556 126.218887 
L 284.559548 125.557257 
L 284.80154 125.58953 
L 285.043531 125.153823 
L 285.285523 124.018827 
L 285.527515 124.675081 
L 285.769507 124.357715 
L 286.25349 124.583637 
L 286.495482 124.696594 
L 286.737474 124.422262 
L 286.979465 124.637423 
L 287.221457 124.395364 
L 287.463449 124.336193 
L 287.705441 123.63153 
L 287.947432 123.480915 
L 288.189424 123.803666 
L 288.431416 122.883832 
L 288.673408 124.099511 
L 288.915399 123.34106 
L 289.157391 123.211959 
L 289.399383 124.346954 
L 289.641375 123.529325 
L 289.883366 122.039313 
L 290.125358 121.764973 
L 290.36735 122.017793 
L 290.609342 122.023168 
L 290.851333 122.270612 
L 291.093325 121.748836 
L 291.335317 121.711187 
L 291.577309 122.012416 
L 291.8193 122.082339 
L 292.061292 122.437364 
L 292.303284 123.158164 
L 292.545276 122.991412 
L 292.787267 123.222719 
L 293.029259 123.260369 
L 293.271251 123.007549 
L 293.513243 123.362574 
L 293.997226 122.136134 
L 294.48121 121.614358 
L 294.723201 121.910212 
L 294.965193 121.818768 
L 295.207185 121.275471 
L 295.449177 119.962971 
L 295.691168 121.011899 
L 295.93316 120.511636 
L 296.175152 120.382542 
L 296.417144 119.161479 
L 296.659135 116.557985 
L 296.901127 116.687078 
L 297.143119 117.321819 
L 297.627102 115.406852 
L 297.869094 115.444502 
L 298.353078 117.956552 
L 298.595069 116.821556 
L 299.079053 116.003935 
L 299.321045 116.574122 
L 299.563036 116.633292 
L 299.805028 116.488053 
L 300.04702 116.800044 
L 300.289012 116.50419 
L 300.531003 116.934522 
L 300.772995 116.713976 
L 301.014987 116.305165 
L 301.256979 116.541848 
L 301.49897 115.939381 
L 301.740962 115.815663 
L 301.982954 115.847937 
L 302.224946 120.931207 
L 302.466937 120.167372 
L 302.708929 119.984484 
L 302.950921 122.232954 
L 303.192913 121.985519 
L 303.434904 122.050066 
L 303.676896 120.323372 
L 303.918888 121.049549 
L 304.16088 120.91507 
L 304.402871 121.259334 
L 304.644863 120.161996 
L 304.886855 121.323889 
L 305.128847 121.603598 
L 305.370838 121.485256 
L 305.61283 121.625119 
L 305.854822 121.393812 
L 306.338805 122.39433 
L 306.580797 122.458884 
L 307.064781 121.474504 
L 307.306772 120.861284 
L 307.548764 121.060309 
L 307.790756 119.731665 
L 308.032748 119.274436 
L 308.274739 119.070035 
L 308.758723 117.832834 
L 309.000715 118.645079 
L 309.242706 118.327713 
L 309.968682 116.622531 
L 310.210673 118.698874 
L 310.452665 118.693498 
L 310.694657 119.123821 
L 310.936649 113.647876 
L 311.17864 114.847419 
L 311.420632 115.374571 
L 311.662624 114.842042 
L 311.904616 114.013653 
L 312.388599 113.314373 
L 312.630591 115.089478 
L 312.872583 113.626356 
L 313.356566 112.217028 
L 313.598558 112.980862 
L 313.84055 114.411711 
L 314.082541 114.60536 
L 314.566525 113.760834 
L 314.808517 113.02928 
L 315.050508 113.448851 
L 315.2925 113.185272 
L 315.534492 113.206784 
L 315.776484 111.21651 
L 316.018475 111.302578 
L 316.260467 110.678598 
L 317.228434 112.797974 
L 317.470426 112.991623 
L 317.712418 111.856627 
L 317.95441 113.33051 
L 318.438393 114.083584 
L 318.680385 113.201408 
L 318.922377 113.524159 
L 319.40636 115.519809 
L 319.648352 117.811322 
L 319.890344 118.645079 
L 320.374327 116.595634 
L 320.616319 116.547224 
L 320.858311 116.913 
L 321.100302 116.348199 
L 321.584286 116.687078 
L 322.068269 115.966278 
L 322.310261 115.514433 
L 322.552253 115.379955 
L 322.794245 115.428365 
L 323.278228 115.019555 
L 323.52022 114.390198 
L 323.762212 113.37892 
L 324.004203 113.034657 
L 324.246195 115.008794 
L 324.488187 115.084101 
L 324.730179 114.933487 
L 324.97217 115.256238 
L 325.456154 114.750598 
L 325.698146 113.6425 
L 326.182129 109.011074 
L 326.424121 107.951386 
L 326.666113 109.710354 
L 326.908104 105.729805 
L 327.150096 106.606605 
L 327.392088 105.778215 
L 327.876071 105.132722 
L 328.118063 105.132722 
L 328.360055 105.998761 
L 328.602047 106.246205 
L 328.844038 107.897591 
L 329.08603 107.246722 
L 329.328022 107.322029 
L 329.570014 107.725464 
L 329.812005 107.461883 
L 330.295989 105.138098 
L 330.537981 105.164995 
L 330.779972 105.56843 
L 331.505948 107.908352 
L 331.747939 106.547434 
L 331.989931 108.387093 
L 332.231923 109.226236 
L 332.715906 107.617875 
L 332.957898 108.311786 
L 333.19989 106.724946 
L 333.441882 106.536674 
L 333.683873 106.590468 
L 334.167857 105.256439 
L 334.409849 105.175756 
L 334.65184 105.261824 
L 334.893832 105.638361 
L 335.135824 105.364028 
L 335.377816 107.451123 
L 335.619807 107.82766 
L 335.861799 107.343542 
L 336.345783 107.795386 
L 336.587774 106.520537 
L 336.829766 106.515161 
L 337.31375 105.541532 
L 337.555741 105.433951 
L 337.797733 106.181649 
L 338.523708 103.63195 
L 338.7657 104.573296 
L 339.007692 102.841218 
L 339.249684 103.250028 
L 339.491675 103.954692 
L 339.975659 103.98159 
L 340.943626 110.285924 
L 341.185618 109.565123 
L 341.427609 109.403748 
L 341.669601 110.033104 
L 342.153585 116.041585 
L 342.395576 111.598432 
L 342.87956 114.836658 
L 343.121552 114.067447 
L 343.363543 112.211651 
L 343.605535 111.625329 
L 343.847527 107.99442 
L 344.089519 106.611981 
L 344.33151 106.778733 
L 344.573502 106.359161 
L 344.815494 106.913211 
L 345.299477 104.465707 
L 345.541469 102.986448 
L 345.783461 102.900388 
L 346.025453 103.287686 
L 346.267444 106.375298 
L 346.751428 103.626565 
L 346.99342 105.224166 
L 347.235411 104.933697 
L 347.961387 101.109139 
L 348.44537 103.309199 
L 348.687362 103.228515 
L 348.929354 103.943932 
L 349.171345 105.062791 
L 349.413337 105.17038 
L 349.655329 107.881455 
L 349.897321 108.747494 
L 350.139312 108.919622 
L 350.381304 105.901941 
L 350.623296 109.360714 
L 350.865288 109.059484 
L 351.107279 109.688841 
L 351.349271 109.150928 
L 351.591263 110.635564 
L 351.833255 106.493639 
L 352.317238 107.946001 
L 352.55923 106.267717 
L 352.801222 106.681912 
L 353.285205 105.310234 
L 353.527197 105.175756 
L 354.01118 103.68036 
L 354.737156 109.586636 
L 354.979147 110.210616 
L 355.221139 111.851251 
L 355.463131 111.044382 
L 355.705123 111.108929 
L 355.947114 112.114823 
L 356.189106 109.812558 
L 356.431098 105.068175 
L 356.67309 104.718527 
L 356.915081 103.443677 
L 357.157073 99.715948 
L 357.399065 99.818145 
L 358.12504 97.397539 
L 358.367032 97.655742 
L 358.609024 98.855285 
L 358.851015 99.237198 
L 359.093007 98.199031 
L 359.334999 98.634739 
L 359.576991 98.199031 
L 359.818982 97.994622 
L 360.060974 99.086583 
L 360.302966 97.784836 
L 360.786949 98.414193 
L 361.028941 98.349646 
L 361.270933 98.618602 
L 361.512925 98.204407 
L 361.754916 96.24103 
L 361.996908 95.471811 
L 362.480892 94.896249 
L 362.722883 96.49385 
L 363.206867 96.375508 
L 363.448859 95.821459 
L 363.69085 96.28944 
L 364.174834 98.263578 
L 364.416826 99.737461 
L 364.900809 98.602465 
L 365.142801 99.210309 
L 365.384793 100.673431 
L 365.626784 100.89397 
L 365.868776 99.689051 
L 366.110768 100.296886 
L 366.35276 99.118865 
L 366.594751 100.447501 
L 366.836743 98.311996 
L 367.078735 99.672914 
L 367.320727 99.586846 
L 367.562718 97.392162 
L 367.80471 96.741285 
L 368.046702 97.930075 
L 368.288694 97.376026 
L 368.530685 96.54226 
L 368.772677 96.305577 
L 369.014669 97.257684 
L 369.256661 96.165723 
L 369.498652 97.289958 
L 369.740644 96.165723 
L 369.982636 96.757429 
L 370.224628 95.805322 
L 370.466619 95.477195 
L 370.466619 95.477195 
" style="fill:none;stroke:#008000;stroke-linecap:square;stroke-width:1.5;"/>
   </g>
   <g id="patch_3">
    <path d="M 50.565625 187.84375 
L 50.565625 25.918125 
" style="fill:none;stroke:#000000;stroke-linecap:square;stroke-linejoin:miter;stroke-width:0.8;"/>
   </g>
   <g id="patch_4">
    <path d="M 385.7 187.84375 
L 385.7 25.918125 
" style="fill:none;stroke:#000000;stroke-linecap:square;stroke-linejoin:miter;stroke-width:0.8;"/>
   </g>
   <g id="patch_5">
    <path d="M 50.565625 187.84375 
L 385.7 187.84375 
" style="fill:none;stroke:#000000;stroke-linecap:square;stroke-linejoin:miter;stroke-width:0.8;"/>
   </g>
   <g id="patch_6">
    <path d="M 50.565625 25.918125 
L 385.7 25.918125 
" style="fill:none;stroke:#000000;stroke-linecap:square;stroke-linejoin:miter;stroke-width:0.8;"/>
   </g>
   <g id="text_16">
    <!-- Stock Prices Over Time -->
    <defs>
     <path d="M 53.515625 70.515625 
L 53.515625 60.890625 
Q 47.90625 63.578125 42.921875 64.890625 
Q 37.9375 66.21875 33.296875 66.21875 
Q 25.25 66.21875 20.875 63.09375 
Q 16.5 59.96875 16.5 54.203125 
Q 16.5 49.359375 19.40625 46.890625 
Q 22.3125 44.4375 30.421875 42.921875 
L 36.375 41.703125 
Q 47.40625 39.59375 52.65625 34.296875 
Q 57.90625 29 57.90625 20.125 
Q 57.90625 9.515625 50.796875 4.046875 
Q 43.703125 -1.421875 29.984375 -1.421875 
Q 24.8125 -1.421875 18.96875 -0.25 
Q 13.140625 0.921875 6.890625 3.21875 
L 6.890625 13.375 
Q 12.890625 10.015625 18.65625 8.296875 
Q 24.421875 6.59375 29.984375 6.59375 
Q 38.421875 6.59375 43.015625 9.90625 
Q 47.609375 13.234375 47.609375 19.390625 
Q 47.609375 24.75 44.3125 27.78125 
Q 41.015625 30.8125 33.5 32.328125 
L 27.484375 33.5 
Q 16.453125 35.6875 11.515625 40.375 
Q 6.59375 45.0625 6.59375 53.421875 
Q 6.59375 63.09375 13.40625 68.65625 
Q 20.21875 74.21875 32.171875 74.21875 
Q 37.3125 74.21875 42.625 73.28125 
Q 47.953125 72.359375 53.515625 70.515625 
z
" id="DejaVuSans-53"/>
     <path d="M 18.3125 70.21875 
L 18.3125 54.6875 
L 36.8125 54.6875 
L 36.8125 47.703125 
L 18.3125 47.703125 
L 18.3125 18.015625 
Q 18.3125 11.328125 20.140625 9.421875 
Q 21.96875 7.515625 27.59375 7.515625 
L 36.8125 7.515625 
L 36.8125 0 
L 27.59375 0 
Q 17.1875 0 13.234375 3.875 
Q 9.28125 7.765625 9.28125 18.015625 
L 9.28125 47.703125 
L 2.6875 47.703125 
L 2.6875 54.6875 
L 9.28125 54.6875 
L 9.28125 70.21875 
z
" id="DejaVuSans-74"/>
     <path d="M 30.609375 48.390625 
Q 23.390625 48.390625 19.1875 42.75 
Q 14.984375 37.109375 14.984375 27.296875 
Q 14.984375 17.484375 19.15625 11.84375 
Q 23.34375 6.203125 30.609375 6.203125 
Q 37.796875 6.203125 41.984375 11.859375 
Q 46.1875 17.53125 46.1875 27.296875 
Q 46.1875 37.015625 41.984375 42.703125 
Q 37.796875 48.390625 30.609375 48.390625 
z
M 30.609375 56 
Q 42.328125 56 49.015625 48.375 
Q 55.71875 40.765625 55.71875 27.296875 
Q 55.71875 13.875 49.015625 6.21875 
Q 42.328125 -1.421875 30.609375 -1.421875 
Q 18.84375 -1.421875 12.171875 6.21875 
Q 5.515625 13.875 5.515625 27.296875 
Q 5.515625 40.765625 12.171875 48.375 
Q 18.84375 56 30.609375 56 
z
" id="DejaVuSans-6f"/>
     <path d="M 9.078125 75.984375 
L 18.109375 75.984375 
L 18.109375 31.109375 
L 44.921875 54.6875 
L 56.390625 54.6875 
L 27.390625 29.109375 
L 57.625 0 
L 45.90625 0 
L 18.109375 26.703125 
L 18.109375 0 
L 9.078125 0 
z
" id="DejaVuSans-6b"/>
     <path d="M 39.40625 66.21875 
Q 28.65625 66.21875 22.328125 58.203125 
Q 16.015625 50.203125 16.015625 36.375 
Q 16.015625 22.609375 22.328125 14.59375 
Q 28.65625 6.59375 39.40625 6.59375 
Q 50.140625 6.59375 56.421875 14.59375 
Q 62.703125 22.609375 62.703125 36.375 
Q 62.703125 50.203125 56.421875 58.203125 
Q 50.140625 66.21875 39.40625 66.21875 
z
M 39.40625 74.21875 
Q 54.734375 74.21875 63.90625 63.9375 
Q 73.09375 53.65625 73.09375 36.375 
Q 73.09375 19.140625 63.90625 8.859375 
Q 54.734375 -1.421875 39.40625 -1.421875 
Q 24.03125 -1.421875 14.8125 8.828125 
Q 5.609375 19.09375 5.609375 36.375 
Q 5.609375 53.65625 14.8125 63.9375 
Q 24.03125 74.21875 39.40625 74.21875 
z
" id="DejaVuSans-4f"/>
     <path d="M 2.984375 54.6875 
L 12.5 54.6875 
L 29.59375 8.796875 
L 46.6875 54.6875 
L 56.203125 54.6875 
L 35.6875 0 
L 23.484375 0 
z
" id="DejaVuSans-76"/>
     <path d="M -0.296875 72.90625 
L 61.375 72.90625 
L 61.375 64.59375 
L 35.5 64.59375 
L 35.5 0 
L 25.59375 0 
L 25.59375 64.59375 
L -0.296875 64.59375 
z
" id="DejaVuSans-54"/>
     <path d="M 52 44.1875 
Q 55.375 50.25 60.0625 53.125 
Q 64.75 56 71.09375 56 
Q 79.640625 56 84.28125 50.015625 
Q 88.921875 44.046875 88.921875 33.015625 
L 88.921875 0 
L 79.890625 0 
L 79.890625 32.71875 
Q 79.890625 40.578125 77.09375 44.375 
Q 74.3125 48.1875 68.609375 48.1875 
Q 61.625 48.1875 57.5625 43.546875 
Q 53.515625 38.921875 53.515625 30.90625 
L 53.515625 0 
L 44.484375 0 
L 44.484375 32.71875 
Q 44.484375 40.625 41.703125 44.40625 
Q 38.921875 48.1875 33.109375 48.1875 
Q 26.21875 48.1875 22.15625 43.53125 
Q 18.109375 38.875 18.109375 30.90625 
L 18.109375 0 
L 9.078125 0 
L 9.078125 54.6875 
L 18.109375 54.6875 
L 18.109375 46.1875 
Q 21.1875 51.21875 25.484375 53.609375 
Q 29.78125 56 35.6875 56 
Q 41.65625 56 45.828125 52.96875 
Q 50 49.953125 52 44.1875 
z
" id="DejaVuSans-6d"/>
    </defs>
    <g transform="translate(148.641563 19.918125)scale(0.12 -0.12)">
     <use xlink:href="#DejaVuSans-53"/>
     <use x="63.476562" xlink:href="#DejaVuSans-74"/>
     <use x="102.685547" xlink:href="#DejaVuSans-6f"/>
     <use x="163.867188" xlink:href="#DejaVuSans-63"/>
     <use x="218.847656" xlink:href="#DejaVuSans-6b"/>
     <use x="276.757812" xlink:href="#DejaVuSans-20"/>
     <use x="308.544922" xlink:href="#DejaVuSans-50"/>
     <use x="368.832031" xlink:href="#DejaVuSans-72"/>
     <use x="409.945312" xlink:href="#DejaVuSans-69"/>
     <use x="437.728516" xlink:href="#DejaVuSans-63"/>
     <use x="492.708984" xlink:href="#DejaVuSans-65"/>
     <use x="554.232422" xlink:href="#DejaVuSans-73"/>
     <use x="606.332031" xlink:href="#DejaVuSans-20"/>
     <use x="638.119141" xlink:href="#DejaVuSans-4f"/>
     <use x="716.830078" xlink:href="#DejaVuSans-76"/>
     <use x="776.009766" xlink:href="#DejaVuSans-65"/>
     <use x="837.533203" xlink:href="#DejaVuSans-72"/>
     <use x="878.646484" xlink:href="#DejaVuSans-20"/>
     <use x="910.433594" xlink:href="#DejaVuSans-54"/>
     <use x="971.470703" xlink:href="#DejaVuSans-69"/>
     <use x="999.253906" xlink:href="#DejaVuSans-6d"/>
     <use x="1096.666016" xlink:href="#DejaVuSans-65"/>
    </g>
   </g>
  </g>
 </g>
 <defs>
  <clipPath id="p9676d0e317">
   <rect height="161.925625" width="335.134375" x="50.565625" y="25.918125"/>
  </clipPath>
 </defs>
</svg>
