<?xml version="1.0" encoding="utf-8" standalone="no"?>
<!DOCTYPE svg PUBLIC "-//W3C//DTD SVG 1.1//EN"
  "http://www.w3.org/Graphics/SVG/1.1/DTD/svg11.dtd">
<!-- Created with matplotlib (http://matplotlib.org/) -->
<svg height="258pt" version="1.1" viewBox="0 0 400 258" width="400pt" xmlns="http://www.w3.org/2000/svg" xmlns:xlink="http://www.w3.org/1999/xlink">
 <defs>
  <style type="text/css">
*{stroke-linecap:butt;stroke-linejoin:round;}
  </style>
 </defs>
 <g id="figure_1">
  <g id="patch_1">
   <path d="M 0 258 
L 400 258 
L 400 0 
L 0 0 
z
" style="fill:#ffffff;"/>
  </g>
  <g id="axes_1">
   <g id="patch_2">
    <path d="M 30.525 230.521875 
L 385.7 230.521875 
L 385.7 14.3 
L 30.525 14.3 
z
" style="fill:#ffffff;"/>
   </g>
   <g id="patch_3">
    <path clip-path="url(#p7a140d0e89)" d="M 46.669318 230.521875 
L 49.898182 230.521875 
L 49.898182 39.850028 
L 46.669318 39.850028 
z
" style="fill:#1f77b4;"/>
   </g>
   <g id="patch_4">
    <path clip-path="url(#p7a140d0e89)" d="M 49.898182 230.521875 
L 53.127045 230.521875 
L 53.127045 85.611271 
L 49.898182 85.611271 
z
" style="fill:#1f77b4;"/>
   </g>
   <g id="patch_5">
    <path clip-path="url(#p7a140d0e89)" d="M 53.127045 230.521875 
L 56.355909 230.521875 
L 56.355909 116.118767 
L 53.127045 116.118767 
z
" style="fill:#1f77b4;"/>
   </g>
   <g id="patch_6">
    <path clip-path="url(#p7a140d0e89)" d="M 56.355909 230.521875 
L 59.584773 230.521875 
L 59.584773 116.118767 
L 56.355909 116.118767 
z
" style="fill:#1f77b4;"/>
   </g>
   <g id="patch_7">
    <path clip-path="url(#p7a140d0e89)" d="M 59.584773 230.521875 
L 62.813636 230.521875 
L 62.813636 24.59628 
L 59.584773 24.59628 
z
" style="fill:#1f77b4;"/>
   </g>
   <g id="patch_8">
    <path clip-path="url(#p7a140d0e89)" d="M 62.813636 230.521875 
L 66.0425 230.521875 
L 66.0425 108.491893 
L 62.813636 108.491893 
z
" style="fill:#1f77b4;"/>
   </g>
   <g id="patch_9">
    <path clip-path="url(#p7a140d0e89)" d="M 66.0425 230.521875 
L 69.271364 230.521875 
L 69.271364 55.103775 
L 66.0425 55.103775 
z
" style="fill:#1f77b4;"/>
   </g>
   <g id="patch_10">
    <path clip-path="url(#p7a140d0e89)" d="M 69.271364 230.521875 
L 72.500227 230.521875 
L 72.500227 169.506884 
L 69.271364 169.506884 
z
" style="fill:#1f77b4;"/>
   </g>
   <g id="patch_11">
    <path clip-path="url(#p7a140d0e89)" d="M 72.500227 230.521875 
L 75.729091 230.521875 
L 75.729091 116.118767 
L 72.500227 116.118767 
z
" style="fill:#1f77b4;"/>
   </g>
   <g id="patch_12">
    <path clip-path="url(#p7a140d0e89)" d="M 75.729091 230.521875 
L 78.957955 230.521875 
L 78.957955 108.491893 
L 75.729091 108.491893 
z
" style="fill:#1f77b4;"/>
   </g>
   <g id="patch_13">
    <path clip-path="url(#p7a140d0e89)" d="M 78.957955 230.521875 
L 82.186818 230.521875 
L 82.186818 131.372514 
L 78.957955 131.372514 
z
" style="fill:#1f77b4;"/>
   </g>
   <g id="patch_14">
    <path clip-path="url(#p7a140d0e89)" d="M 82.186818 230.521875 
L 85.415682 230.521875 
L 85.415682 116.118767 
L 82.186818 116.118767 
z
" style="fill:#1f77b4;"/>
   </g>
   <g id="patch_15">
    <path clip-path="url(#p7a140d0e89)" d="M 85.415682 230.521875 
L 88.644545 230.521875 
L 88.644545 100.865019 
L 85.415682 100.865019 
z
" style="fill:#1f77b4;"/>
   </g>
   <g id="patch_16">
    <path clip-path="url(#p7a140d0e89)" d="M 88.644545 230.521875 
L 91.873409 230.521875 
L 91.873409 123.74564 
L 88.644545 123.74564 
z
" style="fill:#1f77b4;"/>
   </g>
   <g id="patch_17">
    <path clip-path="url(#p7a140d0e89)" d="M 91.873409 230.521875 
L 95.102273 230.521875 
L 95.102273 108.491893 
L 91.873409 108.491893 
z
" style="fill:#1f77b4;"/>
   </g>
   <g id="patch_18">
    <path clip-path="url(#p7a140d0e89)" d="M 95.102273 230.521875 
L 98.331136 230.521875 
L 98.331136 116.118767 
L 95.102273 116.118767 
z
" style="fill:#1f77b4;"/>
   </g>
   <g id="patch_19">
    <path clip-path="url(#p7a140d0e89)" d="M 98.331136 230.521875 
L 101.56 230.521875 
L 101.56 108.491893 
L 98.331136 108.491893 
z
" style="fill:#1f77b4;"/>
   </g>
   <g id="patch_20">
    <path clip-path="url(#p7a140d0e89)" d="M 101.56 230.521875 
L 104.788864 230.521875 
L 104.788864 184.760632 
L 101.56 184.760632 
z
" style="fill:#1f77b4;"/>
   </g>
   <g id="patch_21">
    <path clip-path="url(#p7a140d0e89)" d="M 104.788864 230.521875 
L 108.017727 230.521875 
L 108.017727 131.372514 
L 104.788864 131.372514 
z
" style="fill:#1f77b4;"/>
   </g>
   <g id="patch_22">
    <path clip-path="url(#p7a140d0e89)" d="M 108.017727 230.521875 
L 111.246591 230.521875 
L 111.246591 177.133758 
L 108.017727 177.133758 
z
" style="fill:#1f77b4;"/>
   </g>
   <g id="patch_23">
    <path clip-path="url(#p7a140d0e89)" d="M 111.246591 230.521875 
L 114.475455 230.521875 
L 114.475455 138.999388 
L 111.246591 138.999388 
z
" style="fill:#1f77b4;"/>
   </g>
   <g id="patch_24">
    <path clip-path="url(#p7a140d0e89)" d="M 114.475455 230.521875 
L 117.704318 230.521875 
L 117.704318 192.387506 
L 114.475455 192.387506 
z
" style="fill:#1f77b4;"/>
   </g>
   <g id="patch_25">
    <path clip-path="url(#p7a140d0e89)" d="M 117.704318 230.521875 
L 120.933182 230.521875 
L 120.933182 161.88001 
L 117.704318 161.88001 
z
" style="fill:#1f77b4;"/>
   </g>
   <g id="patch_26">
    <path clip-path="url(#p7a140d0e89)" d="M 120.933182 230.521875 
L 124.162045 230.521875 
L 124.162045 123.74564 
L 120.933182 123.74564 
z
" style="fill:#1f77b4;"/>
   </g>
   <g id="patch_27">
    <path clip-path="url(#p7a140d0e89)" d="M 124.162045 230.521875 
L 127.390909 230.521875 
L 127.390909 200.014379 
L 124.162045 200.014379 
z
" style="fill:#1f77b4;"/>
   </g>
   <g id="patch_28">
    <path clip-path="url(#p7a140d0e89)" d="M 127.390909 230.521875 
L 130.619773 230.521875 
L 130.619773 169.506884 
L 127.390909 169.506884 
z
" style="fill:#1f77b4;"/>
   </g>
   <g id="patch_29">
    <path clip-path="url(#p7a140d0e89)" d="M 130.619773 230.521875 
L 133.848636 230.521875 
L 133.848636 207.641253 
L 130.619773 207.641253 
z
" style="fill:#1f77b4;"/>
   </g>
   <g id="patch_30">
    <path clip-path="url(#p7a140d0e89)" d="M 133.848636 230.521875 
L 137.0775 230.521875 
L 137.0775 200.014379 
L 133.848636 200.014379 
z
" style="fill:#1f77b4;"/>
   </g>
   <g id="patch_31">
    <path clip-path="url(#p7a140d0e89)" d="M 137.0775 230.521875 
L 140.306364 230.521875 
L 140.306364 207.641253 
L 137.0775 207.641253 
z
" style="fill:#1f77b4;"/>
   </g>
   <g id="patch_32">
    <path clip-path="url(#p7a140d0e89)" d="M 140.306364 230.521875 
L 143.535227 230.521875 
L 143.535227 192.387506 
L 140.306364 192.387506 
z
" style="fill:#1f77b4;"/>
   </g>
   <g id="patch_33">
    <path clip-path="url(#p7a140d0e89)" d="M 143.535227 230.521875 
L 146.764091 230.521875 
L 146.764091 222.895001 
L 143.535227 222.895001 
z
" style="fill:#1f77b4;"/>
   </g>
   <g id="patch_34">
    <path clip-path="url(#p7a140d0e89)" d="M 146.764091 230.521875 
L 149.992955 230.521875 
L 149.992955 192.387506 
L 146.764091 192.387506 
z
" style="fill:#1f77b4;"/>
   </g>
   <g id="patch_35">
    <path clip-path="url(#p7a140d0e89)" d="M 149.992955 230.521875 
L 153.221818 230.521875 
L 153.221818 215.268127 
L 149.992955 215.268127 
z
" style="fill:#1f77b4;"/>
   </g>
   <g id="patch_36">
    <path clip-path="url(#p7a140d0e89)" d="M 153.221818 230.521875 
L 156.450682 230.521875 
L 156.450682 222.895001 
L 153.221818 222.895001 
z
" style="fill:#1f77b4;"/>
   </g>
   <g id="patch_37">
    <path clip-path="url(#p7a140d0e89)" d="M 156.450682 230.521875 
L 159.679545 230.521875 
L 159.679545 207.641253 
L 156.450682 207.641253 
z
" style="fill:#1f77b4;"/>
   </g>
   <g id="patch_38">
    <path clip-path="url(#p7a140d0e89)" d="M 159.679545 230.521875 
L 162.908409 230.521875 
L 162.908409 207.641253 
L 159.679545 207.641253 
z
" style="fill:#1f77b4;"/>
   </g>
   <g id="patch_39">
    <path clip-path="url(#p7a140d0e89)" d="M 162.908409 230.521875 
L 166.137273 230.521875 
L 166.137273 192.387506 
L 162.908409 192.387506 
z
" style="fill:#1f77b4;"/>
   </g>
   <g id="patch_40">
    <path clip-path="url(#p7a140d0e89)" d="M 166.137273 230.521875 
L 169.366136 230.521875 
L 169.366136 207.641253 
L 166.137273 207.641253 
z
" style="fill:#1f77b4;"/>
   </g>
   <g id="patch_41">
    <path clip-path="url(#p7a140d0e89)" d="M 169.366136 230.521875 
L 172.595 230.521875 
L 172.595 222.895001 
L 169.366136 222.895001 
z
" style="fill:#1f77b4;"/>
   </g>
   <g id="patch_42">
    <path clip-path="url(#p7a140d0e89)" d="M 172.595 230.521875 
L 175.823864 230.521875 
L 175.823864 230.521875 
L 172.595 230.521875 
z
" style="fill:#1f77b4;"/>
   </g>
   <g id="patch_43">
    <path clip-path="url(#p7a140d0e89)" d="M 175.823864 230.521875 
L 179.052727 230.521875 
L 179.052727 230.521875 
L 175.823864 230.521875 
z
" style="fill:#1f77b4;"/>
   </g>
   <g id="patch_44">
    <path clip-path="url(#p7a140d0e89)" d="M 179.052727 230.521875 
L 182.281591 230.521875 
L 182.281591 222.895001 
L 179.052727 222.895001 
z
" style="fill:#1f77b4;"/>
   </g>
   <g id="patch_45">
    <path clip-path="url(#p7a140d0e89)" d="M 182.281591 230.521875 
L 185.510455 230.521875 
L 185.510455 222.895001 
L 182.281591 222.895001 
z
" style="fill:#1f77b4;"/>
   </g>
   <g id="patch_46">
    <path clip-path="url(#p7a140d0e89)" d="M 185.510455 230.521875 
L 188.739318 230.521875 
L 188.739318 207.641253 
L 185.510455 207.641253 
z
" style="fill:#1f77b4;"/>
   </g>
   <g id="patch_47">
    <path clip-path="url(#p7a140d0e89)" d="M 188.739318 230.521875 
L 191.968182 230.521875 
L 191.968182 215.268127 
L 188.739318 215.268127 
z
" style="fill:#1f77b4;"/>
   </g>
   <g id="patch_48">
    <path clip-path="url(#p7a140d0e89)" d="M 191.968182 230.521875 
L 195.197045 230.521875 
L 195.197045 230.521875 
L 191.968182 230.521875 
z
" style="fill:#1f77b4;"/>
   </g>
   <g id="patch_49">
    <path clip-path="url(#p7a140d0e89)" d="M 195.197045 230.521875 
L 198.425909 230.521875 
L 198.425909 230.521875 
L 195.197045 230.521875 
z
" style="fill:#1f77b4;"/>
   </g>
   <g id="patch_50">
    <path clip-path="url(#p7a140d0e89)" d="M 198.425909 230.521875 
L 201.654773 230.521875 
L 201.654773 230.521875 
L 198.425909 230.521875 
z
" style="fill:#1f77b4;"/>
   </g>
   <g id="patch_51">
    <path clip-path="url(#p7a140d0e89)" d="M 201.654773 230.521875 
L 204.883636 230.521875 
L 204.883636 222.895001 
L 201.654773 222.895001 
z
" style="fill:#1f77b4;"/>
   </g>
   <g id="patch_52">
    <path clip-path="url(#p7a140d0e89)" d="M 204.883636 230.521875 
L 208.1125 230.521875 
L 208.1125 215.268127 
L 204.883636 215.268127 
z
" style="fill:#1f77b4;"/>
   </g>
   <g id="patch_53">
    <path clip-path="url(#p7a140d0e89)" d="M 208.1125 230.521875 
L 211.341364 230.521875 
L 211.341364 215.268127 
L 208.1125 215.268127 
z
" style="fill:#1f77b4;"/>
   </g>
   <g id="patch_54">
    <path clip-path="url(#p7a140d0e89)" d="M 211.341364 230.521875 
L 214.570227 230.521875 
L 214.570227 215.268127 
L 211.341364 215.268127 
z
" style="fill:#1f77b4;"/>
   </g>
   <g id="patch_55">
    <path clip-path="url(#p7a140d0e89)" d="M 214.570227 230.521875 
L 217.799091 230.521875 
L 217.799091 230.521875 
L 214.570227 230.521875 
z
" style="fill:#1f77b4;"/>
   </g>
   <g id="patch_56">
    <path clip-path="url(#p7a140d0e89)" d="M 217.799091 230.521875 
L 221.027955 230.521875 
L 221.027955 230.521875 
L 217.799091 230.521875 
z
" style="fill:#1f77b4;"/>
   </g>
   <g id="patch_57">
    <path clip-path="url(#p7a140d0e89)" d="M 221.027955 230.521875 
L 224.256818 230.521875 
L 224.256818 222.895001 
L 221.027955 222.895001 
z
" style="fill:#1f77b4;"/>
   </g>
   <g id="patch_58">
    <path clip-path="url(#p7a140d0e89)" d="M 224.256818 230.521875 
L 227.485682 230.521875 
L 227.485682 230.521875 
L 224.256818 230.521875 
z
" style="fill:#1f77b4;"/>
   </g>
   <g id="patch_59">
    <path clip-path="url(#p7a140d0e89)" d="M 227.485682 230.521875 
L 230.714545 230.521875 
L 230.714545 230.521875 
L 227.485682 230.521875 
z
" style="fill:#1f77b4;"/>
   </g>
   <g id="patch_60">
    <path clip-path="url(#p7a140d0e89)" d="M 230.714545 230.521875 
L 233.943409 230.521875 
L 233.943409 230.521875 
L 230.714545 230.521875 
z
" style="fill:#1f77b4;"/>
   </g>
   <g id="patch_61">
    <path clip-path="url(#p7a140d0e89)" d="M 233.943409 230.521875 
L 237.172273 230.521875 
L 237.172273 222.895001 
L 233.943409 222.895001 
z
" style="fill:#1f77b4;"/>
   </g>
   <g id="patch_62">
    <path clip-path="url(#p7a140d0e89)" d="M 237.172273 230.521875 
L 240.401136 230.521875 
L 240.401136 230.521875 
L 237.172273 230.521875 
z
" style="fill:#1f77b4;"/>
   </g>
   <g id="patch_63">
    <path clip-path="url(#p7a140d0e89)" d="M 240.401136 230.521875 
L 243.63 230.521875 
L 243.63 230.521875 
L 240.401136 230.521875 
z
" style="fill:#1f77b4;"/>
   </g>
   <g id="patch_64">
    <path clip-path="url(#p7a140d0e89)" d="M 243.63 230.521875 
L 246.858864 230.521875 
L 246.858864 230.521875 
L 243.63 230.521875 
z
" style="fill:#1f77b4;"/>
   </g>
   <g id="patch_65">
    <path clip-path="url(#p7a140d0e89)" d="M 246.858864 230.521875 
L 250.087727 230.521875 
L 250.087727 230.521875 
L 246.858864 230.521875 
z
" style="fill:#1f77b4;"/>
   </g>
   <g id="patch_66">
    <path clip-path="url(#p7a140d0e89)" d="M 250.087727 230.521875 
L 253.316591 230.521875 
L 253.316591 230.521875 
L 250.087727 230.521875 
z
" style="fill:#1f77b4;"/>
   </g>
   <g id="patch_67">
    <path clip-path="url(#p7a140d0e89)" d="M 253.316591 230.521875 
L 256.545455 230.521875 
L 256.545455 230.521875 
L 253.316591 230.521875 
z
" style="fill:#1f77b4;"/>
   </g>
   <g id="patch_68">
    <path clip-path="url(#p7a140d0e89)" d="M 256.545455 230.521875 
L 259.774318 230.521875 
L 259.774318 222.895001 
L 256.545455 222.895001 
z
" style="fill:#1f77b4;"/>
   </g>
   <g id="patch_69">
    <path clip-path="url(#p7a140d0e89)" d="M 259.774318 230.521875 
L 263.003182 230.521875 
L 263.003182 230.521875 
L 259.774318 230.521875 
z
" style="fill:#1f77b4;"/>
   </g>
   <g id="patch_70">
    <path clip-path="url(#p7a140d0e89)" d="M 263.003182 230.521875 
L 266.232045 230.521875 
L 266.232045 230.521875 
L 263.003182 230.521875 
z
" style="fill:#1f77b4;"/>
   </g>
   <g id="patch_71">
    <path clip-path="url(#p7a140d0e89)" d="M 266.232045 230.521875 
L 269.460909 230.521875 
L 269.460909 230.521875 
L 266.232045 230.521875 
z
" style="fill:#1f77b4;"/>
   </g>
   <g id="patch_72">
    <path clip-path="url(#p7a140d0e89)" d="M 269.460909 230.521875 
L 272.689773 230.521875 
L 272.689773 230.521875 
L 269.460909 230.521875 
z
" style="fill:#1f77b4;"/>
   </g>
   <g id="patch_73">
    <path clip-path="url(#p7a140d0e89)" d="M 272.689773 230.521875 
L 275.918636 230.521875 
L 275.918636 230.521875 
L 272.689773 230.521875 
z
" style="fill:#1f77b4;"/>
   </g>
   <g id="patch_74">
    <path clip-path="url(#p7a140d0e89)" d="M 275.918636 230.521875 
L 279.1475 230.521875 
L 279.1475 230.521875 
L 275.918636 230.521875 
z
" style="fill:#1f77b4;"/>
   </g>
   <g id="patch_75">
    <path clip-path="url(#p7a140d0e89)" d="M 279.1475 230.521875 
L 282.376364 230.521875 
L 282.376364 230.521875 
L 279.1475 230.521875 
z
" style="fill:#1f77b4;"/>
   </g>
   <g id="patch_76">
    <path clip-path="url(#p7a140d0e89)" d="M 282.376364 230.521875 
L 285.605227 230.521875 
L 285.605227 230.521875 
L 282.376364 230.521875 
z
" style="fill:#1f77b4;"/>
   </g>
   <g id="patch_77">
    <path clip-path="url(#p7a140d0e89)" d="M 285.605227 230.521875 
L 288.834091 230.521875 
L 288.834091 230.521875 
L 285.605227 230.521875 
z
" style="fill:#1f77b4;"/>
   </g>
   <g id="patch_78">
    <path clip-path="url(#p7a140d0e89)" d="M 288.834091 230.521875 
L 292.062955 230.521875 
L 292.062955 230.521875 
L 288.834091 230.521875 
z
" style="fill:#1f77b4;"/>
   </g>
   <g id="patch_79">
    <path clip-path="url(#p7a140d0e89)" d="M 292.062955 230.521875 
L 295.291818 230.521875 
L 295.291818 230.521875 
L 292.062955 230.521875 
z
" style="fill:#1f77b4;"/>
   </g>
   <g id="patch_80">
    <path clip-path="url(#p7a140d0e89)" d="M 295.291818 230.521875 
L 298.520682 230.521875 
L 298.520682 230.521875 
L 295.291818 230.521875 
z
" style="fill:#1f77b4;"/>
   </g>
   <g id="patch_81">
    <path clip-path="url(#p7a140d0e89)" d="M 298.520682 230.521875 
L 301.749545 230.521875 
L 301.749545 230.521875 
L 298.520682 230.521875 
z
" style="fill:#1f77b4;"/>
   </g>
   <g id="patch_82">
    <path clip-path="url(#p7a140d0e89)" d="M 301.749545 230.521875 
L 304.978409 230.521875 
L 304.978409 230.521875 
L 301.749545 230.521875 
z
" style="fill:#1f77b4;"/>
   </g>
   <g id="patch_83">
    <path clip-path="url(#p7a140d0e89)" d="M 304.978409 230.521875 
L 308.207273 230.521875 
L 308.207273 230.521875 
L 304.978409 230.521875 
z
" style="fill:#1f77b4;"/>
   </g>
   <g id="patch_84">
    <path clip-path="url(#p7a140d0e89)" d="M 308.207273 230.521875 
L 311.436136 230.521875 
L 311.436136 230.521875 
L 308.207273 230.521875 
z
" style="fill:#1f77b4;"/>
   </g>
   <g id="patch_85">
    <path clip-path="url(#p7a140d0e89)" d="M 311.436136 230.521875 
L 314.665 230.521875 
L 314.665 230.521875 
L 311.436136 230.521875 
z
" style="fill:#1f77b4;"/>
   </g>
   <g id="patch_86">
    <path clip-path="url(#p7a140d0e89)" d="M 314.665 230.521875 
L 317.893864 230.521875 
L 317.893864 230.521875 
L 314.665 230.521875 
z
" style="fill:#1f77b4;"/>
   </g>
   <g id="patch_87">
    <path clip-path="url(#p7a140d0e89)" d="M 317.893864 230.521875 
L 321.122727 230.521875 
L 321.122727 230.521875 
L 317.893864 230.521875 
z
" style="fill:#1f77b4;"/>
   </g>
   <g id="patch_88">
    <path clip-path="url(#p7a140d0e89)" d="M 321.122727 230.521875 
L 324.351591 230.521875 
L 324.351591 230.521875 
L 321.122727 230.521875 
z
" style="fill:#1f77b4;"/>
   </g>
   <g id="patch_89">
    <path clip-path="url(#p7a140d0e89)" d="M 324.351591 230.521875 
L 327.580455 230.521875 
L 327.580455 230.521875 
L 324.351591 230.521875 
z
" style="fill:#1f77b4;"/>
   </g>
   <g id="patch_90">
    <path clip-path="url(#p7a140d0e89)" d="M 327.580455 230.521875 
L 330.809318 230.521875 
L 330.809318 230.521875 
L 327.580455 230.521875 
z
" style="fill:#1f77b4;"/>
   </g>
   <g id="patch_91">
    <path clip-path="url(#p7a140d0e89)" d="M 330.809318 230.521875 
L 334.038182 230.521875 
L 334.038182 230.521875 
L 330.809318 230.521875 
z
" style="fill:#1f77b4;"/>
   </g>
   <g id="patch_92">
    <path clip-path="url(#p7a140d0e89)" d="M 334.038182 230.521875 
L 337.267045 230.521875 
L 337.267045 230.521875 
L 334.038182 230.521875 
z
" style="fill:#1f77b4;"/>
   </g>
   <g id="patch_93">
    <path clip-path="url(#p7a140d0e89)" d="M 337.267045 230.521875 
L 340.495909 230.521875 
L 340.495909 230.521875 
L 337.267045 230.521875 
z
" style="fill:#1f77b4;"/>
   </g>
   <g id="patch_94">
    <path clip-path="url(#p7a140d0e89)" d="M 340.495909 230.521875 
L 343.724773 230.521875 
L 343.724773 230.521875 
L 340.495909 230.521875 
z
" style="fill:#1f77b4;"/>
   </g>
   <g id="patch_95">
    <path clip-path="url(#p7a140d0e89)" d="M 343.724773 230.521875 
L 346.953636 230.521875 
L 346.953636 230.521875 
L 343.724773 230.521875 
z
" style="fill:#1f77b4;"/>
   </g>
   <g id="patch_96">
    <path clip-path="url(#p7a140d0e89)" d="M 346.953636 230.521875 
L 350.1825 230.521875 
L 350.1825 230.521875 
L 346.953636 230.521875 
z
" style="fill:#1f77b4;"/>
   </g>
   <g id="patch_97">
    <path clip-path="url(#p7a140d0e89)" d="M 350.1825 230.521875 
L 353.411364 230.521875 
L 353.411364 230.521875 
L 350.1825 230.521875 
z
" style="fill:#1f77b4;"/>
   </g>
   <g id="patch_98">
    <path clip-path="url(#p7a140d0e89)" d="M 353.411364 230.521875 
L 356.640227 230.521875 
L 356.640227 230.521875 
L 353.411364 230.521875 
z
" style="fill:#1f77b4;"/>
   </g>
   <g id="patch_99">
    <path clip-path="url(#p7a140d0e89)" d="M 356.640227 230.521875 
L 359.869091 230.521875 
L 359.869091 230.521875 
L 356.640227 230.521875 
z
" style="fill:#1f77b4;"/>
   </g>
   <g id="patch_100">
    <path clip-path="url(#p7a140d0e89)" d="M 359.869091 230.521875 
L 363.097955 230.521875 
L 363.097955 230.521875 
L 359.869091 230.521875 
z
" style="fill:#1f77b4;"/>
   </g>
   <g id="patch_101">
    <path clip-path="url(#p7a140d0e89)" d="M 363.097955 230.521875 
L 366.326818 230.521875 
L 366.326818 230.521875 
L 363.097955 230.521875 
z
" style="fill:#1f77b4;"/>
   </g>
   <g id="patch_102">
    <path clip-path="url(#p7a140d0e89)" d="M 366.326818 230.521875 
L 369.555682 230.521875 
L 369.555682 222.895001 
L 366.326818 222.895001 
z
" style="fill:#1f77b4;"/>
   </g>
   <g id="matplotlib.axis_1">
    <g id="xtick_1">
     <g id="line2d_1">
      <defs>
       <path d="M 0 0 
L 0 3.5 
" id="m0c36cebbfb" style="stroke:#000000;stroke-width:0.8;"/>
      </defs>
      <g>
       <use style="stroke:#000000;stroke-width:0.8;" x="46.667862" xlink:href="#m0c36cebbfb" y="230.521875"/>
      </g>
     </g>
     <g id="text_1">
      <!-- 0 -->
      <defs>
       <path d="M 31.78125 66.40625 
Q 24.171875 66.40625 20.328125 58.90625 
Q 16.5 51.421875 16.5 36.375 
Q 16.5 21.390625 20.328125 13.890625 
Q 24.171875 6.390625 31.78125 6.390625 
Q 39.453125 6.390625 43.28125 13.890625 
Q 47.125 21.390625 47.125 36.375 
Q 47.125 51.421875 43.28125 58.90625 
Q 39.453125 66.40625 31.78125 66.40625 
z
M 31.78125 74.21875 
Q 44.046875 74.21875 50.515625 64.515625 
Q 56.984375 54.828125 56.984375 36.375 
Q 56.984375 17.96875 50.515625 8.265625 
Q 44.046875 -1.421875 31.78125 -1.421875 
Q 19.53125 -1.421875 13.0625 8.265625 
Q 6.59375 17.96875 6.59375 36.375 
Q 6.59375 54.828125 13.0625 64.515625 
Q 19.53125 74.21875 31.78125 74.21875 
z
" id="DejaVuSans-30"/>
      </defs>
      <g transform="translate(43.486612 245.120313)scale(0.1 -0.1)">
       <use xlink:href="#DejaVuSans-30"/>
      </g>
     </g>
    </g>
    <g id="xtick_2">
     <g id="line2d_2">
      <g>
       <use style="stroke:#000000;stroke-width:0.8;" x="122.077082" xlink:href="#m0c36cebbfb" y="230.521875"/>
      </g>
     </g>
     <g id="text_2">
      <!-- 200 -->
      <defs>
       <path d="M 19.1875 8.296875 
L 53.609375 8.296875 
L 53.609375 0 
L 7.328125 0 
L 7.328125 8.296875 
Q 12.9375 14.109375 22.625 23.890625 
Q 32.328125 33.6875 34.8125 36.53125 
Q 39.546875 41.84375 41.421875 45.53125 
Q 43.3125 49.21875 43.3125 52.78125 
Q 43.3125 58.59375 39.234375 62.25 
Q 35.15625 65.921875 28.609375 65.921875 
Q 23.96875 65.921875 18.8125 64.3125 
Q 13.671875 62.703125 7.8125 59.421875 
L 7.8125 69.390625 
Q 13.765625 71.78125 18.9375 73 
Q 24.125 74.21875 28.421875 74.21875 
Q 39.75 74.21875 46.484375 68.546875 
Q 53.21875 62.890625 53.21875 53.421875 
Q 53.21875 48.921875 51.53125 44.890625 
Q 49.859375 40.875 45.40625 35.40625 
Q 44.1875 33.984375 37.640625 27.21875 
Q 31.109375 20.453125 19.1875 8.296875 
z
" id="DejaVuSans-32"/>
      </defs>
      <g transform="translate(112.533332 245.120313)scale(0.1 -0.1)">
       <use xlink:href="#DejaVuSans-32"/>
       <use x="63.623047" xlink:href="#DejaVuSans-30"/>
       <use x="127.246094" xlink:href="#DejaVuSans-30"/>
      </g>
     </g>
    </g>
    <g id="xtick_3">
     <g id="line2d_3">
      <g>
       <use style="stroke:#000000;stroke-width:0.8;" x="197.486302" xlink:href="#m0c36cebbfb" y="230.521875"/>
      </g>
     </g>
     <g id="text_3">
      <!-- 400 -->
      <defs>
       <path d="M 37.796875 64.3125 
L 12.890625 25.390625 
L 37.796875 25.390625 
z
M 35.203125 72.90625 
L 47.609375 72.90625 
L 47.609375 25.390625 
L 58.015625 25.390625 
L 58.015625 17.1875 
L 47.609375 17.1875 
L 47.609375 0 
L 37.796875 0 
L 37.796875 17.1875 
L 4.890625 17.1875 
L 4.890625 26.703125 
z
" id="DejaVuSans-34"/>
      </defs>
      <g transform="translate(187.942552 245.120313)scale(0.1 -0.1)">
       <use xlink:href="#DejaVuSans-34"/>
       <use x="63.623047" xlink:href="#DejaVuSans-30"/>
       <use x="127.246094" xlink:href="#DejaVuSans-30"/>
      </g>
     </g>
    </g>
    <g id="xtick_4">
     <g id="line2d_4">
      <g>
       <use style="stroke:#000000;stroke-width:0.8;" x="272.895522" xlink:href="#m0c36cebbfb" y="230.521875"/>
      </g>
     </g>
     <g id="text_4">
      <!-- 600 -->
      <defs>
       <path d="M 33.015625 40.375 
Q 26.375 40.375 22.484375 35.828125 
Q 18.609375 31.296875 18.609375 23.390625 
Q 18.609375 15.53125 22.484375 10.953125 
Q 26.375 6.390625 33.015625 6.390625 
Q 39.65625 6.390625 43.53125 10.953125 
Q 47.40625 15.53125 47.40625 23.390625 
Q 47.40625 31.296875 43.53125 35.828125 
Q 39.65625 40.375 33.015625 40.375 
z
M 52.59375 71.296875 
L 52.59375 62.3125 
Q 48.875 64.0625 45.09375 64.984375 
Q 41.3125 65.921875 37.59375 65.921875 
Q 27.828125 65.921875 22.671875 59.328125 
Q 17.53125 52.734375 16.796875 39.40625 
Q 19.671875 43.65625 24.015625 45.921875 
Q 28.375 48.1875 33.59375 48.1875 
Q 44.578125 48.1875 50.953125 41.515625 
Q 57.328125 34.859375 57.328125 23.390625 
Q 57.328125 12.15625 50.6875 5.359375 
Q 44.046875 -1.421875 33.015625 -1.421875 
Q 20.359375 -1.421875 13.671875 8.265625 
Q 6.984375 17.96875 6.984375 36.375 
Q 6.984375 53.65625 15.1875 63.9375 
Q 23.390625 74.21875 37.203125 74.21875 
Q 40.921875 74.21875 44.703125 73.484375 
Q 48.484375 72.75 52.59375 71.296875 
z
" id="DejaVuSans-36"/>
      </defs>
      <g transform="translate(263.351772 245.120313)scale(0.1 -0.1)">
       <use xlink:href="#DejaVuSans-36"/>
       <use x="63.623047" xlink:href="#DejaVuSans-30"/>
       <use x="127.246094" xlink:href="#DejaVuSans-30"/>
      </g>
     </g>
    </g>
    <g id="xtick_5">
     <g id="line2d_5">
      <g>
       <use style="stroke:#000000;stroke-width:0.8;" x="348.304742" xlink:href="#m0c36cebbfb" y="230.521875"/>
      </g>
     </g>
     <g id="text_5">
      <!-- 800 -->
      <defs>
       <path d="M 31.78125 34.625 
Q 24.75 34.625 20.71875 30.859375 
Q 16.703125 27.09375 16.703125 20.515625 
Q 16.703125 13.921875 20.71875 10.15625 
Q 24.75 6.390625 31.78125 6.390625 
Q 38.8125 6.390625 42.859375 10.171875 
Q 46.921875 13.96875 46.921875 20.515625 
Q 46.921875 27.09375 42.890625 30.859375 
Q 38.875 34.625 31.78125 34.625 
z
M 21.921875 38.8125 
Q 15.578125 40.375 12.03125 44.71875 
Q 8.5 49.078125 8.5 55.328125 
Q 8.5 64.0625 14.71875 69.140625 
Q 20.953125 74.21875 31.78125 74.21875 
Q 42.671875 74.21875 48.875 69.140625 
Q 55.078125 64.0625 55.078125 55.328125 
Q 55.078125 49.078125 51.53125 44.71875 
Q 48 40.375 41.703125 38.8125 
Q 48.828125 37.15625 52.796875 32.3125 
Q 56.78125 27.484375 56.78125 20.515625 
Q 56.78125 9.90625 50.3125 4.234375 
Q 43.84375 -1.421875 31.78125 -1.421875 
Q 19.734375 -1.421875 13.25 4.234375 
Q 6.78125 9.90625 6.78125 20.515625 
Q 6.78125 27.484375 10.78125 32.3125 
Q 14.796875 37.15625 21.921875 38.8125 
z
M 18.3125 54.390625 
Q 18.3125 48.734375 21.84375 45.5625 
Q 25.390625 42.390625 31.78125 42.390625 
Q 38.140625 42.390625 41.71875 45.5625 
Q 45.3125 48.734375 45.3125 54.390625 
Q 45.3125 60.0625 41.71875 63.234375 
Q 38.140625 66.40625 31.78125 66.40625 
Q 25.390625 66.40625 21.84375 63.234375 
Q 18.3125 60.0625 18.3125 54.390625 
z
" id="DejaVuSans-38"/>
      </defs>
      <g transform="translate(338.760992 245.120313)scale(0.1 -0.1)">
       <use xlink:href="#DejaVuSans-38"/>
       <use x="63.623047" xlink:href="#DejaVuSans-30"/>
       <use x="127.246094" xlink:href="#DejaVuSans-30"/>
      </g>
     </g>
    </g>
   </g>
   <g id="matplotlib.axis_2">
    <g id="ytick_1">
     <g id="line2d_6">
      <defs>
       <path d="M 0 0 
L -3.5 0 
" id="ma3361637e3" style="stroke:#000000;stroke-width:0.8;"/>
      </defs>
      <g>
       <use style="stroke:#000000;stroke-width:0.8;" x="30.525" xlink:href="#ma3361637e3" y="230.521875"/>
      </g>
     </g>
     <g id="text_6">
      <!-- 0 -->
      <g transform="translate(17.1625 234.321094)scale(0.1 -0.1)">
       <use xlink:href="#DejaVuSans-30"/>
      </g>
     </g>
    </g>
    <g id="ytick_2">
     <g id="line2d_7">
      <g>
       <use style="stroke:#000000;stroke-width:0.8;" x="30.525" xlink:href="#ma3361637e3" y="192.387506"/>
      </g>
     </g>
     <g id="text_7">
      <!-- 5 -->
      <defs>
       <path d="M 10.796875 72.90625 
L 49.515625 72.90625 
L 49.515625 64.59375 
L 19.828125 64.59375 
L 19.828125 46.734375 
Q 21.96875 47.46875 24.109375 47.828125 
Q 26.265625 48.1875 28.421875 48.1875 
Q 40.625 48.1875 47.75 41.5 
Q 54.890625 34.8125 54.890625 23.390625 
Q 54.890625 11.625 47.5625 5.09375 
Q 40.234375 -1.421875 26.90625 -1.421875 
Q 22.3125 -1.421875 17.546875 -0.640625 
Q 12.796875 0.140625 7.71875 1.703125 
L 7.71875 11.625 
Q 12.109375 9.234375 16.796875 8.0625 
Q 21.484375 6.890625 26.703125 6.890625 
Q 35.15625 6.890625 40.078125 11.328125 
Q 45.015625 15.765625 45.015625 23.390625 
Q 45.015625 31 40.078125 35.4375 
Q 35.15625 39.890625 26.703125 39.890625 
Q 22.75 39.890625 18.8125 39.015625 
Q 14.890625 38.140625 10.796875 36.28125 
z
" id="DejaVuSans-35"/>
      </defs>
      <g transform="translate(17.1625 196.186724)scale(0.1 -0.1)">
       <use xlink:href="#DejaVuSans-35"/>
      </g>
     </g>
    </g>
    <g id="ytick_3">
     <g id="line2d_8">
      <g>
       <use style="stroke:#000000;stroke-width:0.8;" x="30.525" xlink:href="#ma3361637e3" y="154.253136"/>
      </g>
     </g>
     <g id="text_8">
      <!-- 10 -->
      <defs>
       <path d="M 12.40625 8.296875 
L 28.515625 8.296875 
L 28.515625 63.921875 
L 10.984375 60.40625 
L 10.984375 69.390625 
L 28.421875 72.90625 
L 38.28125 72.90625 
L 38.28125 8.296875 
L 54.390625 8.296875 
L 54.390625 0 
L 12.40625 0 
z
" id="DejaVuSans-31"/>
      </defs>
      <g transform="translate(10.8 158.052355)scale(0.1 -0.1)">
       <use xlink:href="#DejaVuSans-31"/>
       <use x="63.623047" xlink:href="#DejaVuSans-30"/>
      </g>
     </g>
    </g>
    <g id="ytick_4">
     <g id="line2d_9">
      <g>
       <use style="stroke:#000000;stroke-width:0.8;" x="30.525" xlink:href="#ma3361637e3" y="116.118767"/>
      </g>
     </g>
     <g id="text_9">
      <!-- 15 -->
      <g transform="translate(10.8 119.917985)scale(0.1 -0.1)">
       <use xlink:href="#DejaVuSans-31"/>
       <use x="63.623047" xlink:href="#DejaVuSans-35"/>
      </g>
     </g>
    </g>
    <g id="ytick_5">
     <g id="line2d_10">
      <g>
       <use style="stroke:#000000;stroke-width:0.8;" x="30.525" xlink:href="#ma3361637e3" y="77.984397"/>
      </g>
     </g>
     <g id="text_10">
      <!-- 20 -->
      <g transform="translate(10.8 81.783616)scale(0.1 -0.1)">
       <use xlink:href="#DejaVuSans-32"/>
       <use x="63.623047" xlink:href="#DejaVuSans-30"/>
      </g>
     </g>
    </g>
    <g id="ytick_6">
     <g id="line2d_11">
      <g>
       <use style="stroke:#000000;stroke-width:0.8;" x="30.525" xlink:href="#ma3361637e3" y="39.850028"/>
      </g>
     </g>
     <g id="text_11">
      <!-- 25 -->
      <g transform="translate(10.8 43.649246)scale(0.1 -0.1)">
       <use xlink:href="#DejaVuSans-32"/>
       <use x="63.623047" xlink:href="#DejaVuSans-35"/>
      </g>
     </g>
    </g>
   </g>
   <g id="patch_103">
    <path d="M 30.525 230.521875 
L 30.525 14.3 
" style="fill:none;stroke:#000000;stroke-linecap:square;stroke-linejoin:miter;stroke-width:0.8;"/>
   </g>
   <g id="patch_104">
    <path d="M 385.7 230.521875 
L 385.7 14.3 
" style="fill:none;stroke:#000000;stroke-linecap:square;stroke-linejoin:miter;stroke-width:0.8;"/>
   </g>
   <g id="patch_105">
    <path d="M 30.525 230.521875 
L 385.7 230.521875 
" style="fill:none;stroke:#000000;stroke-linecap:square;stroke-linejoin:miter;stroke-width:0.8;"/>
   </g>
   <g id="patch_106">
    <path d="M 30.525 14.3 
L 385.7 14.3 
" style="fill:none;stroke:#000000;stroke-linecap:square;stroke-linejoin:miter;stroke-width:0.8;"/>
   </g>
  </g>
 </g>
 <defs>
  <clipPath id="p7a140d0e89">
   <rect height="216.221875" width="355.175" x="30.525" y="14.3"/>
  </clipPath>
 </defs>
</svg>
